<?xml version="1.0" encoding="utf-8"?>
<!-- Generator: Adobe Illustrator 16.0.0, SVG Export Plug-In . SVG Version: 6.00 Build 0)  -->
<!DOCTYPE svg PUBLIC "-//W3C//DTD SVG 1.1//EN" "http://www.w3.org/Graphics/SVG/1.1/DTD/svg11.dtd">
<svg version="1.1" id="Layer_1" xmlns="http://www.w3.org/2000/svg" xmlns:xlink="http://www.w3.org/1999/xlink" x="0px" y="0px"
	width="55.667px" height="87.333px" viewBox="0 0 55.667 87.333" enable-background="new 0 0 55.667 87.333" xml:space="preserve">
<g>
	<path fill="#e53349" d="M13.404,28.112l-0.113,0.231l-0.781,1.476c-0.102,0.188-0.008,0.344,0.207,0.344h0.145c0.215,0,0.332,0.164,0.281,0.371
		c-0.168,0.668-0.215,1.375-0.113,2.133c0.14,1.023,0.766,1.961,1.199,2.875c0.609,1.277,0.762,2.453,0.422,3.824
		c-0.305,1.215-0.707,2.355-0.863,3.605c-0.152,1.242,1.793,1.227,1.945-0.004c0.141-1.148,0.578-2.238,0.859-3.359
		c0.277-1.129,0.266-2.258-0.016-3.379c-0.266-1.078-0.871-2.031-1.34-3.031c-0.441-0.934-0.367-1.816-0.078-2.672
		c0.07-0.203,0.313-0.363,0.527-0.363h0.113c0.215,0,0.305-0.156,0.207-0.344l-0.785-1.476c0,0-0.052-0.098-0.113-0.219
		c-0.059-0.121,0.062-0.238,0.273-0.278c4.008-0.718,7.094-5.179,7.094-10.55c0-5.871-3.688-10.629-8.234-10.629
		c-4.551,0-8.238,4.758-8.238,10.629c0,5.386,3.105,9.836,7.129,10.535C13.342,27.866,13.467,27.987,13.404,28.112z"/>
	<circle fill="#e53349" cx="31.129" cy="28.644" r="6.648"/>
	<path fill="#e53349" d="M47.495,23.112c-1.539-0.402-3.121,0.531-3.52,2.078l-2.602,10.074l-5.882,2.685h-10.28c-0.157,0-0.305,0.022-0.45,0.059
		c-0.566,0.109-1.105,0.382-1.531,0.839L13,50.151c-1.067,1.141-1.004,2.93,0.136,3.996c0.547,0.508,1.239,0.758,1.93,0.758
		c0.758,0,1.512-0.301,2.067-0.898l6.191-6.914v8.094L22.5,78.577c-0.063,1.824,1.363,3.352,3.183,3.414
		c0.039,0.004,0.078,0.004,0.117,0.004c1.77,0,3.231-1.402,3.293-3.184l0.618-17.535h2.577l2.316,17.844
		c0.215,1.66,1.633,2.875,3.265,2.875c0.141,0,0.285-0.012,0.43-0.031c1.805-0.234,3.082-1.887,2.844-3.695l-3.27-24.891
		l-0.086-10.121l7.242-3.305c0.793-0.359,1.383-1.063,1.602-1.906l2.941-11.414C49.971,25.085,49.042,23.511,47.495,23.112z"/>
</g>
</svg>
