<?xml version="1.0" encoding="utf-8"?>
<!-- Generator: Adobe Illustrator 16.0.0, SVG Export Plug-In . SVG Version: 6.00 Build 0)  -->
<!DOCTYPE svg PUBLIC "-//W3C//DTD SVG 1.1//EN" "http://www.w3.org/Graphics/SVG/1.1/DTD/svg11.dtd">
<svg version="1.1" id="Layer_1" xmlns="http://www.w3.org/2000/svg" xmlns:xlink="http://www.w3.org/1999/xlink" x="0px" y="0px"
	 width="58px" height="58px" viewBox="0 0 58 58" enable-background="new 0 0 58 58" xml:space="preserve">
<g>
	<rect x="30.479" y="0.476" fill="#D8D8D8" width="2.495" height="1.5"/>
	<rect x="26.004" y="0.476" fill="#D8D8D8" width="2.494" height="1.5"/>
	<rect x="21.543" y="0.476" fill="#D8D8D8" width="2.495" height="1.5"/>
	<path fill="#D8D8D8" d="M46.483,0.856c0,0-0.633-0.073-1.267-0.146c-0.316-0.036-0.634-0.072-0.871-0.099
		c-0.238-0.029-0.395-0.024-0.395-0.024l-0.093,1.497c0,0,0.156-0.005,0.379,0.023c0.223,0.026,0.521,0.06,0.817,0.094
		c0.595,0.068,1.189,0.135,1.189,0.135L46.483,0.856z"/>
	<path fill="#D8D8D8" d="M41.914,2.016l0.04-1.5c0,0-0.632-0.034-1.255-0.028c-0.625-0.002-1.25-0.005-1.25-0.005l-0.011,1.5
		c0,0,0.621,0.002,1.243,0.005C41.307,1.982,41.914,2.016,41.914,2.016z"/>
	<rect x="34.984" y="0.476" fill="#D8D8D8" width="2.495" height="1.5"/>
	<path fill="#D8D8D8" d="M55.227,9.804l1.435-0.439c0.14-0.035-0.974-2.429-1.026-2.392l-1.302,0.746
		C54.385,7.707,55.344,9.739,55.227,9.804z"/>
	<path fill="#D8D8D8" d="M53.313,6.217l1.16-0.951c0.001,0-0.428-0.491-0.876-0.964c-0.484-0.435-0.972-0.868-0.972-0.868
		l-0.937,1.172c0,0,0.427,0.381,0.854,0.763C52.928,5.793,53.313,6.217,53.313,6.217z"/>
	<path fill="#D8D8D8" d="M50.914,2.305c0,0-0.555-0.341-1.174-0.576c-0.595-0.298-1.23-0.416-1.23-0.416l-0.426,1.438
		c0.059-0.102,2.122,0.792,2.1,0.863L50.914,2.305z"/>
	<rect x="56.03" y="20.397" fill="#D8D8D8" width="1.5" height="2.494"/>
	<path fill="#D8D8D8" d="M56.018,17.181c0.002,0.622,0.005,1.243,0.005,1.243l1.5-0.012c0,0-0.003-0.625-0.006-1.25
		c0.002-0.624-0.031-1.256-0.032-1.256l-1.499,0.044C55.985,15.95,56.019,16.557,56.018,17.181z"/>
	<path fill="#D8D8D8" d="M55.791,12.828c0.034,0.297,0.068,0.594,0.094,0.817c0.031,0.221,0.033,0.375,0.033,0.375l1.497-0.097
		c-0.001,0-0.003-0.157-0.035-0.395c-0.026-0.238-0.063-0.555-0.099-0.871c-0.073-0.634-0.146-1.267-0.146-1.267l-1.479,0.248
		C55.655,11.638,55.724,12.233,55.791,12.828z"/>
	<rect x="56.03" y="33.838" fill="#D8D8D8" width="1.5" height="2.495"/>
	<rect x="56.03" y="29.363" fill="#D8D8D8" width="1.5" height="2.495"/>
	<rect x="56.03" y="24.903" fill="#D8D8D8" width="1.5" height="2.495"/>
	<path fill="#D8D8D8" d="M55.231,48.175c-0.057,0.291-0.14,0.565-0.239,0.751c-0.083,0.193-0.139,0.322-0.139,0.322l1.379,0.59
		c0,0,0.064-0.15,0.161-0.377c0.113-0.224,0.209-0.533,0.272-0.85c0.153-0.627,0.306-1.255,0.306-1.255l-1.466-0.315
		C55.506,47.041,55.368,47.608,55.231,48.175z"/>
	<path fill="#D8D8D8" d="M55.917,43.988c-0.05,0.602-0.127,1.192-0.127,1.192l1.49,0.171c0,0,0.082-0.635,0.134-1.267
		c0.022-0.629,0.045-1.259,0.045-1.259l-1.499-0.063C55.96,42.764,55.938,43.376,55.917,43.988z"/>
	<polygon fill="#D8D8D8" points="56.018,40.828 57.517,40.847 57.527,38.347 56.027,38.342 	"/>
	<path fill="#D8D8D8" d="M47.056,55.497c-0.217,0.04-0.485,0.148-0.79,0.164c-0.595,0.067-1.189,0.135-1.189,0.135l0.164,1.491
		c0,0,0.633-0.072,1.267-0.146c0.318-0.018,0.629-0.134,0.865-0.178c0.235-0.058,0.393-0.096,0.393-0.096l-0.354-1.457
		C47.41,55.411,47.269,55.445,47.056,55.497z"/>
	<path fill="#D8D8D8" d="M49.158,54.889l0.574,1.386c0.039,0.067,2.325-1.188,2.276-1.267l-0.863-1.227
		C51.188,53.853,49.178,54.954,49.158,54.889z"/>
	<path fill="#D8D8D8" d="M53.308,51.788c-0.191,0.214-0.383,0.427-0.526,0.586c-0.141,0.163-0.245,0.262-0.244,0.262l1.053,1.067
		c0,0,0.118-0.111,0.279-0.296c0.163-0.182,0.38-0.425,0.598-0.667c0.402-0.512,0.771-1.05,0.771-1.05l-1.253-0.825
		C53.985,50.865,53.659,51.337,53.308,51.788z"/>
	<rect x="31.749" y="56.024" fill="#D8D8D8" width="2.494" height="1.5"/>
	<polygon fill="#D8D8D8" points="36.224,56.024 36.224,57.524 38.721,57.52 38.714,56.02 	"/>
	<path fill="#D8D8D8" d="M41.905,55.984c-0.609,0.029-1.232,0.027-1.232,0.027l0.018,1.5c0,0,0.624,0.002,1.255-0.027
		c0.629-0.022,1.258-0.045,1.258-0.045l-0.073-1.498C43.13,55.941,42.518,55.963,41.905,55.984z"/>
	<polygon fill="#D8D8D8" points="18.302,57.516 20.802,57.524 20.802,56.024 18.314,56.016 	"/>
	<rect x="22.781" y="56.024" fill="#D8D8D8" width="2.495" height="1.5"/>
	<rect x="27.242" y="56.024" fill="#D8D8D8" width="2.494" height="1.5"/>
	<path fill="#D8D8D8" d="M7.058,53.928c-0.232-0.167-0.465-0.334-0.64-0.46c-0.181-0.117-0.277-0.226-0.277-0.226L5.18,54.394
		c0,0.001,0.111,0.121,0.315,0.257c0.198,0.143,0.463,0.333,0.728,0.523c0.256,0.203,0.556,0.338,0.764,0.465
		c0.213,0.12,0.355,0.2,0.355,0.2l0.7-1.326c0,0-0.125-0.07-0.312-0.177C7.548,54.224,7.282,54.108,7.058,53.928z"/>
	<path fill="#D8D8D8" d="M10.838,55.471c-0.567-0.137-1.134-0.273-1.134-0.273l-0.449,1.432c0,0,2.508,0.64,2.515,0.545l0.224-1.483
		c0,0-0.148-0.017-0.372-0.042C11.399,55.624,11.124,55.534,10.838,55.471z"/>
	<polygon fill="#D8D8D8" points="13.766,57.401 16.283,57.492 16.317,55.992 13.868,55.905 	"/>
	<path fill="#D8D8D8" d="M2.079,43.872c-0.008-0.229-0.019-0.536-0.029-0.842c-0.021-0.612-0.043-1.225-0.043-1.225l-1.5,0.036
		c0,0,0.022,0.63,0.044,1.259c0.011,0.315,0.022,0.63,0.031,0.865c0.003,0.236,0.026,0.395,0.026,0.395l1.496-0.109
		C2.104,44.251,2.082,44.104,2.079,43.872z"/>
	<path fill="#D8D8D8" d="M2.555,47.288c-0.069-0.283-0.139-0.566-0.191-0.779c-0.026-0.223-0.044-0.371-0.044-0.371l-1.481,0.233
		c0,0,0.019,0.158,0.048,0.396c0.057,0.235,0.133,0.55,0.208,0.863c0.153,0.628,0.307,1.255,0.307,1.255l1.427-0.463
		C2.828,48.422,2.692,47.855,2.555,47.288z"/>
	<path fill="#D8D8D8" d="M4.137,51.033c-0.179-0.226-0.318-0.476-0.42-0.665c-0.106-0.188-0.176-0.312-0.176-0.312l-1.319,0.714
		c0,0,0.08,0.142,0.2,0.354C2.54,51.34,2.7,51.624,2.9,51.882c0.19,0.265,0.38,0.528,0.523,0.728
		c0.161,0.184,0.268,0.307,0.268,0.307l1.142-0.974c0,0-0.095-0.107-0.237-0.269C4.471,51.499,4.304,51.266,4.137,51.033z"/>
	<rect x="0.47" y="28.388" fill="#D8D8D8" width="1.5" height="2.495"/>
	<rect x="0.47" y="32.862" fill="#D8D8D8" width="1.5" height="2.495"/>
	<polygon fill="#D8D8D8" points="1.97,37.323 0.47,37.323 0.479,39.822 1.979,39.81 	"/>
	<path fill="#D8D8D8" d="M1.982,17.452c0,0-0.007-0.626,0.023-1.234c0.021-0.613,0.043-1.225,0.043-1.225l-1.498-0.07
		c0,0-0.022,0.629-0.044,1.259c-0.031,0.631-0.024,1.254-0.024,1.254L1.982,17.452z"/>
	<polygon fill="#D8D8D8" points="1.974,19.424 0.474,19.418 0.47,21.916 1.97,21.916 	"/>
	<rect x="0.47" y="23.881" fill="#D8D8D8" width="1.5" height="2.495"/>
	<path fill="#D8D8D8" d="M5.539,5.297c0.16-0.143,0.373-0.334,0.586-0.526C6.328,4.567,6.583,4.427,6.75,4.294
		c0.174-0.125,0.291-0.209,0.291-0.209L6.204,2.84c0,0-0.132,0.095-0.331,0.237c-0.192,0.151-0.478,0.314-0.71,0.544
		C4.92,3.839,4.677,4.057,4.496,4.22C4.308,4.377,4.208,4.508,4.208,4.508l1.078,1.042C5.287,5.551,5.373,5.435,5.539,5.297z"/>
	<path fill="#D8D8D8" d="M4.142,6.96l-1.236-0.85c-0.092-0.058-1.294,2.261-1.24,2.292l1.393,0.555
		C3.008,8.947,4.056,6.911,4.142,6.96z"/>
	<path fill="#D8D8D8" d="M2.32,11.854c0.019-0.303,0.097-0.583,0.15-0.795c0.052-0.212,0.086-0.354,0.086-0.354l-1.46-0.343
		c0,0-0.038,0.157-0.095,0.393c-0.058,0.235-0.142,0.548-0.163,0.866c-0.073,0.633-0.146,1.267-0.146,1.267l1.492,0.156
		C2.185,13.042,2.253,12.448,2.32,11.854z"/>
	<polygon fill="#D8D8D8" points="19.529,0.479 17.03,0.489 17.048,1.989 19.535,1.979 	"/>
	<path fill="#D8D8D8" d="M15.101,2.05l-0.067-1.499c0,0-0.629,0.023-1.259,0.045c-0.633,0.072-1.267,0.145-1.267,0.145l0.179,1.489
		c0,0,0.594-0.068,1.189-0.137C14.488,2.072,15.101,2.05,15.101,2.05z"/>
	<path fill="#D8D8D8" d="M10.846,2.527l-0.327-1.464c0,0-0.627,0.153-1.255,0.306c-0.631,0.135-1.217,0.48-1.223,0.454l0.606,1.372
		c0,0,0.129-0.056,0.323-0.139C9.164,2.97,9.417,2.85,9.711,2.801C10.279,2.664,10.846,2.527,10.846,2.527z"/>
	<path fill="#D8D8D8" d="M37.746,18.919c-0.504-1.158-1.188-2.174-2.051-3.044c-0.865-0.868-1.873-1.56-3.023-2.073
		c-1.154-0.515-2.377-0.771-3.671-0.771c-1.297,0-2.521,0.249-3.672,0.75c-1.152,0.501-2.16,1.186-3.023,2.055
		s-1.548,1.885-2.051,3.044c-0.504,1.158-0.756,2.397-0.756,3.714c0,0.593,0.193,1.086,0.579,1.482
		c0.387,0.395,0.874,0.592,1.463,0.592c0.288,0,0.556-0.051,0.805-0.157c0.249-0.105,0.464-0.254,0.648-0.445
		c0.183-0.191,0.331-0.411,0.442-0.661c0.11-0.25,0.166-0.52,0.166-0.811c0-0.764,0.141-1.475,0.422-2.134
		c0.281-0.658,0.667-1.231,1.157-1.719c0.492-0.486,1.063-0.873,1.719-1.156c0.653-0.283,1.354-0.425,2.1-0.425
		c0.732,0,1.427,0.146,2.082,0.435c0.654,0.291,1.227,0.683,1.717,1.175c0.492,0.495,0.881,1.072,1.17,1.729
		c0.287,0.659,0.432,1.357,0.432,2.094c0,1.477-0.523,2.761-1.57,3.854l-3.083,2.885c-1.871,1.885-2.807,4.01-2.807,6.381
		c0,0.594,0.196,1.084,0.589,1.471c0.393,0.391,0.884,0.584,1.472,0.584c0.59,0,1.078-0.193,1.464-0.584
		c0.385-0.387,0.578-0.877,0.578-1.471c0-1.252,0.523-2.402,1.57-3.457l3.084-2.865c1.871-1.924,2.807-4.188,2.807-6.798
		C38.502,21.303,38.25,20.079,37.746,18.919z"/>
	<path fill="#D8D8D8" d="M30.975,40.176c-0.545-0.545-1.204-0.818-1.974-0.818c-0.773,0-1.431,0.273-1.975,0.818
		c-0.542,0.547-0.814,1.209-0.814,1.986s0.272,1.439,0.814,1.986c0.544,0.547,1.202,0.82,1.975,0.82c0.771,0,1.429-0.275,1.974-0.82
		c0.541-0.547,0.813-1.209,0.813-1.986S31.516,40.723,30.975,40.176z"/>
</g>
</svg>
