<?xml version="1.0" encoding="utf-8"?>
<!-- Generator: Adobe Illustrator 16.0.0, SVG Export Plug-In . SVG Version: 6.00 Build 0)  -->
<!DOCTYPE svg PUBLIC "-//W3C//DTD SVG 1.1//EN" "http://www.w3.org/Graphics/SVG/1.1/DTD/svg11.dtd">
<svg version="1.1" id="Layer_1" xmlns="http://www.w3.org/2000/svg" xmlns:xlink="http://www.w3.org/1999/xlink" x="0px" y="0px"
	 width="58px" height="58px" viewBox="0 0 58 58" enable-background="new 0 0 58 58" xml:space="preserve">
<g>
	<rect x="39.873" y="33.633" fill="#567DD6" width="4.35" height="4.227"/>
	<rect x="39.873" y="42.098" fill="#567DD6" width="4.35" height="4.271"/>
	<rect x="31.205" y="25.035" fill="#567DD6" width="4.35" height="4.314"/>
	<path fill="#567DD6" d="M19.254,15.516c1.757,0,3.181-1.398,3.181-3.123V9.121c0-1.725-1.424-3.123-3.181-3.123
		c-1.758,0-3.182,1.398-3.182,3.123v3.272C16.073,14.118,17.497,15.516,19.254,15.516z"/>
	<rect x="39.873" y="25.035" fill="#567DD6" width="4.35" height="4.314"/>
	<path fill="#567DD6" d="M38.646,15.516c1.756,0,3.18-1.398,3.18-3.123V9.121c0-1.725-1.424-3.123-3.18-3.123
		c-1.758,0-3.182,1.398-3.182,3.123v3.272C35.465,14.118,36.889,15.516,38.646,15.516z"/>
	<rect x="31.205" y="33.633" fill="#567DD6" width="4.35" height="4.227"/>
	<path fill="#567DD6" d="M46.775,10.802h-3.232v1.586c0,2.628-2.17,4.715-4.848,4.715s-4.848-2.087-4.848-4.715v-1.586h-9.695v1.586
		c0,2.628-2.171,4.715-4.849,4.715c-2.677,0-4.848-2.087-4.848-4.715v-1.586h-3.231c-1.785,0-3.232,1.375-3.232,3.128v34.9
		c0,1.752,1.447,3.172,3.232,3.172h35.55c1.785,0,3.232-1.42,3.232-3.172V13.974C50.008,12.222,48.561,10.802,46.775,10.802z
		 M47.137,49.273H10.908V22.128h36.229V49.273z"/>
	<rect x="13.823" y="25.035" fill="#567DD6" width="4.351" height="4.314"/>
	<rect x="13.823" y="33.633" fill="#567DD6" width="4.351" height="4.227"/>
	<rect x="31.205" y="42.098" fill="#567DD6" width="4.35" height="4.271"/>
	<rect x="13.823" y="42.098" fill="#567DD6" width="4.351" height="4.271"/>
	<rect x="22.492" y="42.098" fill="#567DD6" width="4.35" height="4.271"/>
	<rect x="22.492" y="25.035" fill="#567DD6" width="4.35" height="4.314"/>
	<rect x="22.492" y="33.633" fill="#567DD6" width="4.35" height="4.227"/>
</g>
</svg>
