<?xml version="1.0" encoding="utf-8"?>
<!-- Generator: Adobe Illustrator 16.0.0, SVG Export Plug-In . SVG Version: 6.00 Build 0)  -->
<!DOCTYPE svg PUBLIC "-//W3C//DTD SVG 1.1//EN" "http://www.w3.org/Graphics/SVG/1.1/DTD/svg11.dtd">
<svg version="1.1" id="Layer_1" xmlns="http://www.w3.org/2000/svg" xmlns:xlink="http://www.w3.org/1999/xlink" x="0px" y="0px"
	 width="162px" height="162px" viewBox="0 0 162 162" enable-background="new 0 0 162 162" xml:space="preserve">
<g>
	<path fill="#FFFFFF" d="M81,0.884C36.824,0.884,0.884,36.824,0.884,81c0,44.177,35.94,80.117,80.116,80.117
		c44.177,0,80.117-35.94,80.117-80.117C161.117,36.824,125.177,0.884,81,0.884z M136.996,131
		c-3.423-17.531-13.02-31.586-27.242-39.811l-1.07-0.611l-0.844,0.884c-7.094,7.435-16.621,11.54-26.838,11.54
		c-10.22,0-19.75-4.105-26.841-11.54l-0.858-0.884l-1.06,0.611c-14.236,8.224-23.815,22.278-27.241,39.808
		C13.123,117.707,5.884,100.187,5.884,81C5.884,39.581,39.581,5.884,81,5.884c41.42,0,75.117,33.697,75.117,75.116
		C156.117,100.188,148.877,117.709,136.996,131z"/>
	<path fill="#FFFFFF" d="M81.001,28c-18.584,0-33.704,15.117-33.704,33.698c0,18.585,15.12,33.722,33.704,33.722
		c18.579,0,33.702-15.12,33.702-33.707C114.703,43.117,99.58,28,81.001,28z"/>
</g>
</svg>
