<?xml version="1.0" encoding="utf-8"?>
<!-- Generator: Adobe Illustrator 16.0.0, SVG Export Plug-In . SVG Version: 6.00 Build 0)  -->
<!DOCTYPE svg PUBLIC "-//W3C//DTD SVG 1.1//EN" "http://www.w3.org/Graphics/SVG/1.1/DTD/svg11.dtd">
<svg version="1.1" id="Layer_1" xmlns="http://www.w3.org/2000/svg" xmlns:xlink="http://www.w3.org/1999/xlink" x="0px" y="0px"
	 width="106px" height="70px" viewBox="0 0 106 70" enable-background="new 0 0 106 70" xml:space="preserve">
<g>
	<path fill="#FFFFFF" d="M65.937,29.388c-0.061-0.107-0.023-0.246-0.035-0.368c0,0-22.349,14.898-36.393,12.054
		c1.002,12.368,11.367,22.098,24.018,22.098c12.686,0,23.074-9.784,24.025-22.202C72.882,39.523,69.868,36.289,65.937,29.388z"/>
	<path fill="#FFFFFF" d="M84.328,33.833C82.07,13.163,72.298,10.855,69.59,10.613c-6.36-4.384-14.058-5.047-18.126-5.047
		c-1.806,0-2.94,0.129-3.017,0.138C30.623,8.135,25.19,23.785,23.548,33.837c-0.357-0.014-0.713-0.021-1.067-0.021
		c-5.36,0-17.874,1.834-18.307,18.823C3.995,59.665,8.19,67.39,17.826,67.745l0.366,0.017c0.307,0.015,0.632,0.03,0.961,0.03
		c0.667,0,2.694,0,3.827-1.657c1.234-1.806,0.949-4.758-0.915-9.539c-0.03-0.084-3.015-8.453-0.613-13.472
		c0.364-0.761,0.832-1.395,1.411-1.908c-0.004,0.333,0,0.521,0,0.541l0.005,0.103C24.25,57.64,37.776,70,53.659,70
		c15.789,0,28.904-11.948,30.702-27.264c2.754,4.882-0.387,13.75-0.413,13.825c-1.876,4.815-2.162,7.768-0.928,9.573
		c1.133,1.657,3.16,1.657,3.826,1.657c0.328,0,0.653-0.016,0.961-0.03l0.366-0.017c9.633-0.355,13.83-8.08,13.652-15.106
		C101.411,36.453,90.035,34.025,84.328,33.833z M24,37.178c-2.404,0.825-4.171,2.39-5.253,4.651
		c-2.938,6.141,0.357,15.397,0.512,15.822c1.983,5.091,1.455,6.484,1.246,6.79c-0.103,0.15-0.354,0.351-1.35,0.351
		c-0.278,0-0.554-0.014-0.814-0.026l-0.402-0.019c-8.73-0.322-10.874-7.715-10.763-12.032c0.335-13.141,8.51-15.898,15.308-15.898
		c0.731,0,1.474,0.033,2.209,0.1l0.055,0.006L24,37.178z M81.571,39.297C81.483,54.572,68.962,67,53.659,67
		c-14.324,0-26.523-11.129-27.798-25.347c-0.001-0.234-0.002-1.323,0.121-2.943l0.126-1.665l0.009,0.002l0.195-1.42
		c1.25-9.087,5.84-24.672,22.508-26.946c0.035-0.004,11.18-1.261,19.381,4.623l0.421,0.281h0.482
		c0.425,0,10.428,0.249,12.369,21.874l0.111,1.242L81.571,39.297z M88.063,64.747l-0.403,0.019c-0.26,0.013-0.535,0.026-0.813,0.026
		c-0.995,0-1.246-0.2-1.35-0.351c-0.209-0.306-0.737-1.699,1.259-6.823c0.217-0.599,5.223-14.714-2.912-19.599l-1.951-1.171
		l1.108-0.024c0.171-0.004,0.345-0.006,0.522-0.006c6.796,0,14.967,2.758,15.304,15.896C98.937,57.032,96.792,64.425,88.063,64.747z
		"/>
</g>
</svg>
