<?xml version="1.0" encoding="utf-8"?>
<!-- Generator: Adobe Illustrator 16.0.0, SVG Export Plug-In . SVG Version: 6.00 Build 0)  -->
<!DOCTYPE svg PUBLIC "-//W3C//DTD SVG 1.1//EN" "http://www.w3.org/Graphics/SVG/1.1/DTD/svg11.dtd">
<svg version="1.1" id="Layer_1" xmlns="http://www.w3.org/2000/svg" xmlns:xlink="http://www.w3.org/1999/xlink" x="0px" y="0px"
	 width="283.46px" height="100px" viewBox="0 0 283.46 100" enable-background="new 0 0 283.46 100" xml:space="preserve">
<path fill="#3550A3" d="M196.543,67.887c-1.885,2.359-4.767,3.541-8.637,3.541c-2.088,0-3.893-0.754-5.418-2.265
	c-1.525-1.508-2.29-3.388-2.29-5.636c0-2.687,1.184-4.962,3.532-6.821c2.35-1.859,5.349-2.79,9.001-2.79
	c0.988,0,2.113,0.22,3.362,0.644c0-4.286-1.908-6.433-5.737-6.433c-2.942,0-5.207,0.786-6.786,2.376l-1.985-3.939
	c0.895-0.728,2.128-1.346,3.701-1.867c1.579-0.525,3.086-0.777,4.521-0.777c3.846,0,6.644,0.871,8.384,2.62
	c1.741,1.749,2.612,4.53,2.612,8.35v9.506c0,2.323,0.693,3.881,2.077,4.649v2.359c-1.917,0-3.346-0.282-4.293-0.82
	C197.635,70.041,196.958,69.139,196.543,67.887L196.543,67.887z M196.094,57.907c-1.486-0.33-2.525-0.499-3.117-0.499
	c-2.375,0-4.321,0.615-5.813,1.833c-1.505,1.225-2.258,2.67-2.258,4.336c0,2.755,1.623,4.131,4.876,4.131
	c2.376,0,4.48-1.132,6.313-3.388V57.907L196.094,57.907z"/>
<path fill="#4C98D3" d="M274.553,67.79c-1.885,2.358-4.767,3.541-8.638,3.541c-2.088,0-3.892-0.754-5.417-2.264
	c-1.525-1.508-2.292-3.388-2.292-5.636c0-2.688,1.184-4.962,3.534-6.821c2.35-1.859,5.35-2.789,9-2.789
	c0.989,0,2.114,0.22,3.365,0.642c0-4.284-1.91-6.43-5.74-6.43c-2.939,0-5.205,0.785-6.785,2.374l-1.987-3.938
	c0.896-0.727,2.131-1.347,3.702-1.869c1.58-0.525,3.085-0.776,4.521-0.776c3.846,0,6.644,0.87,8.385,2.619
	c1.74,1.75,2.611,4.532,2.611,8.35V64.3c0,2.323,0.98,3.879,2.367,4.649v2.357c-1.918,0-3.635-0.281-4.582-0.819
	C275.645,69.944,274.966,69.04,274.553,67.79L274.553,67.79z M274.105,57.809c-1.487-0.33-2.527-0.499-3.119-0.499
	c-2.377,0-4.319,0.617-5.814,1.834c-1.506,1.224-2.258,2.671-2.258,4.335c0,2.756,1.623,4.133,4.877,4.133
	c2.375,0,4.479-1.133,6.314-3.389V57.809L274.105,57.809z"/>
<path fill="#4C98D3" d="M252.04,70.854v-1.953c-1.639,1.631-4.014,2.451-7.133,2.451c-3.321,0-6.01-1.192-8.071-3.566
	c-2.062-2.375-3.093-5.545-3.093-9.507c0-3.982,1.187-7.377,3.567-10.194c2.375-2.811,5.204-4.217,8.484-4.217
	c2.747,0,4.825,0.644,6.245,1.927V33.489h4.698v37.364H252.04L252.04,70.854z M252.04,50.502c-1.19-1.784-2.814-2.68-4.876-2.68
	c-2.527,0-4.572,0.946-6.127,2.823c-1.563,1.885-2.342,4.277-2.342,7.183c0,6.389,2.899,9.584,8.714,9.584
	c0.743,0,1.629-0.239,2.67-0.709c1.037-0.467,1.699-0.963,1.961-1.496V50.502L252.04,50.502z"/>
<path fill="#4C98D3" d="M213.238,71.608h-1.234L200.638,44.52h5.154l7.007,18.569l7.151-18.569h2.725h2.201h6.148v26.522h-4.707
	V48.486h-3.145L213.238,71.608L213.238,71.608z M228.896,34.497c0.803,0,1.491,0.284,2.062,0.855
	c0.57,0.569,0.854,1.249,0.854,2.043c0,0.804-0.284,1.493-0.854,2.063c-0.568,0.571-1.259,0.855-2.062,0.855
	c-0.794,0-1.478-0.282-2.046-0.855c-0.563-0.568-0.853-1.258-0.853-2.063c0-0.811,0.279-1.496,0.845-2.062
	C227.398,34.776,228.084,34.497,228.896,34.497L228.896,34.497z"/>
<path fill="#3550A3" d="M173.809,70.835V54.168c0-1.979-0.491-3.54-1.463-4.673c-0.973-1.141-2.34-1.717-4.106-1.717
	c-1.142,0-2.281,0.338-3.432,1.006c-1.148,0.668-2.028,1.446-2.638,2.34v19.71h-4.699v-37.39h4.699v13.792
	c0.626-0.971,1.64-1.786,3.035-2.441c1.393-0.654,2.832-0.973,4.319-0.973c2.806,0,5.01,0.923,6.601,2.772
	c1.594,1.853,2.391,4.37,2.391,7.573v16.667H173.809L173.809,70.835z"/>
<path fill="#3550A3" d="M150.072,70.835V55.41c0-2.822-0.425-4.799-1.276-5.933c-0.847-1.131-2.272-1.699-4.268-1.699
	c-1.073,0-2.198,0.329-3.373,0.972c-1.166,0.64-2.07,1.437-2.695,2.375v19.71h-4.699V44.313h3.211l1.488,3.423
	c1.554-2.613,4.091-3.914,7.607-3.914c5.806,0,8.713,3.534,8.713,10.598v16.415H150.072L150.072,70.835z"/>
<path fill="#3550A3" d="M125.616,70.835V48.278v-3.964h4.708v26.521H125.616L125.616,70.835z M128.193,34.291
	c0.803,0,1.492,0.282,2.063,0.853c0.571,0.57,0.854,1.251,0.854,2.046c0,0.802-0.282,1.491-0.854,2.063
	c-0.57,0.569-1.26,0.853-2.063,0.853c-0.794,0-1.477-0.282-2.044-0.853c-0.564-0.569-0.854-1.26-0.854-2.063
	c0-0.813,0.279-1.496,0.846-2.062C126.698,34.569,127.382,34.291,128.193,34.291L128.193,34.291z"/>
<path fill="#3550A3" d="M117.108,70.835V54.048c0-4.175-1.809-6.27-5.417-6.27c-1.141,0-2.207,0.355-3.195,1.057
	c-0.989,0.701-1.665,1.495-2.028,2.392v19.607h-4.709V51.987c0-1.301-0.49-2.325-1.471-3.077c-0.988-0.751-2.281-1.132-3.903-1.132
	c-0.938,0-1.944,0.363-3.009,1.089c-1.064,0.728-1.818,1.531-2.265,2.409v19.559h-4.699V44.313h3.068l1.554,3.076
	c1.817-2.384,4.092-3.567,6.813-3.567c3.795,0,6.457,1.174,7.97,3.542c0.533-1.005,1.513-1.853,2.95-2.528
	c1.437-0.674,2.916-1.014,4.429-1.014c2.747,0,4.868,0.812,6.364,2.435c1.504,1.631,2.256,3.912,2.256,6.845v17.732H117.108
	L117.108,70.835z"/>
<path fill="#4C98D3" d="M86.864,82.636l0.911-0.613c0.171,0.333,0.39,0.581,0.652,0.745c0.264,0.166,0.576,0.248,0.934,0.248
	c0.349,0,0.633-0.085,0.847-0.256c0.216-0.174,0.323-0.4,0.323-0.681c0-0.218-0.073-0.4-0.22-0.546
	c-0.147-0.145-0.402-0.28-0.759-0.401l-0.176-0.06c-1.518-0.519-2.274-1.175-2.274-1.959c0-0.553,0.205-1.004,0.613-1.353
	c0.41-0.349,0.938-0.524,1.59-0.524c0.541,0,1.004,0.108,1.389,0.323c0.385,0.215,0.662,0.521,0.831,0.916l-0.863,0.532
	c-0.128-0.286-0.316-0.507-0.563-0.66c-0.249-0.156-0.533-0.233-0.861-0.233c-0.313,0-0.569,0.088-0.766,0.262
	c-0.197,0.174-0.295,0.397-0.295,0.67c0,0.38,0.415,0.699,1.238,0.958c0.157,0.049,0.28,0.086,0.369,0.116
	c0.676,0.216,1.146,0.465,1.413,0.745c0.265,0.277,0.396,0.648,0.396,1.104c0,0.59-0.209,1.067-0.629,1.431
	c-0.419,0.364-0.968,0.548-1.643,0.548c-0.581,0-1.073-0.11-1.479-0.329C87.433,83.403,87.108,83.074,86.864,82.636L86.864,82.636z
	 M97.958,80.629c0-0.704-0.194-1.27-0.576-1.697c-0.384-0.429-0.883-0.645-1.5-0.645c-0.637,0-1.137,0.198-1.495,0.594
	c-0.359,0.394-0.539,0.943-0.539,1.652c0,0.751,0.182,1.333,0.541,1.738c0.361,0.408,0.873,0.613,1.536,0.613
	c0.633,0,1.133-0.197,1.493-0.593C97.775,81.894,97.958,81.34,97.958,80.629L97.958,80.629z M98.99,77.458v6.226h-1.033V82.55
	c-0.249,0.457-0.57,0.801-0.958,1.039c-0.387,0.238-0.822,0.358-1.301,0.358c-0.895,0-1.613-0.308-2.16-0.922
	c-0.545-0.614-0.818-1.428-0.818-2.438c0-1.022,0.264-1.837,0.796-2.445c0.529-0.604,1.239-0.907,2.128-0.907
	c0.52,0,0.972,0.117,1.354,0.351c0.382,0.233,0.695,0.58,0.93,1.042v-1.17H98.99L98.99,77.458z M102.118,77.458v3.063
	c0,0.893,0.131,1.518,0.396,1.873c0.266,0.356,0.712,0.534,1.344,0.534c0.628,0,1.076-0.176,1.336-0.528
	c0.263-0.351,0.39-0.979,0.39-1.879v-3.063h1.089v3.633c0,0.938-0.239,1.649-0.719,2.132c-0.482,0.481-1.188,0.724-2.123,0.724
	c-0.926,0-1.627-0.243-2.107-0.728c-0.481-0.485-0.722-1.196-0.722-2.129v-3.633H102.118L102.118,77.458z M102.873,76.478
	l1.389-2.367h1.368l-1.939,2.367H102.873L102.873,76.478z M113.498,80.601c0-0.693-0.193-1.253-0.579-1.676
	c-0.386-0.423-0.894-0.637-1.525-0.637c-0.63,0-1.121,0.193-1.475,0.579c-0.353,0.386-0.531,0.918-0.531,1.597
	c0,0.766,0.179,1.368,0.535,1.799c0.361,0.435,0.855,0.65,1.485,0.65c0.652,0,1.165-0.204,1.534-0.612
	C113.312,81.894,113.498,81.325,113.498,80.601L113.498,80.601z M114.53,73.141v10.542h-1.033v-1.129
	c-0.247,0.448-0.562,0.792-0.952,1.034c-0.39,0.24-0.827,0.359-1.307,0.359c-0.894,0-1.614-0.308-2.16-0.922
	c-0.544-0.614-0.819-1.428-0.819-2.438c0-1.017,0.266-1.833,0.803-2.441c0.534-0.605,1.247-0.911,2.136-0.911
	c0.515,0,0.965,0.117,1.347,0.351c0.379,0.233,0.687,0.58,0.924,1.042v-5.487H114.53L114.53,73.141z M121.115,79.868
	c-0.038-0.549-0.219-0.973-0.548-1.27c-0.328-0.298-0.777-0.447-1.349-0.447c-0.518,0-0.949,0.156-1.293,0.468
	c-0.346,0.312-0.545,0.726-0.598,1.249H121.115L121.115,79.868z M122.257,80.731h-4.93v0.095c0,0.666,0.19,1.204,0.57,1.615
	c0.381,0.41,0.877,0.616,1.49,0.616c0.417,0,0.795-0.114,1.129-0.338c0.336-0.225,0.634-0.563,0.891-1.016l0.809,0.543
	c-0.312,0.564-0.711,0.986-1.196,1.271c-0.485,0.286-1.047,0.431-1.689,0.431c-0.946,0-1.714-0.314-2.298-0.938
	c-0.586-0.625-0.877-1.448-0.877-2.463c0-0.972,0.289-1.772,0.871-2.395c0.579-0.62,1.326-0.93,2.237-0.93
	c0.92,0,1.649,0.294,2.188,0.885c0.537,0.589,0.806,1.394,0.806,2.415V80.731L122.257,80.731z M123.599,85.663l1.293-3.708
	l1.155,0.402l-1.667,3.612L123.599,85.663L123.599,85.663z M136.123,80.679c0-0.703-0.194-1.269-0.577-1.697
	c-0.383-0.428-0.882-0.643-1.499-0.643c-0.639,0-1.138,0.198-1.495,0.592c-0.36,0.395-0.539,0.945-0.539,1.653
	c0,0.752,0.182,1.331,0.541,1.738c0.36,0.409,0.873,0.614,1.534,0.614c0.635,0,1.133-0.198,1.493-0.596
	C135.941,81.945,136.123,81.389,136.123,80.679L136.123,80.679z M137.156,77.508v6.224h-1.033v-1.13
	c-0.249,0.455-0.571,0.801-0.957,1.037c-0.388,0.24-0.822,0.358-1.303,0.358c-0.894,0-1.613-0.307-2.159-0.921
	c-0.544-0.614-0.819-1.427-0.819-2.438c0-1.023,0.266-1.839,0.796-2.445c0.53-0.605,1.24-0.907,2.13-0.907
	c0.519,0,0.97,0.117,1.355,0.35c0.381,0.233,0.693,0.581,0.928,1.044v-1.17H137.156L137.156,77.508z M139.338,83.732V73.19h1.087
	v10.542H139.338L139.338,83.732z M142.46,74.509c0-0.213,0.076-0.397,0.227-0.55c0.153-0.15,0.338-0.226,0.555-0.226
	c0.215,0,0.395,0.077,0.549,0.232c0.15,0.153,0.227,0.338,0.227,0.557c0,0.213-0.074,0.394-0.224,0.543
	c-0.149,0.151-0.333,0.225-0.552,0.225c-0.217,0-0.402-0.074-0.555-0.225C142.537,74.918,142.46,74.73,142.46,74.509L142.46,74.509z
	 M142.71,83.732v-6.224h1.074v6.224H142.71L142.71,83.732z M154.695,83.732v-3.666c0-0.63-0.129-1.098-0.382-1.403
	s-0.644-0.459-1.17-0.459c-0.285,0-0.55,0.061-0.793,0.174c-0.24,0.116-0.45,0.277-0.616,0.492
	c-0.123,0.161-0.209,0.353-0.265,0.571c-0.054,0.218-0.081,0.578-0.081,1.074v3.216h-1.025v-3.666c0-0.63-0.13-1.098-0.382-1.403
	c-0.253-0.305-0.643-0.459-1.169-0.459c-0.287,0-0.554,0.061-0.8,0.174c-0.247,0.116-0.457,0.277-0.62,0.492
	c-0.121,0.156-0.205,0.343-0.258,0.551c-0.053,0.208-0.078,0.574-0.078,1.094v3.216h-1.025v-6.224h1.039v0.961
	c0.257-0.4,0.567-0.699,0.925-0.893c0.357-0.195,0.771-0.292,1.237-0.292c0.504,0,0.934,0.107,1.286,0.323
	c0.352,0.215,0.622,0.529,0.803,0.942c0.267-0.425,0.583-0.744,0.949-0.952c0.365-0.208,0.789-0.313,1.268-0.313
	c0.694,0,1.236,0.195,1.626,0.585c0.39,0.39,0.585,0.933,0.585,1.625v4.237H154.695L154.695,83.732z M162.259,79.917
	c-0.037-0.55-0.22-0.971-0.549-1.27c-0.327-0.295-0.776-0.445-1.348-0.445c-0.518,0-0.949,0.156-1.292,0.466
	c-0.347,0.312-0.547,0.727-0.6,1.249H162.259L162.259,79.917z M163.401,80.78h-4.931v0.097c0,0.665,0.189,1.205,0.569,1.613
	c0.382,0.41,0.877,0.615,1.491,0.615c0.415,0,0.795-0.112,1.128-0.337c0.336-0.226,0.634-0.564,0.892-1.015l0.808,0.542
	c-0.31,0.565-0.711,0.988-1.194,1.273c-0.485,0.284-1.049,0.429-1.688,0.429c-0.947,0-1.714-0.312-2.298-0.937
	c-0.585-0.627-0.879-1.447-0.879-2.465c0-0.972,0.29-1.771,0.871-2.393c0.58-0.62,1.326-0.93,2.239-0.93
	c0.918,0,1.648,0.293,2.186,0.884c0.537,0.587,0.807,1.395,0.807,2.414V80.78L163.401,80.78z M165.007,83.732v-6.224h1.04v0.961
	c0.269-0.4,0.59-0.697,0.966-0.893c0.377-0.195,0.813-0.292,1.308-0.292c0.733,0,1.31,0.195,1.72,0.585
	c0.413,0.39,0.619,0.933,0.619,1.625v4.237h-1.087v-3.666c0-0.63-0.135-1.098-0.397-1.403c-0.269-0.307-0.676-0.459-1.229-0.459
	c-0.319,0-0.607,0.059-0.869,0.174c-0.259,0.115-0.479,0.278-0.649,0.492c-0.13,0.162-0.224,0.349-0.281,0.558
	c-0.055,0.208-0.084,0.573-0.084,1.087v3.216H165.007L165.007,83.732z M172.931,78.387h-1.142v-0.878h1.142v-2.51h1.09v2.51h1.141
	v0.878h-1.141v5.345h-1.09V78.387L172.931,78.387z M181.135,80.679c0-0.703-0.192-1.269-0.575-1.697
	c-0.384-0.428-0.883-0.643-1.5-0.643c-0.639,0-1.138,0.198-1.496,0.592c-0.357,0.395-0.537,0.945-0.537,1.653
	c0,0.752,0.183,1.331,0.541,1.738c0.36,0.409,0.873,0.614,1.534,0.614c0.635,0,1.133-0.198,1.493-0.596
	C180.953,81.945,181.135,81.389,181.135,80.679L181.135,80.679z M182.17,77.508v6.224h-1.035v-1.13
	c-0.247,0.455-0.568,0.801-0.956,1.037c-0.388,0.24-0.821,0.358-1.302,0.358c-0.894,0-1.613-0.307-2.159-0.921
	c-0.545-0.614-0.819-1.427-0.819-2.438c0-1.023,0.267-1.839,0.797-2.445c0.529-0.605,1.239-0.907,2.128-0.907
	c0.52,0,0.972,0.117,1.355,0.35c0.382,0.233,0.694,0.581,0.929,1.044v-1.17H182.17L182.17,77.508z M189.07,82.255v1.237
	c-0.28,0.17-0.596,0.295-0.949,0.379c-0.352,0.083-0.731,0.125-1.138,0.125c-0.962,0-1.737-0.304-2.324-0.915
	c-0.587-0.61-0.88-1.413-0.88-2.403c0-0.998,0.306-1.812,0.913-2.445c0.606-0.632,1.385-0.949,2.331-0.949
	c0.346,0,0.683,0.038,1.011,0.11c0.328,0.07,0.638,0.177,0.927,0.317v1.145c-0.272-0.177-0.553-0.313-0.842-0.406
	c-0.291-0.092-0.584-0.14-0.886-0.14c-0.698,0-1.258,0.22-1.681,0.658c-0.419,0.435-0.63,1.019-0.63,1.742
	c0,0.642,0.21,1.177,0.635,1.607c0.425,0.43,0.957,0.646,1.596,0.646c0.322,0,0.637-0.058,0.944-0.171
	C188.406,82.68,188.73,82.501,189.07,82.255L189.07,82.255z M185.087,86.63v-0.681c0.357,0.082,0.683,0.146,0.974,0.194
	c0.29,0.046,0.521,0.072,0.7,0.072c0.272,0,0.477-0.048,0.615-0.14c0.137-0.094,0.207-0.233,0.207-0.418
	c0-0.2-0.075-0.35-0.223-0.443c-0.146-0.095-0.377-0.143-0.691-0.143c-0.089,0-0.159,0.001-0.211,0.003
	c-0.048,0.002-0.099,0.005-0.146,0.005v-1.347h0.516v0.694h0.197c0.495,0,0.872,0.105,1.129,0.313s0.388,0.514,0.388,0.917
	c0,0.414-0.145,0.729-0.434,0.95c-0.29,0.22-0.712,0.33-1.265,0.33c-0.228,0-0.491-0.028-0.788-0.08
	C185.761,86.805,185.435,86.73,185.087,86.63L185.087,86.63z M195.478,80.625c0-0.704-0.194-1.27-0.576-1.697
	c-0.384-0.43-0.882-0.645-1.499-0.645c-0.639,0-1.138,0.198-1.496,0.594c-0.359,0.394-0.539,0.945-0.539,1.652
	c0,0.751,0.184,1.333,0.543,1.739c0.358,0.407,0.872,0.611,1.534,0.611c0.632,0,1.134-0.197,1.494-0.593
	C195.296,81.889,195.478,81.335,195.478,80.625L195.478,80.625z M196.512,77.453v6.226h-1.034v-1.131
	c-0.249,0.454-0.569,0.799-0.958,1.037c-0.387,0.238-0.82,0.358-1.3,0.358c-0.895,0-1.614-0.307-2.159-0.922
	c-0.546-0.612-0.821-1.428-0.821-2.437c0-1.025,0.266-1.839,0.797-2.444c0.529-0.605,1.24-0.909,2.13-0.909
	c0.52,0,0.972,0.118,1.354,0.351c0.383,0.233,0.695,0.58,0.93,1.042v-1.17H196.512L196.512,77.453z M195.593,74.583
	c-0.09,0.462-0.25,0.815-0.48,1.06c-0.227,0.241-0.514,0.364-0.858,0.364c-0.061,0-0.128-0.008-0.204-0.021
	s-0.158-0.033-0.245-0.056l-0.653-0.177c-0.059-0.015-0.117-0.031-0.175-0.043c-0.055-0.011-0.107-0.016-0.157-0.016
	c-0.142,0-0.261,0.038-0.365,0.118c-0.103,0.08-0.186,0.196-0.249,0.343h-0.598c0.081-0.448,0.236-0.793,0.463-1.032
	c0.227-0.241,0.511-0.362,0.852-0.362c0.075,0,0.148,0.005,0.215,0.015c0.07,0.008,0.129,0.024,0.184,0.041l0.67,0.197
	c0.101,0.029,0.181,0.045,0.229,0.054c0.051,0.008,0.096,0.013,0.138,0.013c0.148,0,0.277-0.042,0.384-0.123
	c0.106-0.081,0.192-0.207,0.255-0.374H195.593L195.593,74.583z M199.266,80.583c0,0.657,0.218,1.214,0.657,1.669
	c0.44,0.456,0.973,0.683,1.6,0.683c0.623,0,1.151-0.227,1.587-0.683c0.434-0.455,0.651-1.012,0.651-1.669
	c0-0.658-0.218-1.215-0.651-1.67c-0.436-0.455-0.964-0.683-1.587-0.683c-0.63,0-1.163,0.228-1.603,0.683
	C199.482,79.37,199.266,79.925,199.266,80.583L199.266,80.583z M198.137,80.583c0-0.457,0.081-0.891,0.25-1.296
	c0.168-0.405,0.413-0.767,0.736-1.085c0.318-0.316,0.687-0.559,1.093-0.723c0.408-0.166,0.845-0.25,1.307-0.25
	c0.453,0,0.882,0.084,1.29,0.251c0.405,0.169,0.772,0.415,1.104,0.737c0.321,0.312,0.567,0.669,0.735,1.076
	c0.168,0.406,0.25,0.836,0.25,1.29c0,0.453-0.082,0.88-0.25,1.282s-0.415,0.757-0.735,1.07c-0.333,0.325-0.701,0.576-1.112,0.75
	c-0.41,0.172-0.838,0.258-1.282,0.258c-0.457,0-0.893-0.086-1.302-0.256c-0.411-0.169-0.779-0.412-1.098-0.73
	c-0.324-0.325-0.568-0.689-0.736-1.088C198.218,81.471,198.137,81.041,198.137,80.583L198.137,80.583z M215.287,79.84
	c-0.038-0.549-0.221-0.973-0.549-1.27c-0.327-0.295-0.777-0.445-1.349-0.445c-0.519,0-0.949,0.157-1.294,0.466
	c-0.344,0.311-0.545,0.727-0.598,1.249H215.287L215.287,79.84z M216.429,80.705h-4.931V80.8c0,0.665,0.19,1.205,0.571,1.613
	c0.38,0.411,0.876,0.615,1.49,0.615c0.415,0,0.794-0.113,1.128-0.336c0.337-0.227,0.634-0.564,0.892-1.018l0.808,0.543
	c-0.311,0.564-0.711,0.988-1.195,1.273c-0.485,0.284-1.047,0.429-1.688,0.429c-0.947,0-1.714-0.312-2.299-0.937
	c-0.586-0.627-0.877-1.447-0.877-2.465c0-0.973,0.29-1.772,0.87-2.393c0.579-0.62,1.326-0.931,2.238-0.931
	c0.92,0,1.648,0.295,2.188,0.884c0.535,0.589,0.804,1.396,0.804,2.415V80.705L216.429,80.705z M223.74,80.618
	c0,0.724,0.188,1.292,0.559,1.698c0.371,0.408,0.883,0.613,1.53,0.613c0.634,0,1.133-0.216,1.492-0.65
	c0.358-0.433,0.541-1.034,0.541-1.8c0-0.681-0.177-1.21-0.532-1.597c-0.353-0.385-0.843-0.579-1.466-0.579
	c-0.637,0-1.15,0.213-1.541,0.637C223.937,79.363,223.74,79.922,223.74,80.618L223.74,80.618z M222.727,73.156h1.055v5.488
	c0.241-0.462,0.552-0.808,0.931-1.042c0.382-0.234,0.829-0.351,1.339-0.351c0.895,0,1.609,0.303,2.142,0.909
	c0.533,0.608,0.799,1.424,0.799,2.443c0,1.009-0.273,1.825-0.816,2.438c-0.544,0.613-1.265,0.921-2.163,0.921
	c-0.479,0-0.919-0.122-1.313-0.365c-0.393-0.242-0.713-0.584-0.959-1.029v1.129h-1.014V73.156L222.727,73.156z M235.564,79.858
	c-0.036-0.552-0.218-0.974-0.547-1.272c-0.327-0.295-0.777-0.446-1.349-0.446c-0.518,0-0.95,0.157-1.294,0.468
	c-0.344,0.312-0.545,0.727-0.598,1.25H235.564L235.564,79.858z M236.708,80.721h-4.931v0.094c0,0.667,0.191,1.206,0.569,1.614
	c0.382,0.411,0.878,0.616,1.492,0.616c0.415,0,0.795-0.111,1.127-0.336c0.336-0.225,0.634-0.564,0.893-1.017l0.808,0.543
	c-0.311,0.564-0.711,0.988-1.195,1.274c-0.485,0.283-1.048,0.428-1.689,0.428c-0.946,0-1.712-0.313-2.297-0.937
	c-0.585-0.625-0.878-1.447-0.878-2.463c0-0.973,0.29-1.774,0.872-2.396c0.577-0.618,1.324-0.93,2.236-0.93
	c0.92,0,1.649,0.295,2.187,0.886c0.536,0.587,0.807,1.395,0.807,2.414V80.721L236.708,80.721z M246.979,83.671v-3.666
	c0-0.628-0.129-1.098-0.38-1.403c-0.254-0.306-0.644-0.459-1.171-0.459c-0.285,0-0.55,0.061-0.792,0.174
	c-0.243,0.115-0.449,0.277-0.617,0.492c-0.124,0.161-0.211,0.353-0.265,0.571s-0.082,0.577-0.082,1.076v3.214h-1.025v-3.666
	c0-0.628-0.128-1.098-0.381-1.403c-0.254-0.306-0.644-0.459-1.17-0.459c-0.286,0-0.553,0.061-0.798,0.174
	c-0.249,0.115-0.459,0.279-0.623,0.492c-0.12,0.155-0.204,0.341-0.255,0.552c-0.053,0.208-0.08,0.574-0.08,1.096v3.214h-1.026
	v-6.224h1.041v0.959c0.258-0.398,0.566-0.695,0.923-0.889c0.361-0.197,0.773-0.294,1.237-0.294c0.506,0,0.935,0.106,1.288,0.323
	c0.353,0.215,0.622,0.528,0.803,0.942c0.266-0.425,0.583-0.743,0.947-0.952c0.365-0.21,0.788-0.313,1.27-0.313
	c0.694,0,1.235,0.196,1.626,0.584c0.389,0.39,0.585,0.935,0.585,1.626v4.237H246.979L246.979,83.671z M249.171,80.032h3.176v1.075
	h-3.176V80.032L249.171,80.032z M258.073,79.893c-0.038-0.551-0.22-0.973-0.549-1.271c-0.327-0.296-0.776-0.445-1.349-0.445
	c-0.517,0-0.949,0.156-1.292,0.466c-0.347,0.312-0.546,0.728-0.6,1.25H258.073L258.073,79.893z M259.215,80.756h-4.931v0.095
	c0,0.667,0.19,1.205,0.57,1.613c0.382,0.41,0.879,0.615,1.489,0.615c0.418,0,0.797-0.111,1.129-0.335
	c0.337-0.225,0.635-0.563,0.892-1.018l0.809,0.543c-0.311,0.564-0.712,0.988-1.195,1.273c-0.485,0.286-1.048,0.429-1.688,0.429
	c-0.946,0-1.713-0.313-2.297-0.937c-0.586-0.627-0.878-1.447-0.878-2.464c0-0.972,0.289-1.772,0.871-2.393
	c0.577-0.621,1.324-0.932,2.235-0.932c0.921,0,1.65,0.295,2.188,0.886c0.536,0.587,0.806,1.395,0.806,2.414V80.756L259.215,80.756z
	 M260.162,82.659l0.91-0.611c0.172,0.331,0.39,0.581,0.652,0.745c0.264,0.164,0.575,0.248,0.934,0.248
	c0.348,0,0.632-0.085,0.847-0.258c0.216-0.174,0.322-0.398,0.322-0.68c0-0.218-0.073-0.401-0.22-0.545
	c-0.147-0.145-0.402-0.281-0.76-0.402l-0.176-0.059c-1.516-0.518-2.272-1.176-2.272-1.961c0-0.551,0.205-1.002,0.611-1.351
	c0.409-0.35,0.939-0.525,1.591-0.525c0.541,0,1.005,0.106,1.389,0.323c0.385,0.215,0.661,0.52,0.832,0.914l-0.864,0.532
	c-0.128-0.286-0.316-0.506-0.562-0.66c-0.249-0.154-0.535-0.231-0.861-0.231c-0.313,0-0.569,0.088-0.766,0.262
	c-0.197,0.174-0.295,0.397-0.295,0.668c0,0.38,0.414,0.701,1.236,0.958c0.155,0.048,0.28,0.088,0.369,0.116
	c0.677,0.217,1.146,0.467,1.411,0.745c0.266,0.279,0.397,0.648,0.397,1.105c0,0.589-0.208,1.067-0.629,1.429
	c-0.419,0.366-0.969,0.549-1.644,0.549c-0.58,0-1.073-0.11-1.479-0.327C260.73,83.427,260.405,83.097,260.162,82.659L260.162,82.659
	z M266.656,78.36h-1.143v-0.878h1.143v-2.51h1.088v2.51h1.143v0.878h-1.143v5.346h-1.088V78.36L266.656,78.36z M274.859,80.654
	c0-0.704-0.194-1.271-0.574-1.698c-0.385-0.428-0.883-0.643-1.502-0.643c-0.638,0-1.136,0.199-1.493,0.592
	c-0.358,0.396-0.54,0.945-0.54,1.654c0,0.752,0.183,1.332,0.542,1.738c0.36,0.408,0.873,0.613,1.533,0.613
	c0.635,0,1.135-0.198,1.493-0.594C274.679,81.918,274.859,81.364,274.859,80.654L274.859,80.654z M275.893,77.482v6.224h-1.033
	v-1.131c-0.248,0.455-0.569,0.801-0.955,1.039c-0.389,0.237-0.823,0.356-1.304,0.356c-0.894,0-1.612-0.307-2.157-0.922
	c-0.546-0.612-0.821-1.428-0.821-2.437c0-1.023,0.266-1.837,0.797-2.444c0.529-0.606,1.238-0.908,2.128-0.908
	c0.521,0,0.974,0.117,1.357,0.35c0.383,0.233,0.692,0.583,0.929,1.044v-1.17H275.893L275.893,77.482z M278.037,83.706v-6.224h0.944
	v1.296c0.284-0.542,0.589-0.927,0.91-1.16c0.321-0.23,0.715-0.346,1.177-0.346c0.128,0,0.251,0.01,0.369,0.031
	c0.115,0.019,0.235,0.05,0.353,0.09l-0.353,0.961c-0.123-0.043-0.24-0.074-0.349-0.094c-0.107-0.018-0.214-0.029-0.312-0.029
	c-0.563,0-0.985,0.203-1.264,0.607c-0.283,0.405-0.424,1.019-0.424,1.834v3.032H278.037L278.037,83.706z"/>
<g>
	<path fill="#4C98D3" d="M78.682,49.686c0,0.003,0,0.006,0,0.008c0,0.039,0.003,0.076,0.003,0.115c0-0.003,0-0.006,0-0.009
		C78.685,49.762,78.683,49.724,78.682,49.686z"/>
	<path fill="#4C98D3" d="M4.359,49.686c-0.001,0.038-0.003,0.076-0.003,0.114c0,0.003,0,0.006,0,0.009
		c0-0.039,0.003-0.076,0.003-0.115C4.359,49.692,4.359,49.689,4.359,49.686z"/>
	<path fill="#4C98D3" d="M41.521,12.683c4.772,0,9.329,0.909,13.521,2.546c0.09-0.042,0.179-0.085,0.273-0.123
		c-4.268-1.706-8.919-2.654-13.795-2.654c-20.523,0-37.165,16.622-37.165,37.118c0,0.04,0.002,0.077,0.003,0.115
		C4.42,29.243,21.035,12.683,41.521,12.683z"/>
	<path fill="#4C98D3" d="M78.682,49.686c0.001-0.039,0.003-0.076,0.003-0.115c0-12.608-6.304-23.744-15.928-30.452
		c0.058,0.116,0.115,0.233,0.169,0.351C72.427,26.17,78.644,37.2,78.682,49.686z"/>
	<path fill="#4C98D3" d="M41.521,86.919C21,86.919,4.36,70.303,4.355,49.809c0,0.003,0,0.006,0,0.009
		c0,20.497,16.642,37.118,37.165,37.118c1.769,0,3.506-0.132,5.21-0.371c-0.044,0.001-0.084,0-0.126,0
		C44.941,86.792,43.246,86.919,41.521,86.919z"/>
	<path fill="#4C98D3" d="M51.534,85.544c0,0.006,0,0.011,0,0.017c6.342-1.769,12-5.171,16.487-9.731
		c-0.059,0.055-0.109,0.103-0.155,0.146C63.403,80.456,57.801,83.796,51.534,85.544z"/>
	<path fill="#4C98D3" d="M69.795,73.892c5.539-6.482,8.89-14.885,8.89-24.073c0-0.003,0-0.006,0-0.009
		c-0.002,9.19-3.357,17.594-8.898,24.076C69.79,73.887,69.792,73.89,69.795,73.892z"/>
	<path fill="#4C98D3" d="M62.938,19.495c0.288,0.622,0.525,1.278,0.69,1.957c0.926,3.803,0.683,7.895-3.202,8.981
		c-3.347,0.938-7.033-1.79-8.229-6.092c-1.075-3.867-0.153-7.707,2.824-9.103c-4.187-1.632-8.736-2.538-13.5-2.538
		c-20.482,0-37.095,16.555-37.162,36.994c0.067,20.439,16.679,36.994,37.162,36.994c1.525,0,3.026-0.103,4.502-0.281
		c-0.298-0.704-1.917-4.717-2.17-9.56c-0.279-5.339,1.794-11.106,3.431-15.139c1.637-4.031,3.523-4.288,4.465-12.69
		c0.941-8.396-1.952-12.803-6.698-15.083c-4.437-2.127-7.045-2.958-12.197-4.241c-1.006-0.25-2-1.637,0.869-2.125
		c4.372-0.749,11.515,0.55,18.304,2.417c6.791,1.866,8.775,5.43,9.986,8.79c1.209,3.36-0.596,10.875-1.387,13.562
		c-2.578,8.71,0.593,15.316,9.04,21.456c5.591-6.472,8.986-14.889,9.017-24.099C78.641,37.217,72.429,26.195,62.938,19.495z"/>
	<path fill="#4C98D3" d="M61.637,71.975c-7.56-3.216-10.205,7.372-10.107,13.339c6.132-1.71,11.625-4.946,16.039-9.28
		C66.983,75.505,64.218,73.072,61.637,71.975z"/>
	<path fill="#4C98D3" d="M69.04,74.856c0.473-0.477,0.775-0.951,0.775-0.951c-0.007-0.005-0.013-0.009-0.02-0.014
		c-0.569,0.667-1.159,1.315-1.774,1.939C68.32,75.551,68.752,75.143,69.04,74.856z"/>
</g>
</svg>
