<?xml version="1.0" encoding="utf-8"?>
<!-- Generator: Adobe Illustrator 16.0.0, SVG Export Plug-In . SVG Version: 6.00 Build 0)  -->
<!DOCTYPE svg PUBLIC "-//W3C//DTD SVG 1.1//EN" "http://www.w3.org/Graphics/SVG/1.1/DTD/svg11.dtd">
<svg version="1.1" id="Layer_1" xmlns="http://www.w3.org/2000/svg" xmlns:xlink="http://www.w3.org/1999/xlink" x="0px" y="0px"
	 width="58px" height="58px" viewBox="0 0 58 58" enable-background="new 0 0 58 58" xml:space="preserve">
<path fill="#F7901E" d="M20.221,0h17.557c5.824,0,8.734,0,11.869,0.991c3.422,1.245,6.117,3.94,7.361,7.362
	C58,11.487,58,14.398,58,20.221v17.559c0,5.822,0,8.732-0.992,11.867c-1.244,3.422-3.939,6.117-7.361,7.363
	C46.512,58,43.602,58,37.777,58H20.221c-5.822,0-8.734,0-11.868-0.99c-3.421-1.246-6.116-3.941-7.362-7.363
	C0,46.512,0,43.602,0,37.779V20.221c0-5.822,0-8.733,0.99-11.867c1.246-3.422,3.941-6.117,7.362-7.362C11.486,0,14.398,0,20.221,0
	L20.221,0"/>
<g>
	<g>
		<path fill-rule="evenodd" clip-rule="evenodd" fill="#FFFFFF" d="M33.721,15.359c-1.231-1.233-3.227-1.233-4.458,0l-1.114,1.115
			l-15.603,15.62l0.004,0.004l-0.492,0.492c0,0-1.567,1.58-5.107,13.008c-0.025,0.08-0.05,0.158-0.075,0.24
			c-0.063,0.205-0.127,0.412-0.191,0.623c-0.057,0.186-0.116,0.377-0.172,0.568c-0.05,0.162-0.098,0.32-0.147,0.486
			c-0.113,0.373-0.226,0.754-0.342,1.146c-0.254,0.863-0.876,2.811-0.173,3.516c0.676,0.678,2.643,0.08,3.504-0.174
			c0.39-0.115,0.768-0.23,1.139-0.342c0.172-0.051,0.338-0.102,0.506-0.152c0.18-0.057,0.359-0.109,0.535-0.164
			c0.222-0.068,0.441-0.135,0.656-0.203c0.064-0.02,0.127-0.039,0.19-0.059c10.873-3.385,12.826-4.975,12.988-5.121c0,0,0,0,0.001,0
			c0.007-0.008,0.012-0.012,0.012-0.012l0.503-0.504l0.034,0.033l15.603-15.618l1.114-1.116c1.231-1.231,1.231-3.23,0-4.462
			L33.721,15.359z M23.587,43.934c-0.014,0.01-0.033,0.021-0.052,0.035c-0.011,0.006-0.024,0.014-0.037,0.021
			c-0.013,0.01-0.027,0.018-0.042,0.027c-0.014,0.008-0.027,0.016-0.043,0.025c-0.519,0.311-2.042,1.111-5.739,2.451
			c-0.432,0.156-0.902,0.322-1.396,0.492l-5.255-5.262c0.172-0.496,0.337-0.971,0.495-1.404c1.335-3.713,2.136-5.24,2.445-5.76
			c0.008-0.012,0.015-0.023,0.021-0.033c0.011-0.02,0.021-0.035,0.03-0.051c0.007-0.012,0.016-0.023,0.021-0.035
			c0.013-0.02,0.025-0.037,0.034-0.051l0.385-0.387l9.525,9.535L23.587,43.934z M51.552,15.359l-8.916-8.925
			c-1.23-1.232-3.227-1.232-4.458,0l-2.229,2.231c-1.23,1.232-1.23,3.23,0,4.463l8.916,8.925c1.23,1.232,3.227,1.232,4.457,0
			l2.229-2.231C52.782,18.589,52.782,16.591,51.552,15.359L51.552,15.359z M51.552,15.359"/>
	</g>
</g>
</svg>
