<?xml version="1.0" encoding="utf-8"?>
<!-- Generator: Adobe Illustrator 16.0.0, SVG Export Plug-In . SVG Version: 6.00 Build 0)  -->
<!DOCTYPE svg PUBLIC "-//W3C//DTD SVG 1.1//EN" "http://www.w3.org/Graphics/SVG/1.1/DTD/svg11.dtd">
<svg version="1.1" xmlns="http://www.w3.org/2000/svg" xmlns:xlink="http://www.w3.org/1999/xlink" x="0px" y="0px" width="58px"
	 height="58px" viewBox="0 0 58 58" enable-background="new 0 0 58 58" xml:space="preserve">
<g id="Layer_1" display="none">
	<path display="inline" fill="#F7901E" d="M20.221,0h17.557c5.824,0,8.734,0,11.869,0.991c3.422,1.245,6.117,3.94,7.361,7.362
		C58,11.487,58,14.398,58,20.221v17.559c0,5.822,0,8.732-0.992,11.867c-1.244,3.422-3.939,6.117-7.361,7.363
		C46.512,58,43.602,58,37.777,58H20.221c-5.822,0-8.734,0-11.868-0.99c-3.421-1.246-6.116-3.941-7.362-7.363
		C0,46.512,0,43.602,0,37.779V20.221c0-5.822,0-8.733,0.99-11.867c1.246-3.422,3.941-6.117,7.362-7.362C11.486,0,14.398,0,20.221,0
		L20.221,0"/>
	<g display="inline">
		<g>
			<path fill-rule="evenodd" clip-rule="evenodd" fill="#FFFFFF" d="M33.721,15.359c-1.231-1.233-3.227-1.233-4.458,0l-1.114,1.115
				l-15.603,15.62l0.004,0.004l-0.492,0.492c0,0-1.567,1.58-5.107,13.008c-0.025,0.08-0.05,0.158-0.075,0.24
				c-0.063,0.205-0.127,0.412-0.191,0.623c-0.057,0.186-0.116,0.377-0.172,0.568c-0.05,0.162-0.098,0.32-0.147,0.486
				c-0.113,0.373-0.226,0.754-0.342,1.146c-0.254,0.863-0.876,2.811-0.173,3.516c0.676,0.678,2.643,0.08,3.504-0.174
				c0.39-0.115,0.768-0.23,1.139-0.342c0.172-0.051,0.338-0.102,0.506-0.152c0.18-0.057,0.359-0.109,0.535-0.164
				c0.222-0.068,0.441-0.135,0.656-0.203c0.064-0.02,0.127-0.039,0.19-0.059c10.873-3.385,12.826-4.975,12.988-5.121
				c0,0,0,0,0.001,0c0.007-0.008,0.012-0.012,0.012-0.012l0.503-0.504l0.034,0.033l15.603-15.618l1.114-1.116
				c1.231-1.231,1.231-3.23,0-4.462L33.721,15.359z M23.587,43.934c-0.014,0.01-0.033,0.021-0.052,0.035
				c-0.011,0.006-0.024,0.014-0.037,0.021c-0.013,0.01-0.027,0.018-0.042,0.027c-0.014,0.008-0.027,0.016-0.043,0.025
				c-0.519,0.311-2.042,1.111-5.739,2.451c-0.432,0.156-0.902,0.322-1.396,0.492l-5.255-5.262c0.172-0.496,0.337-0.971,0.495-1.404
				c1.335-3.713,2.136-5.24,2.445-5.76c0.008-0.012,0.015-0.023,0.021-0.033c0.011-0.02,0.021-0.035,0.03-0.051
				c0.007-0.012,0.016-0.023,0.021-0.035c0.013-0.02,0.025-0.037,0.034-0.051l0.385-0.387l9.525,9.535L23.587,43.934z
				 M51.552,15.359l-8.916-8.925c-1.23-1.232-3.227-1.232-4.458,0l-2.229,2.231c-1.23,1.232-1.23,3.23,0,4.463l8.916,8.925
				c1.23,1.232,3.227,1.232,4.457,0l2.229-2.231C52.782,18.589,52.782,16.591,51.552,15.359L51.552,15.359z M51.552,15.359"/>
		</g>
	</g>
</g>
<g id="Layer_1_copy" display="none">
	<path display="inline" fill="#57AD6D" d="M20.221,0h17.557c5.824,0,8.734,0,11.869,0.991c3.422,1.245,6.117,3.94,7.361,7.362
		C58,11.487,58,14.398,58,20.221v17.559c0,5.822,0,8.732-0.992,11.867c-1.244,3.422-3.939,6.117-7.361,7.363
		C46.512,58,43.602,58,37.777,58H20.221c-5.822,0-8.734,0-11.868-0.99c-3.421-1.246-6.116-3.941-7.362-7.363
		C0,46.512,0,43.602,0,37.779V20.221c0-5.822,0-8.733,0.99-11.867c1.246-3.422,3.941-6.117,7.362-7.362C11.486,0,14.398,0,20.221,0
		L20.221,0"/>
	<g display="inline">
		<g>
			<path fill="#FFFFFF" d="M48.445,58h0.082v-8.034c0-7.616-5.855-13.89-13.305-14.557l0,0c3.162-2.03,5.26-5.57,5.26-9.605
				c0-6.306-5.113-11.419-11.418-11.419c-6.306,0-11.419,5.113-11.419,11.419c0,4.035,2.098,7.575,5.259,9.605
				C15.458,36.076,9.6,42.35,9.6,49.966V58h0.029 M35.223,35.409"/>
		</g>
	</g>
</g>
<g id="Layer_1_copy_2" display="none">
	<path display="inline" fill="#4C7092" d="M20.221,0h17.557c5.824,0,8.734,0,11.869,0.991c3.422,1.245,6.117,3.94,7.361,7.362
		C58,11.487,58,14.398,58,20.221v17.559c0,5.822,0,8.732-0.992,11.867c-1.244,3.422-3.939,6.117-7.361,7.363
		C46.512,58,43.602,58,37.777,58H20.221c-5.822,0-8.734,0-11.868-0.99c-3.421-1.246-6.116-3.941-7.362-7.363
		C0,46.512,0,43.602,0,37.779V20.221c0-5.822,0-8.733,0.99-11.867c1.246-3.422,3.941-6.117,7.362-7.362C11.486,0,14.398,0,20.221,0
		L20.221,0"/>
	<g display="inline">
		<g>
			<path fill="#FFFFFF" d="M52.961,16.65v14.506c0,0-3.104,0.611-3.744,0.693c-0.637,0.08-2.641,0.727-4.094-0.67
				c-2.238-2.146-10.195-10.059-10.195-10.059s-1.373-1.346-3.574-0.183c-2.023,1.066-5.02,2.628-6.271,3.236
				c-2.366,1.26-4.328-0.738-4.328-2.261c0-1.181,0.736-1.981,1.79-2.571c2.854-1.73,8.872-5.108,11.378-6.439
				c1.523-0.811,2.621-0.88,4.711,0.882c2.576,2.167,4.869,4.141,4.869,4.141s0.746,0.624,1.939,0.373
				C48.369,17.678,52.961,16.65,52.961,16.65L52.961,16.65z M21.292,41.23c0.386-0.99,0.257-2.098-0.481-2.857
				c-0.664-0.68-1.633-0.857-2.557-0.646c0.258-0.916,0.115-1.893-0.552-2.58c-0.666-0.678-1.634-0.861-2.558-0.646
				c0.257-0.916,0.114-1.893-0.554-2.578c-1.046-1.072-2.854-1.027-4.042,0.105c-1.182,1.135-1.939,3.189-0.885,4.398
				c1.054,1.205,2.264,0.473,3.187,0.262c-0.257,0.916-1.026,1.766-0.079,2.965c0.946,1.197,2.263,0.471,3.187,0.264
				c-0.258,0.91-0.993,1.848-0.082,2.959c0.919,1.113,2.423,0.52,3.417,0.211c-0.384,0.986-1.204,2.049-0.149,3.24
				c1.053,1.201,3.487,0.645,4.676-0.488c1.186-1.135,1.3-2.934,0.256-4.008C23.355,41.092,22.282,40.92,21.292,41.23L21.292,41.23z
				 M42.984,33.684c-8.594-8.596-4.551-4.551-9.176-9.186c0,0-1.391-1.385-3.223-0.58c-1.287,0.563-2.941,1.332-4.187,1.918
				c-1.369,0.717-2.354,0.939-2.817,0.938c-2.646-0.018-4.793-2.145-4.793-4.789c0-1.716,0.91-3.209,2.269-4.057
				c1.909-1.321,6.305-3.659,6.305-3.659s-1.339-1.697-4.272-1.697c-2.933,0-9.06,4.014-9.06,4.014s-1.738,1.114-4.216,0.111
				l-4.775-1.663v16.599c0,0,1.363,0.395,2.589,0.896c0.276-0.789,0.723-1.52,1.343-2.121c2.032-1.936,5.401-1.955,7.252-0.051
				c0.557,0.578,0.945,1.27,1.144,2.031c0.745,0.23,1.42,0.639,1.963,1.197c0.559,0.574,0.946,1.27,1.146,2.029
				c0.744,0.23,1.418,0.639,1.962,1.197c0.613,0.633,1.021,1.396,1.213,2.225c0.777,0.227,1.48,0.648,2.047,1.227
				c1.111,1.141,1.506,2.691,1.267,4.184c0.003,0,0.006,0,0.008,0.004c0.018,0.023,0.689,0.771,1.106,1.193
				c0.819,0.82,2.156,0.82,2.979,0c0.816-0.82,0.82-2.156,0-2.979c-0.029-0.029-2.955-3.092-2.72-3.328
				c0.234-0.236,3.962,3.643,4.032,3.715c0.818,0.818,2.154,0.818,2.977,0c0.82-0.82,0.818-2.156,0-2.977
				c-0.039-0.039-0.207-0.199-0.27-0.264c0,0-3.697-3.293-3.416-3.574c0.285-0.285,4.877,4.002,4.885,4.002
				c0.824,0.742,2.096,0.736,2.891-0.057c0.773-0.773,0.789-1.996,0.104-2.818c-0.014-0.045-3.498-3.686-3.227-3.961
				c0.275-0.277,3.725,3.273,3.732,3.281c0.816,0.818,2.154,0.818,2.977,0c0.818-0.818,0.818-2.156,0-2.98
				C43.01,33.697,42.996,33.689,42.984,33.684L42.984,33.684z M42.984,33.684"/>
		</g>
	</g>
</g>
<g id="Layer_1_copy_3">
	<path fill="#5B4084" d="M20.221,0h17.557c5.824,0,8.734,0,11.869,0.991c3.422,1.245,6.117,3.94,7.361,7.362
		C58,11.487,58,14.398,58,20.221v17.559c0,5.822,0,8.732-0.992,11.867c-1.244,3.422-3.939,6.117-7.361,7.363
		C46.512,58,43.602,58,37.777,58H20.221c-5.822,0-8.734,0-11.868-0.99c-3.421-1.246-6.116-3.941-7.362-7.363
		C0,46.512,0,43.602,0,37.779V20.221c0-5.822,0-8.733,0.99-11.867c1.246-3.422,3.941-6.117,7.362-7.362C11.486,0,14.398,0,20.221,0
		L20.221,0"/>
	<g>
		<path fill="#FFFFFF" d="M19.283,13.612c0,2.183-1.77,3.952-3.952,3.952c-2.184,0-3.952-1.769-3.952-3.952
			c0-2.184,1.768-3.952,3.952-3.952C17.513,9.66,19.283,11.428,19.283,13.612L19.283,13.612z M19.283,13.612"/>
		<path fill="#FFFFFF" d="M10.921,31.414h0.393v7.839c0,1.078,0.881,1.96,1.958,1.96h4.116c1.079,0,1.959-0.882,1.959-1.96v-0.458
			c-0.359-0.685-0.587-1.468-0.587-2.284V26.253c0-1.992,1.208-3.725,2.939-4.476v-0.783c0-1.079-0.882-1.96-1.96-1.96h-8.818
			c-1.078,0-1.96,0.881-1.96,1.96v8.459C8.961,30.532,9.809,31.414,10.921,31.414L10.921,31.414z M10.921,31.414"/>
		<path fill="#FFFFFF" d="M46.655,13.612c0,2.183-1.771,3.952-3.952,3.952c-2.185,0-3.953-1.769-3.953-3.952
			c0-2.184,1.769-3.952,3.953-3.952C44.885,9.66,46.655,11.428,46.655,13.612L46.655,13.612z M46.655,13.612"/>
		<path fill="#FFFFFF" d="M36.301,20.961v0.784c1.731,0.751,2.939,2.482,2.939,4.475v10.224c0,0.816-0.195,1.6-0.59,2.285v0.458
			c0,1.078,0.883,1.961,1.962,1.961h4.116c1.077,0,1.96-0.883,1.96-1.961v-7.839h0.39c1.079,0,1.961-0.882,1.961-1.96v-8.427
			c0-1.079-0.882-1.961-1.961-1.961h-8.817C37.184,19,36.301,19.883,36.301,20.961L36.301,20.961z M36.301,20.961"/>
		<path fill="#FFFFFF" d="M21.732,26.253v10.257c0,1.075,0.882,1.958,1.959,1.958h0.753v9.243c0,1.079,0.88,1.961,1.958,1.961h5.261
			c1.076,0,1.959-0.882,1.959-1.961v-9.275h0.751c1.078,0,1.959-0.882,1.959-1.96V26.253c0-1.079-0.881-1.961-1.959-1.961H23.691
			C22.581,24.292,21.732,25.174,21.732,26.253L21.732,26.253z M21.732,26.253"/>
		<path fill="#FFFFFF" d="M33.557,18.119c0,2.508-2.033,4.541-4.54,4.541c-2.508,0-4.541-2.032-4.541-4.541
			c0-2.508,2.033-4.54,4.541-4.54C31.523,13.58,33.557,15.611,33.557,18.119L33.557,18.119z M33.557,18.119"/>
	</g>
</g>
</svg>
