<?xml version="1.0" encoding="utf-8"?>
<!-- Generator: Adobe Illustrator 16.0.0, SVG Export Plug-In . SVG Version: 6.00 Build 0)  -->
<!DOCTYPE svg PUBLIC "-//W3C//DTD SVG 1.1//EN" "http://www.w3.org/Graphics/SVG/1.1/DTD/svg11.dtd">
<svg version="1.1" id="Layer_1" xmlns="http://www.w3.org/2000/svg" xmlns:xlink="http://www.w3.org/1999/xlink" x="0px" y="0px"
	 width="36px" height="31px" viewBox="0 0 36 31" enable-background="new 0 0 36 31" xml:space="preserve">
<g>
	<path fill="#999999" d="M18.875,4.182c-6.272,0-11.355,5.118-11.355,11.431c0,6.313,5.083,11.432,11.355,11.432
		c6.271,0,11.351-5.118,11.351-11.432C30.227,9.3,25.146,4.182,18.875,4.182z M12.865,16.726l-0.965,0.972
		c-0.194-0.661-0.303-1.36-0.303-2.085c0-4.046,3.258-7.327,7.279-7.327c0.72,0,1.414,0.109,2.07,0.305L19.98,9.563
		c-0.359-0.066-0.727-0.106-1.105-0.106c-3.377,0-6.116,2.757-6.116,6.155C12.76,15.993,12.799,16.364,12.865,16.726z M18.875,22.94
		c-0.7,0-1.374-0.104-2.014-0.29l0.97-0.979c0.339,0.06,0.687,0.096,1.044,0.096c3.375,0,6.111-2.756,6.111-6.155
		c0-0.358-0.037-0.708-0.094-1.048l0.971-0.979c0.186,0.645,0.289,1.324,0.289,2.027C26.152,19.658,22.893,22.94,18.875,22.94z
		 M5.723,9.292c-0.014,0.381-0.177,0.69-0.366,0.69c-0.189,0-0.352-0.31-0.367-0.69C4.913,7.097,4.721,3.043,4.499,3.043
		c-0.223,0-0.414,4.054-0.494,6.249c-0.013,0.381-0.176,0.69-0.366,0.69c-0.188,0-0.352-0.31-0.366-0.69
		c-0.08-2.195-0.27-6.249-0.493-6.249c-0.222,0-0.413,4.054-0.493,6.249c-0.013,0.381-0.176,0.69-0.367,0.69
		c-0.188,0-0.352-0.31-0.366-0.69C1.477,7.097,1.286,3.043,1.063,3.043c-0.294,0-0.532,7.057-0.532,7.591
		c0,1.462,1.258,2.074,2.205,2.153C2.737,17.468,2,24.496,2,25.419c0,1.222,0.735,2.209,1.64,2.209c0.907,0,1.641-0.987,1.641-2.209
		c0-0.923-0.737-8.105-0.737-12.631c0.947-0.079,2.205-0.691,2.205-2.153c0-0.534-0.238-7.591-0.531-7.591
		C5.994,3.043,5.803,7.097,5.723,9.292z M35.008,16.244V3.406c0-0.38-0.26-0.509-0.545-0.245c-0.996,0.916-3,3.308-3,7.74
		c0,1.789,0.775,3.824,1.578,5.031c-0.309,4.266-0.85,8.864-0.85,9.487c0,1.222,0.734,2.209,1.639,2.209s1.639-0.987,1.639-2.209
		C35.469,24.82,35.293,20.34,35.008,16.244z"/>
</g>
</svg>
