<?xml version="1.0" encoding="utf-8"?>
<!-- Generator: Adobe Illustrator 16.0.0, SVG Export Plug-In . SVG Version: 6.00 Build 0)  -->
<!DOCTYPE svg PUBLIC "-//W3C//DTD SVG 1.1//EN" "http://www.w3.org/Graphics/SVG/1.1/DTD/svg11.dtd">
<svg version="1.1" id="Layer_1" xmlns="http://www.w3.org/2000/svg" xmlns:xlink="http://www.w3.org/1999/xlink" x="0px" y="0px"
	 width="162px" height="162px" viewBox="0 0 162 162" enable-background="new 0 0 162 162" xml:space="preserve">
<path fill="#4C67B0" d="M27.84,63.31c-9.783,0-17.722,7.919-17.722,17.684c0,9.77,7.938,17.696,17.722,17.696
	c9.784,0,17.716-7.926,17.716-17.696C45.556,71.229,37.624,63.31,27.84,63.31z M134.146,63.31c-9.777,0-17.709,7.919-17.709,17.684
	c0,9.77,7.932,17.696,17.709,17.696c9.791,0,17.734-7.926,17.734-17.696C151.881,71.229,143.938,63.31,134.146,63.31z M81,63.31
	c-9.79,0-17.722,7.919-17.722,17.684c0,9.77,7.932,17.696,17.722,17.696c9.783,0,17.715-7.926,17.715-17.696
	C98.715,71.229,90.783,63.31,81,63.31z"/>
</svg>
