<?xml version="1.0" encoding="utf-8"?>
<!-- Generator: Adobe Illustrator 16.0.0, SVG Export Plug-In . SVG Version: 6.00 Build 0)  -->
<!DOCTYPE svg PUBLIC "-//W3C//DTD SVG 1.1//EN" "http://www.w3.org/Graphics/SVG/1.1/DTD/svg11.dtd">
<svg version="1.1" id="Layer_1" xmlns="http://www.w3.org/2000/svg" xmlns:xlink="http://www.w3.org/1999/xlink" x="0px" y="0px"
	 width="36px" height="31px" viewBox="0 0 36 31" enable-background="new 0 0 36 31" xml:space="preserve">
<g>
	<path fill-rule="evenodd" clip-rule="evenodd" fill="#999999" d="M17.478,27.066c0-0.033-0.007-0.068-0.016-0.102
		c-0.009-0.029-0.003-0.072-0.048-0.074c-0.047-0.002-0.037,0.045-0.051,0.07c-0.003,0.004-0.009,0.008-0.023,0.021
		c-0.042,0-0.091-0.002-0.14,0c-0.054,0.021-0.114,0.033-0.169,0.053c-0.014,0.016-0.033,0.023-0.035,0.057
		c-0.059,0.004-0.112,0.006-0.168,0.008c-0.005,0-0.009,0.002-0.015,0.002c-0.044,0.014-0.086,0.031-0.131,0.043
		c-0.024,0.016-0.048,0.027-0.06,0.066c-0.093,0.004-0.183-0.002-0.275,0c-0.209,0.033-0.419,0.064-0.637,0.064
		c-0.216,0-0.423-0.031-0.63-0.064c-0.043,0-0.087,0.002-0.13,0c-0.002-0.006-0.004-0.01-0.006-0.014
		c-0.132-0.025-0.255-0.07-0.382-0.107c-0.027-0.004-0.052-0.008-0.069-0.023c-1.633-0.518-2.825-2.027-2.825-3.834
		c0-1.568,0.904-2.914,2.211-3.584c0.001-0.004,0.002-0.008,0.003-0.012c0.009-0.002,0.018-0.004,0.027-0.004
		c0.069-0.035,0.131-0.08,0.203-0.111c0.001-0.008,0.003-0.014,0.005-0.021c0.02,0,0.037-0.002,0.056-0.002
		c0.093-0.039,0.193-0.059,0.289-0.09c0.002-0.012,0.004-0.023,0.007-0.035c0.037,0,0.071,0,0.106,0
		c0.085-0.025,0.166-0.061,0.253-0.078c0.002-0.01,0.005-0.021,0.008-0.029c0.065-0.002,0.128-0.004,0.193-0.006
		c0.214-0.037,0.432-0.064,0.655-0.066c0.03-0.049,0.05-0.053,0.099,0.006c0,0,0.001,0,0.001,0c0.173,0.004,0.341,0.025,0.508,0.051
		c0.053,0.002,0.106,0.004,0.16,0.006c0.093,0.004,0.186,0.006,0.281,0.01c0.006,0.029,0.012,0.053,0.018,0.078
		c0.03,0.008,0.058,0.02,0.087,0.027c0.088,0.004,0.177,0.008,0.264,0.014c0.004,0.025,0.005,0.043,0.009,0.057
		c0.001,0.006,0.003,0.012,0.004,0.016c0.033,0.014,0.069,0.02,0.102,0.031c0.085,0.004,0.17,0.012,0.252,0.004
		c0.021-0.176,0.013-3.91-0.008-3.986c-0.535,0-1.069,0-1.604,0c-0.533,0-1.064,0.001-1.596,0c-0.534-0.001-1.067,0.007-1.61-0.006
		c0.003-0.042,0.005-0.073,0.007-0.101c0.041-0.005,0.072-0.011,0.103-0.017c0.005-0.041,0.009-0.075,0.014-0.108
		c0.036-0.009,0.066-0.015,0.099-0.022c0.01-0.072,0.019-0.143,0.028-0.215c0.035-0.006,0.068-0.012,0.101-0.018
		c0.004-0.042,0.008-0.076,0.012-0.113c0.035-0.004,0.066-0.008,0.099-0.013c0.009-0.075,0.017-0.144,0.026-0.214
		c0.037-0.008,0.07-0.018,0.1-0.023c0.008-0.051,0.016-0.098,0.024-0.145c0.018-0.025,0.033-0.053,0.051-0.08
		c0.019-0.005,0.038-0.01,0.056-0.015c0.003-0.037,0.005-0.069,0.008-0.103c0.002-0.004,0.005-0.008,0.007-0.012
		c0.028-0.012,0.056-0.021,0.089-0.033c0.005-0.057,0.011-0.11,0.018-0.166c0.025-0.049,0.058-0.094,0.08-0.145
		c0.015-0.008,0.018-0.023,0.043-0.023c0-0.04,0-0.075,0-0.111c0.026-0.071,0.046-0.146,0.068-0.22
		c0.017-0.013,0.024-0.031,0.053-0.038c0-0.045,0-0.089,0-0.133c0.053-0.229,0.087-0.467,0.087-0.711
		c0-1.744-1.415-3.157-3.156-3.157c-1.743,0-3.156,1.413-3.156,3.157c0,0.727,0.256,1.389,0.67,1.923c0,0.003,0,0.006,0.001,0.009
		c0.002,0,0.005,0,0.007,0.001c0.037,0.047,0.074,0.093,0.114,0.138c0.005,0.025,0.01,0.051,0.016,0.076
		c0.027,0.012,0.05,0.021,0.073,0.032c0.007,0.007,0.013,0.017,0.02,0.024c0.003,0.031,0.006,0.062,0.01,0.092
		c0.038,0.008,0.071,0.014,0.104,0.02c0.01,0.072,0.019,0.139,0.028,0.203c0.036,0.012,0.066,0.021,0.096,0.029
		c0.005,0.041,0.01,0.078,0.014,0.114c0.039,0.005,0.069,0.011,0.102,0.015c0,0.035,0,0.066,0,0.107c-0.527,0-1.049,0-1.571,0
		c-0.519,0-1.039,0-1.557,0.001c-0.521,0.001-1.042-0.007-1.559,0.005c-0.002,0.007-0.003,0.01-0.005,0.016
		c-0.583,0.031-1.04,0.484-1.087,1.062c-0.005,0-0.013,0-0.019,0c0,4.432,0,8.861,0,13.291c0.004,0,0.009,0.002,0.013,0.002
		c0.035,0.611,0.531,1.102,1.153,1.102c0.008,0,0.015-0.006,0.023-0.006c0.01,0.002,0.02,0.004,0.029,0.006
		c4.431,0,8.861,0,13.292,0c0-0.004-0.001-0.008-0.001-0.01C17.479,29.672,17.479,28.369,17.478,27.066z"/>
	<path fill-rule="evenodd" clip-rule="evenodd" fill="#999999" d="M33.892,1.208c0-0.009,0.005-0.017,0.005-0.026
		c0-0.571-0.418-1.023-0.959-1.124c0-0.003,0-0.007,0-0.01c-0.017,0-0.033,0-0.05,0c-0.054-0.007-0.102-0.032-0.157-0.032
		s-0.104,0.024-0.157,0.032c-4.709,0-9.417,0-14.126,0c-0.003,0.029-0.006,0.058-0.006,0.086c0,1.877,0,3.753,0,5.63
		c0,0.063,0.008,0.126,0.012,0.198c0.032-0.001,0.057-0.004,0.081-0.005c0.006-0.008,0.013-0.016,0.02-0.023
		c0.005-0.029,0.009-0.055,0.012-0.08c0.022-0.003,0.041-0.006,0.062-0.008c0.02-0.023,0.037-0.047,0.057-0.07
		c0.002-0.012,0.004-0.025,0.006-0.038c0.011-0.002,0.02-0.003,0.031-0.005c0.068-0.077,0.14-0.149,0.215-0.219
		c0.001-0.005,0.002-0.011,0.002-0.017c0.008-0.002,0.016-0.002,0.023-0.003c0.145-0.129,0.299-0.246,0.465-0.348
		c0-0.001,0.001-0.002,0.001-0.003c0.003,0,0.005-0.001,0.008-0.001c0.072-0.044,0.148-0.083,0.225-0.123
		c0.001-0.003,0.002-0.006,0.002-0.01c0.007,0,0.013-0.001,0.02-0.001c0.075-0.038,0.148-0.077,0.228-0.108
		c0-0.002,0.001-0.005,0.001-0.007c0.009,0,0.018-0.001,0.027-0.001c0.11-0.042,0.224-0.075,0.339-0.105
		c0.001-0.002,0.002-0.006,0.003-0.008c0.008,0,0.016,0,0.025,0c0.252-0.064,0.513-0.109,0.785-0.109
		c0.275,0,0.537,0.045,0.791,0.11c0.011,0,0.021,0,0.031,0c0.002,0.004,0.003,0.007,0.004,0.011c0.112,0.03,0.222,0.061,0.328,0.102
		c0.015,0,0.028,0.001,0.043,0.002c0.001,0.004,0.002,0.007,0.003,0.012c0.074,0.03,0.142,0.069,0.213,0.105
		c0.01,0,0.02,0.001,0.028,0.002c0.001,0.005,0.002,0.009,0.003,0.014c1.04,0.53,1.761,1.599,1.761,2.846
		c0,1.77-1.436,3.205-3.205,3.205c-1.101,0-2.069-0.556-2.647-1.401c0,1.943,0,3.882,0,5.83c0.49,0,0.971,0,1.45,0
		c0.481,0,0.961,0,1.441,0c0.481,0,0.967-0.001,1.451,0.001c0.478,0.001,0.958-0.008,1.444,0.006
		c-0.002,0.04-0.005,0.071-0.006,0.099c-0.04,0.008-0.071,0.015-0.101,0.019c-0.004,0.041-0.008,0.076-0.01,0.112
		c-0.038,0.008-0.071,0.017-0.104,0.022c-0.006,0.066-0.014,0.129-0.021,0.189c-0.011,0.012-0.024,0.02-0.036,0.03
		c-0.021,0.003-0.045,0.005-0.068,0.007c-0.002,0.023-0.004,0.041-0.006,0.062c-0.019,0.018-0.031,0.039-0.05,0.059
		c-0.019,0.004-0.038,0.01-0.056,0.014c-0.004,0.023-0.006,0.045-0.011,0.068c-0.485,0.555-0.79,1.271-0.79,2.068
		c0,1.742,1.413,3.156,3.156,3.156c1.741,0,3.156-1.414,3.156-3.156c0-0.262-0.041-0.51-0.101-0.754
		c-0.001-0.02,0.001-0.043,0-0.064c-0.011-0.002-0.015-0.002-0.021-0.004c-0.028-0.102-0.057-0.203-0.094-0.301
		c-0.001-0.02-0.003-0.041-0.004-0.061c-0.006-0.002-0.01-0.002-0.016-0.004c-0.029-0.072-0.068-0.139-0.104-0.209
		c-0.006-0.039-0.011-0.082-0.016-0.119c-0.026-0.008-0.042-0.014-0.061-0.02c-0.012-0.021-0.021-0.043-0.034-0.063
		c-0.002-0.023-0.005-0.047-0.007-0.07c-0.012-0.002-0.023-0.004-0.034-0.006c-0.027-0.043-0.052-0.088-0.08-0.129
		c-0.006-0.033-0.012-0.066-0.016-0.1c-0.03-0.006-0.055-0.01-0.078-0.014c-0.009-0.01-0.017-0.018-0.024-0.029
		c-0.009-0.061-0.019-0.119-0.025-0.174c-0.038-0.014-0.067-0.025-0.097-0.035c-0.003-0.041-0.006-0.076-0.008-0.113
		c-0.039-0.004-0.072-0.01-0.103-0.013c-0.012-0.075-0.023-0.144-0.033-0.208c-0.038-0.01-0.065-0.018-0.093-0.026
		c-0.005-0.042-0.01-0.079-0.015-0.118c-0.035-0.004-0.067-0.009-0.104-0.013c0-0.035,0-0.068,0-0.112c1.927,0,3.847,0,5.767,0
		c0.009-0.045,0.016-0.08,0.021-0.115c0-4.707,0-9.415,0-14.123C33.901,1.248,33.896,1.227,33.892,1.208z"/>
	<path fill-rule="evenodd" clip-rule="evenodd" fill="#999999" d="M30.376,18.113c0,2.32-1.884,4.201-4.202,4.201
		c-2.321,0-4.203-1.881-4.203-4.201c0-0.58,0.118-1.133,0.329-1.635c-1.284,0-2.566,0-3.858,0c0,0.045,0,0.086,0,0.127
		c0,1.49,0,2.979-0.002,4.471c0,0.068-0.006,0.139-0.011,0.211c-0.036,0-0.063,0-0.089,0c-0.008-0.035-0.015-0.066-0.021-0.098
		c-0.042-0.006-0.078-0.012-0.116-0.018c-0.007-0.035-0.011-0.061-0.016-0.094c-0.05-0.008-0.097-0.014-0.145-0.021
		c-0.028-0.029-0.053-0.064-0.083-0.094c0-0.006-0.002-0.012-0.002-0.016c-0.006,0-0.012,0-0.018,0
		c-0.036-0.037-0.08-0.064-0.118-0.098c-0.001-0.004-0.001-0.01-0.003-0.012c-0.004-0.002-0.008-0.002-0.012-0.002
		c-0.556-0.484-1.272-0.787-2.065-0.787c-1.743,0-3.157,1.412-3.157,3.156c0,1.742,1.414,3.156,3.157,3.156
		c0.75,0,1.432-0.273,1.974-0.713c0.002,0,0.005-0.002,0.007-0.002c0-0.002,0.001-0.004,0.001-0.006
		c0.042-0.033,0.085-0.066,0.125-0.104c0.035-0.006,0.07-0.01,0.104-0.018c0.005-0.025,0.01-0.053,0.014-0.078
		c0.008-0.008,0.014-0.018,0.022-0.025c0.032-0.002,0.063-0.006,0.095-0.008c0.011-0.035,0.021-0.068,0.033-0.1
		c0.066-0.008,0.13-0.016,0.197-0.023c0.006-0.035,0.013-0.068,0.02-0.107c0.035,0.002,0.066,0.004,0.107,0.006
		c0,0.074,0,0.143,0,0.209c0,1.777,0,3.555,0,5.33c0,0.088,0.003,0.174,0.006,0.262c4.746,0,9.493,0,14.239,0
		c0.006-0.002,0.015-0.006,0.021-0.008c0.012,0.002,0.021,0.008,0.032,0.008c0.644,0,1.166-0.521,1.166-1.166
		c0-0.016-0.008-0.027-0.009-0.043c0.003-0.01,0.006-0.021,0.009-0.031c0-4.422,0-8.848,0-13.271c-1.284,0-2.567,0-3.861,0
		C30.257,16.977,30.376,17.531,30.376,18.113z"/>
</g>
</svg>
