<?xml version="1.0" encoding="utf-8"?>
<!-- Generator: Adobe Illustrator 16.0.0, SVG Export Plug-In . SVG Version: 6.00 Build 0)  -->
<!DOCTYPE svg PUBLIC "-//W3C//DTD SVG 1.1//EN" "http://www.w3.org/Graphics/SVG/1.1/DTD/svg11.dtd">
<svg version="1.1" id="Layer_1" xmlns="http://www.w3.org/2000/svg" xmlns:xlink="http://www.w3.org/1999/xlink" x="0px" y="0px"
	 width="36px" height="31px" viewBox="0 0 36 31" enable-background="new 0 0 36 31" xml:space="preserve">
<path fill-rule="evenodd" clip-rule="evenodd" fill="#FF827C" d="M7.162,1h21.67c1.747,0,3.164,1.359,3.164,3.03v21.934
	c0,1.674-1.417,3.029-3.164,3.029H7.162C5.416,28.993,4,27.638,4,25.964V4.03C4,2.359,5.416,1,7.162,1z"/>
<g>
	<g>
		<path fill="#C52026" d="M24.312,12.507c1.383,0,2.504-1.077,2.504-2.401c0-1.327-1.121-2.403-2.504-2.403
			s-2.504,1.077-2.504,2.403C21.808,11.43,22.929,12.507,24.312,12.507z M11.693,12.507c1.382,0,2.503-1.077,2.503-2.401
			c0-1.327-1.121-2.403-2.503-2.403c-1.383,0-2.504,1.077-2.504,2.403C9.188,11.43,10.31,12.507,11.693,12.507z M18.039,16.849
			c-3.522,0-7.232,1.362-9.376,4.23l1.896,1.176c1.854-2.076,4.313-3.089,7.481-3.089c2.958,0,5.708,1.047,7.583,3.125l1.71-1.121
			C25.144,18.3,21.519,16.849,18.039,16.849z"/>
	</g>
</g>
</svg>
