<?xml version="1.0" encoding="utf-8"?>
<!-- Generator: Adobe Illustrator 16.0.0, SVG Export Plug-In . SVG Version: 6.00 Build 0)  -->
<!DOCTYPE svg PUBLIC "-//W3C//DTD SVG 1.1//EN" "http://www.w3.org/Graphics/SVG/1.1/DTD/svg11.dtd">
<svg version="1.1" id="Layer_1" xmlns="http://www.w3.org/2000/svg" xmlns:xlink="http://www.w3.org/1999/xlink" x="0px" y="0px"
	 width="36px" height="31px" viewBox="0 0 36 31" enable-background="new 0 0 36 31" xml:space="preserve">
<path fill-rule="evenodd" clip-rule="evenodd" fill="#94E048" d="M6.842,1.504h21.667c1.747,0,3.166,1.359,3.166,3.03v21.934
	c0,1.674-1.419,3.029-3.166,3.029H6.842c-1.747,0-3.165-1.355-3.165-3.029V4.534C3.677,2.863,5.095,1.504,6.842,1.504z"/>
<g>
	<g>
		<path fill="#198F45" d="M23.986,13.086c1.388,0,2.506-1.077,2.506-2.403c0-1.325-1.118-2.401-2.506-2.401
			c-1.378,0-2.499,1.077-2.499,2.401C21.487,12.009,22.608,13.086,23.986,13.086z M11.372,13.086c1.381,0,2.502-1.077,2.502-2.403
			c0-1.325-1.121-2.401-2.502-2.401c-1.385,0-2.506,1.077-2.506,2.401C8.866,12.009,9.987,13.086,11.372,13.086z M25.299,17.104
			c-1.873,2.147-4.625,3.228-7.582,3.228c-3.169,0-5.627-1.046-7.48-3.187L8.34,18.357c2.143,2.957,5.855,4.36,9.377,4.36
			c3.479,0,7.107-1.492,9.292-4.451L25.299,17.104z"/>
	</g>
</g>
</svg>
