<?xml version="1.0" encoding="utf-8"?>
<!-- Generator: Adobe Illustrator 16.0.0, SVG Export Plug-In . SVG Version: 6.00 Build 0)  -->
<!DOCTYPE svg PUBLIC "-//W3C//DTD SVG 1.1//EN" "http://www.w3.org/Graphics/SVG/1.1/DTD/svg11.dtd">
<svg version="1.1" id="Layer_1" xmlns="http://www.w3.org/2000/svg" xmlns:xlink="http://www.w3.org/1999/xlink" x="0px" y="0px"
	 width="57.25px" height="57.25px" viewBox="0 0 57.25 57.25" enable-background="new 0 0 57.25 57.25" xml:space="preserve">
<g>
	<path fill="#FEEA96" d="M57.125,28.644c0,15.709-12.734,28.451-28.448,28.451c-15.711,0-28.447-12.741-28.447-28.451
		c0-15.718,12.736-28.459,28.447-28.459C44.391,0.185,57.125,12.926,57.125,28.644z"/>
</g>
<g>
	<path fill="#333333" d="M28.724,34.591c-4.993,0-9.605,2.911-11.749,7.425c-0.429,0.897-0.047,1.977,0.852,2.398
		c0.889,0.444,1.974,0.053,2.401-0.851c1.549-3.265,4.887-5.374,8.497-5.374c3.618,0,6.95,2.115,8.502,5.379
		c0.307,0.652,0.947,1.033,1.624,1.033c0.258,0,0.521-0.054,0.771-0.17c0.895-0.428,1.282-1.501,0.855-2.396
		C38.339,37.509,33.724,34.591,28.724,34.591z"/>
	<path fill="#333333" d="M48.545,25.955c-0.471,0-0.855,0.387-0.855,0.862c0,1.807-1.472,3.282-3.282,3.282
		c-1.812,0-3.281-1.475-3.281-3.282c0-0.475-0.387-0.862-0.857-0.862c-0.48,0-0.861,0.387-0.861,0.862c0,2.756,2.239,5,5,5
		c2.757,0,4.999-2.244,4.999-5C49.406,26.342,49.021,25.955,48.545,25.955z"/>
	<path fill="#333333" d="M17.179,25.955c-0.475,0-0.855,0.387-0.855,0.862c0,1.807-1.472,3.282-3.283,3.282
		c-1.811,0-3.282-1.475-3.282-3.282c0-0.475-0.386-0.862-0.861-0.862s-0.856,0.387-0.856,0.862c0,2.756,2.239,5,4.999,5
		c2.755,0,5-2.244,5-5C18.041,26.342,17.655,25.955,17.179,25.955z"/>
</g>
</svg>
