<?xml version="1.0" encoding="utf-8"?>
<!-- Generator: Adobe Illustrator 16.0.0, SVG Export Plug-In . SVG Version: 6.00 Build 0)  -->
<!DOCTYPE svg PUBLIC "-//W3C//DTD SVG 1.1//EN" "http://www.w3.org/Graphics/SVG/1.1/DTD/svg11.dtd">
<svg version="1.1" id="Layer_1" xmlns="http://www.w3.org/2000/svg" xmlns:xlink="http://www.w3.org/1999/xlink" x="0px" y="0px"
	 width="57.25px" height="57.25px" viewBox="0 0 57.25 57.25" enable-background="new 0 0 57.25 57.25" xml:space="preserve">
<g>
	<path fill="#FEEA96" d="M57.25,28.624c0,15.71-12.736,28.444-28.451,28.444c-15.713,0-28.449-12.734-28.449-28.444
		c0-15.714,12.736-28.448,28.449-28.448C44.514,0.176,57.25,12.91,57.25,28.624z"/>
</g>
<g>
	<path fill="#333333" d="M13.065,13.75c-2.756,0-5,2.244-5,5c0,0.475,0.387,0.861,0.862,0.861c0.47,0,0.856-0.387,0.856-0.861
		c0-1.807,1.471-3.282,3.281-3.282c1.811,0,3.282,1.476,3.282,3.282c0,0.475,0.387,0.861,0.857,0.861c0.479,0,0.86-0.387,0.86-0.861
		C18.065,15.994,15.826,13.75,13.065,13.75z"/>
	<path fill="#333333" d="M44.432,13.75c-2.754,0-5,2.244-5,5c0,0.475,0.389,0.861,0.861,0.861c0.475,0,0.857-0.387,0.857-0.861
		c0-1.807,1.471-3.282,3.281-3.282s3.281,1.476,3.281,3.282c0,0.475,0.387,0.861,0.861,0.861s0.857-0.387,0.857-0.861
		C49.432,15.994,47.191,13.75,44.432,13.75z"/>
</g>
<g>
	<path fill="#F8AB86" d="M12.052,25.695c0,9.255,7.496,16.75,16.744,16.75c9.254,0,16.752-7.495,16.752-16.75H12.052z"/>
</g>
<g>
	<path fill="#FFFFFF" d="M44.727,30.853c0.529-1.624,0.822-3.351,0.822-5.157H12.052c0,1.807,0.287,3.533,0.815,5.157H44.727z"/>
</g>
</svg>
