<?xml version="1.0" encoding="utf-8"?>
<!-- Generator: Adobe Illustrator 16.0.0, SVG Export Plug-In . SVG Version: 6.00 Build 0)  -->
<!DOCTYPE svg PUBLIC "-//W3C//DTD SVG 1.1//EN" "http://www.w3.org/Graphics/SVG/1.1/DTD/svg11.dtd">
<svg version="1.1" id="Layer_1" xmlns="http://www.w3.org/2000/svg" xmlns:xlink="http://www.w3.org/1999/xlink" x="0px" y="0px"
	 width="58px" height="58px" viewBox="0 0 58 58" enable-background="new 0 0 58 58" xml:space="preserve">
<path fill="none" stroke="#D8D8D8" stroke-width="1.5" stroke-miterlimit="10" d="M20.524,1.006h16.952
	c5.621,0,8.433,0,11.459,0.956c3.304,1.202,5.905,3.804,7.108,7.107C57,12.094,57,14.905,57,20.525v16.948
	c0,5.622,0,8.432-0.956,11.457c-1.203,3.303-3.805,5.905-7.108,7.107c-3.026,0.956-5.838,0.956-11.459,0.956H20.524
	c-5.623,0-8.433,0-11.459-0.956c-3.304-1.202-5.905-3.805-7.108-7.107C1,45.905,1,43.096,1,37.474V20.525
	c0-5.621,0-8.431,0.957-11.456C3.16,5.766,5.762,3.164,9.065,1.962C12.091,1.006,14.902,1.006,20.524,1.006L20.524,1.006"/>
<g>
	<g>
		<path fill-rule="evenodd" clip-rule="evenodd" fill="#F6C199" d="M42.273,30.928c1.564,0.071,2.892-1.16,2.96-2.752
			s-1.031-3.022-2.597-3.092l-10.39-1.304c0,0,2.164-3.622,2.164-8.989c0-3.577-2.556-4.059-4.059-4.059
			c-1.183,0-1.5,2.291-1.5,2.291H28.85c-0.269,1.469-0.616,2.752-1.828,5.114c-1.356,2.647-3.203,2.399-5.36,4.757
			c-0.38,0.416-0.891,1.101-1.39,1.944c-0.041,0.044-0.079,0.106-0.115,0.194c-0.045,0.105-0.098,0.178-0.145,0.274
			c-0.083,0.151-0.164,0.304-0.244,0.462c-1.334,1.335-3.413,1.198-4.299,1.198c-1.775,0-2.706,1.032-2.706,2.706l0,12.371
			c0,1.879,0.768,2.512,2.707,2.512h2.706c1.362,0,2.429,0.781,4.059,1.352c2.233,0.774,5.566,1.354,11.311,1.354
			c1.004,0,4.119,0.005,4.119,0.005c0.954,0,1.72-0.436,2.273-0.962c0.21-0.201,0.43-0.491,0.522-1.058
			c0.017-0.089,0.032-0.457,0.03-0.506c0.072-1.622-0.909-2.21-1.464-2.395c0.016-0.005,0.005-0.02,0.035-0.018l1.764,0.079
			c1.564,0.07,3.11-1.057,3.11-2.974c0-1.59-1.289-2.711-2.85-2.788l0.936,0.043c1.564,0.069,2.888-1.162,2.96-2.754
			C45.051,32.346,43.838,30.999,42.273,30.928L42.273,30.928z M42.273,30.928"/>
	</g>
</g>
</svg>
