<?xml version="1.0" encoding="utf-8"?>
<!-- Generator: Adobe Illustrator 16.0.0, SVG Export Plug-In . SVG Version: 6.00 Build 0)  -->
<!DOCTYPE svg PUBLIC "-//W3C//DTD SVG 1.1//EN" "http://www.w3.org/Graphics/SVG/1.1/DTD/svg11.dtd">
<svg version="1.1" id="Layer_1" xmlns="http://www.w3.org/2000/svg" xmlns:xlink="http://www.w3.org/1999/xlink" x="0px" y="0px"
	 width="58px" height="58px" viewBox="0 0 58 58" enable-background="new 0 0 58 58" xml:space="preserve">
<g>
	<path fill="#666666" d="M29,3.25C14.801,3.25,3.25,14.801,3.25,29c0,14.198,11.551,25.75,25.75,25.75
		c14.198,0,25.75-11.552,25.75-25.75C54.75,14.801,43.198,3.25,29,3.25z M29,53.25C15.628,53.25,4.75,42.371,4.75,29
		C4.75,15.628,15.628,4.75,29,4.75c13.371,0,24.25,10.878,24.25,24.25C53.25,42.371,42.371,53.25,29,53.25z"/>
	<path fill="#666666" d="M37.936,19.985L25.78,32.119c-0.339,0.339-0.89,0.339-1.229,0l-4.489-4.481c-1.342-1.34-3.519-1.34-4.863,0
		c-1.342,1.342-1.342,3.515,0,4.854l7.537,7.522c1.341,1.34,3.519,1.34,4.862,0L42.8,24.839c0.646-0.645,1.008-1.516,1.008-2.426
		s-0.362-1.784-1.008-2.429C41.458,18.646,39.281,18.646,37.936,19.985z"/>
</g>
</svg>
