<?xml version="1.0" encoding="utf-8"?>
<!-- Generator: Adobe Illustrator 16.0.0, SVG Export Plug-In . SVG Version: 6.00 Build 0)  -->
<!DOCTYPE svg PUBLIC "-//W3C//DTD SVG 1.1//EN" "http://www.w3.org/Graphics/SVG/1.1/DTD/svg11.dtd">
<svg version="1.1" id="Layer_1" xmlns="http://www.w3.org/2000/svg" xmlns:xlink="http://www.w3.org/1999/xlink" x="0px" y="0px"
	 width="215px" height="215px" viewBox="0 0 215 215" enable-background="new 0 0 215 215" xml:space="preserve">
<g>
	<path fill="#FFFFFF" d="M207.217,107.604c0,0-0.055,2.146-0.108,4.291c-0.001,1.074-0.138,2.141-0.182,2.944
		c-0.062,0.803-0.102,1.337-0.102,1.337l3.541,0.303c0,0,0.043-0.555,0.105-1.385c0.047-0.832,0.187-1.937,0.188-3.049
		c0.057-2.221,0.112-4.441,0.112-4.441H207.217z"/>
	<path fill="#FFFFFF" d="M206.208,121.682c-0.081,0.801-0.269,1.857-0.463,2.912c-0.188,1.057-0.377,2.112-0.519,2.904
		c-0.161,0.788-0.292,1.309-0.292,1.309l3.474,0.753c0.001,0,0.135-0.54,0.303-1.355c0.146-0.82,0.342-1.914,0.537-3.008
		c0.202-1.094,0.395-2.188,0.479-3.018c0.105-0.826,0.176-1.377,0.176-1.377l-3.526-0.45
		C206.377,120.352,206.31,120.883,206.208,121.682z"/>
	<path fill="#FFFFFF" d="M202.8,137.02c-0.682,2.033-1.364,4.067-1.364,4.067l3.349,1.193c0,0,0.706-2.106,1.413-4.214
		c0.606-2.138,1.214-4.275,1.214-4.275l-3.439-0.899C203.972,132.892,203.386,134.955,202.8,137.02z"/>
	<path fill="#FFFFFF" d="M199.441,146.256c-0.329,0.734-0.769,1.712-1.208,2.69c-0.444,0.976-0.867,1.962-1.254,2.669
		c-0.367,0.716-0.611,1.192-0.611,1.192l3.167,1.615c0,0,0.253-0.494,0.633-1.236c0.398-0.731,0.838-1.753,1.299-2.764
		c0.455-1.014,0.91-2.027,1.251-2.787c0.306-0.775,0.51-1.292,0.51-1.292l-3.294-1.335
		C199.934,145.009,199.736,145.508,199.441,146.256z"/>
	<path fill="#FFFFFF" d="M193.717,157.67c-0.405,0.695-0.916,1.64-1.515,2.531c-0.579,0.902-1.158,1.806-1.593,2.483
		c-0.424,0.685-0.746,1.113-0.746,1.113l2.934,2.007c0,0,0.334-0.445,0.773-1.153c0.45-0.701,1.05-1.637,1.649-2.572
		c0.618-0.923,1.149-1.9,1.569-2.62c0.415-0.723,0.692-1.204,0.692-1.204l-3.096-1.747
		C194.386,156.508,194.118,156.973,193.717,157.67z"/>
	<path fill="#FFFFFF" d="M184.777,170.597c-0.664,0.843-1.395,1.631-1.912,2.246c-0.527,0.607-0.878,1.014-0.878,1.014l2.654,2.364
		c0,0,0.363-0.42,0.909-1.05c0.537-0.637,1.292-1.453,1.98-2.325c1.372-1.748,2.744-3.495,2.744-3.495l-2.848-2.128
		C187.428,167.223,186.103,168.91,184.777,170.597z"/>
	<path fill="#FFFFFF" d="M178.2,177.898c-0.564,0.572-1.354,1.299-2.126,2.044c-1.523,1.512-3.177,2.883-3.177,2.883l2.333,2.683
		c0,0,1.71-1.421,3.289-2.985c0.8-0.771,1.616-1.524,2.201-2.117c0.575-0.603,0.958-1.005,0.958-1.005l-2.554-2.473
		C179.125,176.928,178.756,177.315,178.2,177.898z"/>
	<path fill="#FFFFFF" d="M168.618,186.346c-0.635,0.494-1.464,1.176-2.352,1.78c-0.875,0.621-1.749,1.243-2.404,1.709
		c-0.649,0.478-1.109,0.753-1.109,0.753l1.972,2.958c0,0,0.477-0.286,1.148-0.779c0.68-0.483,1.585-1.127,2.49-1.771
		c0.919-0.626,1.778-1.331,2.436-1.844c0.655-0.515,1.092-0.857,1.092-0.857l-2.218-2.778
		C169.673,185.517,169.251,185.849,168.618,186.346z"/>
	<path fill="#FFFFFF" d="M155.497,194.993c-0.931,0.533-1.903,0.989-2.613,1.366c-0.717,0.367-1.193,0.611-1.193,0.611l1.576,3.186
		c0,0,0.495-0.253,1.236-0.633c0.736-0.39,1.743-0.864,2.707-1.416c1.927-1.107,3.854-2.215,3.854-2.215l-1.846-3.038
		C159.218,192.854,157.357,193.924,155.497,194.993z"/>
	<path fill="#FFFFFF" d="M146.666,199.299c-0.735,0.327-1.743,0.697-2.738,1.098c-1.98,0.827-4.025,1.48-4.025,1.48l1.154,3.362
		c0-0.001,2.117-0.679,4.17-1.534c1.031-0.414,2.074-0.799,2.836-1.138c0.759-0.343,1.266-0.571,1.266-0.571l-1.44-3.25
		C147.888,198.746,147.398,198.967,146.666,199.299z"/>
	<path fill="#FFFFFF" d="M134.614,203.526c-0.778,0.204-1.797,0.548-2.846,0.772c-2.091,0.481-4.181,0.962-4.181,0.962l0.711,3.483
		c0,0,2.166-0.498,4.331-0.997c1.086-0.233,2.143-0.587,2.947-0.799c0.802-0.228,1.336-0.38,1.336-0.38l-1.01-3.408
		C135.903,203.16,135.388,203.307,134.614,203.526z"/>
	<path fill="#FFFFFF" d="M123.092,206.064c-0.23,0.047-0.562,0.094-0.962,0.141c-0.798,0.102-1.862,0.236-2.927,0.372
		c-0.532,0.065-1.064,0.132-1.563,0.193c-0.501,0.038-0.97,0.074-1.37,0.104c-0.803,0.061-1.338,0.102-1.338,0.102l0.26,3.545
		c0,0,0.555-0.042,1.385-0.105c0.416-0.031,0.9-0.068,1.42-0.108c0.517-0.063,1.067-0.132,1.619-0.2
		c1.102-0.14,2.204-0.28,3.03-0.386c0.414-0.049,0.758-0.098,0.996-0.146c0.239-0.043,0.376-0.067,0.376-0.067l-0.563-3.51
		C123.455,205.999,123.323,206.022,123.092,206.064z"/>
	<path fill="#FFFFFF" d="M109.396,207.23c-0.805,0.017-1.877,0.071-2.95,0.02c-1.073-0.027-2.146-0.054-2.95-0.074
		c-0.805-0.015-1.34-0.047-1.34-0.047l-0.189,3.55c0,0,0.554,0.032,1.387,0.049c0.833,0.021,1.943,0.049,3.053,0.077
		c1.11,0.052,2.221-0.003,3.054-0.02c0.832-0.021,1.388-0.035,1.388-0.035l-0.112-3.553
		C110.736,207.197,110.2,207.211,109.396,207.23z"/>
	<path fill="#FFFFFF" d="M93.71,206.301c-1.067-0.114-2.123-0.302-2.914-0.451c-0.792-0.142-1.32-0.235-1.32-0.235l-0.64,3.496
		c0,0,0.546,0.098,1.367,0.244c0.819,0.153,1.913,0.348,3.018,0.467c1.102,0.141,2.204,0.28,3.03,0.385
		c0.825,0.118,1.381,0.144,1.381,0.144l0.337-3.539c0,0-0.537-0.023-1.333-0.138C95.838,206.571,94.774,206.436,93.71,206.301z"/>
	<path fill="#FFFFFF" d="M82.717,204.16c-0.484-0.137-1-0.281-1.517-0.427c-1.032-0.293-2.064-0.586-2.838-0.806
		c-0.389-0.104-0.706-0.212-0.928-0.289c-0.222-0.075-0.349-0.118-0.349-0.118L76,205.905c0,0,0.132,0.045,0.362,0.123
		c0.23,0.079,0.559,0.191,0.961,0.299c0.802,0.228,1.871,0.531,2.939,0.835c0.535,0.15,1.07,0.301,1.571,0.441
		c0.507,0.117,0.981,0.227,1.387,0.32c0.812,0.188,1.353,0.313,1.353,0.313l0.788-3.466c0,0-0.522-0.121-1.307-0.302
		C83.664,204.378,83.207,204.272,82.717,204.16z"/>
	<path fill="#FFFFFF" d="M66.424,198.396c-0.733-0.332-1.222-0.553-1.222-0.553l-1.512,3.217c0,0,0.506,0.229,1.266,0.572
		c0.763,0.336,1.764,0.82,2.792,1.24c2.067,0.815,4.135,1.63,4.135,1.63l1.228-3.336c0,0-1.996-0.786-3.992-1.573
		C68.127,199.188,67.161,198.719,66.424,198.396z"/>
	<path fill="#FFFFFF" d="M57.689,193.9c-1.882-1.031-3.666-2.229-3.666-2.229l-1.912,2.997c0,0,1.847,1.237,3.796,2.309
		c0.966,0.549,1.92,1.118,2.655,1.512c0.742,0.38,1.236,0.633,1.236,0.633l1.647-3.149c0,0-0.478-0.245-1.194-0.611
		C59.543,194.981,58.622,194.431,57.689,193.9z"/>
	<path fill="#FFFFFF" d="M47.063,186.813c-0.843-0.662-1.687-1.325-2.319-1.822c-0.64-0.487-1.037-0.85-1.037-0.85l-2.278,2.729
		c0,0,0.411,0.374,1.073,0.88c0.655,0.515,1.528,1.201,2.402,1.888c0.86,0.704,1.782,1.325,2.457,1.813
		c0.679,0.483,1.132,0.805,1.132,0.805l2.036-2.913c0,0-0.437-0.312-1.093-0.777C48.784,188.094,47.893,187.495,47.063,186.813z"/>
	<path fill="#FFFFFF" d="M35.374,176.313c-0.556-0.582-0.926-0.971-0.926-0.971l-2.606,2.417c0,0,0.383,0.402,0.958,1.005
		c0.583,0.596,1.324,1.425,2.126,2.193c1.608,1.533,3.217,3.066,3.217,3.066l2.391-2.631c0,0-1.553-1.48-3.106-2.961
		C36.652,177.688,35.937,176.887,35.374,176.313z"/>
	<path fill="#FFFFFF" d="M28.953,168.872c-0.66-0.847-1.341-1.676-1.79-2.345c-0.466-0.656-0.777-1.093-0.777-1.093l-2.893,2.065
		c0,0,0.322,0.452,0.805,1.131c0.466,0.692,1.17,1.552,1.853,2.428c0.69,0.871,1.364,1.755,1.897,2.395
		c0.545,0.63,0.909,1.05,0.909,1.05l2.706-2.306c0,0-0.352-0.405-0.878-1.013C30.269,170.566,29.62,169.712,28.953,168.872z"/>
	<path fill="#FFFFFF" d="M23.294,160.841c-0.431-0.68-1.031-1.569-1.546-2.511c-0.535-0.93-1.069-1.859-1.47-2.557
		c-0.412-0.691-0.644-1.176-0.644-1.176l-3.133,1.679c0,0,0.241,0.501,0.667,1.218c0.415,0.722,0.969,1.685,1.522,2.647
		c0.535,0.976,1.155,1.897,1.602,2.601c0.449,0.701,0.749,1.169,0.749,1.169l2.978-1.941
		C24.018,161.97,23.728,161.518,23.294,160.841z"/>
	<path fill="#FFFFFF" d="M15.949,146.949c-0.448-0.975-0.801-1.989-1.109-2.732c-0.295-0.749-0.492-1.248-0.492-1.248l-3.323,1.262
		c0,0,0.204,0.518,0.509,1.293c0.318,0.77,0.686,1.82,1.149,2.83c0.917,2.024,1.833,4.049,1.833,4.049l3.202-1.544
		C17.718,150.858,16.833,148.903,15.949,146.949z"/>
	<path fill="#FFFFFF" d="M12.518,137.742c-0.27-0.758-0.526-1.802-0.831-2.83c-0.283-1.034-0.609-2.058-0.784-2.843
		c-0.181-0.784-0.301-1.307-0.301-1.307l-3.458,0.823c0,0,0.125,0.541,0.313,1.353c0.182,0.813,0.518,1.874,0.812,2.946
		c0.315,1.065,0.582,2.146,0.861,2.932c0.267,0.789,0.445,1.315,0.445,1.315l3.374-1.12
		C12.948,139.012,12.776,138.504,12.518,137.742z"/>
	<path fill="#FFFFFF" d="M8.973,122.436c-0.271-2.129-0.541-4.257-0.541-4.257l-3.535,0.372c0,0,0.28,2.205,0.56,4.409
		c0.354,2.193,0.763,4.378,0.763,4.378l3.49-0.676C9.709,126.662,9.315,124.553,8.973,122.436z"/>
	<path fill="#FFFFFF" d="M7.997,112.653c-0.021-0.805-0.047-1.877-0.074-2.95c-0.021-1.072-0.076-2.145-0.032-2.949
		c0.021-0.804,0.034-1.34,0.034-1.34l-3.554-0.077c0,0-0.014,0.555-0.035,1.388c-0.044,0.833,0.01,1.943,0.032,3.053
		c0.028,1.11,0.057,2.22,0.078,3.053c0.06,0.831,0.101,1.385,0.101,1.385l3.547-0.225C8.094,113.99,8.055,113.455,7.997,112.653z"/>
	<path fill="#FFFFFF" d="M8.196,99.881c0.072-0.801,0.118-1.875,0.247-2.94c0.271-2.128,0.541-4.257,0.541-4.257l-3.516-0.528
		c0,0-0.28,2.205-0.56,4.409c-0.133,1.103-0.183,2.214-0.257,3.044c-0.063,0.831-0.105,1.385-0.105,1.385l3.547,0.224
		C8.094,101.218,8.135,100.683,8.196,99.881z"/>
	<path fill="#FFFFFF" d="M9.96,87.229c0.181-0.784,0.422-1.829,0.664-2.874c0.229-1.048,0.485-2.089,0.723-2.859
		c0.22-0.773,0.366-1.29,0.366-1.29l-3.418-0.975c0,0-0.152,0.534-0.379,1.336c-0.246,0.797-0.511,1.875-0.75,2.961
		c-0.25,1.083-0.5,2.166-0.687,2.978C6.303,87.32,6.22,87.87,6.22,87.87l3.49,0.676C9.709,88.546,9.79,88.015,9.96,87.229z"/>
	<path fill="#FFFFFF" d="M13.377,74.927c0.255-0.763,0.59-1.782,1.004-2.772c0.393-0.998,0.787-1.995,1.082-2.744
		c0.282-0.753,0.523-1.234,0.523-1.234l-3.264-1.407c0,0-0.248,0.498-0.542,1.278c-0.306,0.775-0.713,1.809-1.121,2.842
		c-0.427,1.026-0.775,2.082-1.04,2.872c-0.267,0.79-0.445,1.315-0.445,1.315l3.374,1.12C12.948,76.197,13.12,75.689,13.377,74.927z"
		/>
	<path fill="#FFFFFF" d="M19.675,60.531c0.493-0.953,1.058-1.866,1.45-2.569c0.401-0.698,0.668-1.163,0.668-1.163l-3.057-1.815
		c0,0-0.277,0.481-0.692,1.204c-0.406,0.728-0.99,1.674-1.501,2.661c-1.013,1.978-2.026,3.956-2.026,3.956l3.201,1.544
		C17.718,64.35,18.697,62.44,19.675,60.531z"/>
	<path fill="#FFFFFF" d="M24.741,52.11c0.444-0.67,1.083-1.534,1.699-2.412c1.209-1.774,2.57-3.435,2.57-3.435l-2.8-2.19
		c0,0-1.408,1.72-2.661,3.557c-0.639,0.909-1.299,1.803-1.759,2.498c-0.45,0.701-0.75,1.169-0.75,1.169l2.978,1.942
		C24.018,53.24,24.307,52.788,24.741,52.11z"/>
	<path fill="#FFFFFF" d="M34.51,39.802c0.741-0.777,1.481-1.553,2.036-2.136c0.546-0.591,0.945-0.951,0.945-0.951l-2.499-2.528
		c0,0-0.413,0.373-0.979,0.984c-0.575,0.603-1.342,1.407-2.108,2.211c-0.783,0.789-1.491,1.647-2.04,2.273
		c-0.545,0.63-0.909,1.05-0.909,1.05l2.706,2.306c0,0,0.352-0.406,0.878-1.014C33.071,41.392,33.753,40.563,34.51,39.802z"/>
	<path fill="#FFFFFF" d="M46.082,29.167c0.632-0.497,1.054-0.829,1.054-0.829l-2.157-2.826c0,0-0.437,0.343-1.092,0.858
		c-0.648,0.522-1.543,1.183-2.386,1.906c-1.679,1.455-3.358,2.909-3.358,2.909l2.391,2.631c0,0,1.622-1.405,3.243-2.809
		C44.59,30.308,45.456,29.672,46.082,29.167z"/>
	<path fill="#FFFFFF" d="M57.768,21.263l-1.778-3.078c0,0-1.951,1.068-3.798,2.305c-0.933,0.604-1.877,1.189-2.565,1.659
		c-0.679,0.483-1.132,0.805-1.132,0.805l2.036,2.914c0,0,0.437-0.311,1.092-0.777c0.665-0.453,1.578-1.018,2.478-1.602
		C55.883,22.292,57.768,21.263,57.768,21.263z"/>
	<path fill="#FFFFFF" d="M67.975,16.111c0.729-0.342,1.231-0.53,1.231-0.53L67.838,12.3c0,0-0.521,0.195-1.275,0.549
		c-0.759,0.343-1.772,0.801-2.784,1.259c-1.022,0.437-1.998,0.971-2.743,1.345c-0.741,0.38-1.236,0.633-1.236,0.633l1.646,3.15
		c0,0,0.478-0.245,1.193-0.611c0.719-0.361,1.66-0.878,2.647-1.299C66.265,16.884,67.242,16.442,67.975,16.111z"/>
	<path fill="#FFFFFF" d="M74.378,13.604c0.762-0.258,1.778-0.602,2.793-0.945c1.009-0.367,2.057-0.605,2.826-0.842
		c0.773-0.22,1.29-0.366,1.29-0.366l-0.935-3.43c0,0-0.534,0.151-1.336,0.379c-0.796,0.244-1.881,0.494-2.927,0.873
		c-1.053,0.356-2.105,0.712-2.894,0.979c-0.79,0.266-1.313,0.454-1.313,0.454l1.228,3.336C73.111,14.042,73.616,13.86,74.378,13.604
		z"/>
	<path fill="#FFFFFF" d="M89.565,9.579c1.057-0.187,2.113-0.374,2.905-0.514C93.268,8.964,93.8,8.896,93.8,8.896l-0.486-3.521
		c0,0-0.551,0.07-1.377,0.175c-0.821,0.145-1.915,0.338-3.009,0.531c-2.196,0.347-4.353,0.891-4.353,0.891l0.788,3.466
		C85.363,10.438,87.444,9.912,89.565,9.579z"/>
	<path fill="#FFFFFF" d="M102.248,8.072c2.146-0.058,4.291-0.116,4.291-0.116l-0.035-3.555c0,0-2.221,0.061-4.441,0.121
		c-2.215,0.168-4.431,0.337-4.431,0.337l0.337,3.539C97.969,8.398,100.108,8.235,102.248,8.072z"/>
	<path fill="#FFFFFF" d="M117.962,8.474c0.799,0.102,1.331,0.169,1.331,0.169l0.414-3.53c0,0-0.551-0.07-1.377-0.175
		c-0.829-0.087-1.938-0.154-3.046-0.244c-2.213-0.211-4.436-0.235-4.436-0.235l-0.112,3.553c0,0,2.147,0.021,4.285,0.228
		C116.091,8.326,117.162,8.39,117.962,8.474z"/>
	<path fill="#FFFFFF" d="M131.857,10.931l0.864-3.448c0,0-2.165-0.5-4.329-0.999c-2.188-0.392-4.374-0.784-4.374-0.784l-0.563,3.51
		c0,0,2.111,0.378,4.223,0.756C129.768,10.448,131.857,10.931,131.857,10.931z"/>
	<path fill="#FFFFFF" d="M139.987,13.36c1.018,0.342,2.036,0.678,2.777,0.993c0.748,0.295,1.247,0.492,1.247,0.492l1.302-3.308
		c0,0-0.517-0.204-1.292-0.509c-0.769-0.325-1.823-0.674-2.877-1.029c-1.053-0.356-2.105-0.712-2.895-0.979
		c-0.802-0.229-1.336-0.38-1.336-0.38l-1.01,3.408c0,0,0.516,0.146,1.289,0.366C137.956,12.672,138.972,13.017,139.987,13.36z"/>
	<path fill="#FFFFFF" d="M151.772,18.28c0.955,0.489,1.91,0.978,2.626,1.344c0.722,0.356,1.18,0.637,1.18,0.637l1.716-3.113
		c0,0-0.475-0.291-1.222-0.66c-0.742-0.38-1.73-0.886-2.72-1.393c-0.979-0.526-2-0.965-2.759-1.311
		c-0.759-0.343-1.266-0.572-1.266-0.572l-1.44,3.25c0,0,0.488,0.221,1.222,0.552C149.842,17.349,150.828,17.771,151.772,18.28z"/>
	<path fill="#FFFFFF" d="M165.247,26.358c0.655,0.466,1.093,0.777,1.093,0.777l2.1-2.869c0,0-0.453-0.322-1.132-0.805
		c-0.686-0.474-1.57-1.147-2.504-1.749c-1.871-1.199-3.741-2.397-3.741-2.397l-1.846,3.038c0,0,1.807,1.158,3.612,2.315
		C163.731,25.249,164.585,25.901,165.247,26.358z"/>
	<path fill="#FFFFFF" d="M172.966,32.442c1.65,1.373,3.174,2.887,3.174,2.887l2.447-2.578c0,0-1.578-1.566-3.286-2.989
		c-0.844-0.723-1.671-1.465-2.318-1.99c-0.655-0.515-1.092-0.858-1.092-0.858l-2.218,2.778c0,0,0.422,0.332,1.055,0.829
		C171.353,31.027,172.151,31.745,172.966,32.442z"/>
	<path fill="#FFFFFF" d="M182.048,41.422c0.702,0.811,1.404,1.622,1.932,2.23c0.536,0.601,0.855,1.032,0.855,1.032l2.756-2.246
		c0,0-0.331-0.447-0.887-1.069c-0.545-0.63-1.272-1.47-2-2.31c-0.711-0.854-1.495-1.642-2.067-2.248
		c-0.575-0.603-0.958-1.005-0.958-1.005l-2.554,2.473c0,0,0.37,0.388,0.926,0.971C180.603,39.836,181.361,40.596,182.048,41.422z"/>
	<path fill="#FFFFFF" d="M189.915,51.484c0.618,0.877,1.168,1.799,1.611,2.471c0.435,0.677,0.724,1.129,0.724,1.129l3.02-1.876
		c0,0-0.3-0.468-0.749-1.169c-0.459-0.696-1.03-1.65-1.669-2.559c-1.288-1.811-2.576-3.622-2.576-3.622l-2.847,2.128
		C187.429,47.986,188.672,49.735,189.915,51.484z"/>
	<path fill="#FFFFFF" d="M195.054,59.863c0.39,0.703,0.862,1.667,1.356,2.619c1.017,1.891,1.861,3.864,1.861,3.864l3.234-1.474
		c0,0-0.876-2.043-1.928-4.002c-0.512-0.986-1.002-1.983-1.405-2.712c-0.415-0.722-0.691-1.204-0.691-1.204l-3.096,1.747
		C194.386,58.701,194.653,59.166,195.054,59.863z"/>
	<path fill="#FFFFFF" d="M200.425,71.447c0.283,0.753,0.72,1.735,1.04,2.76c0.344,1.016,0.688,2.032,0.945,2.794
		c0.129,0.381,0.236,0.699,0.312,0.921c0.065,0.225,0.103,0.354,0.103,0.354l3.398-1.044c0,0-0.039-0.133-0.107-0.367
		c-0.077-0.23-0.188-0.56-0.322-0.954c-0.267-0.79-0.623-1.842-0.979-2.895c-0.333-1.061-0.782-2.08-1.076-2.859
		c-0.306-0.775-0.51-1.292-0.51-1.292l-3.294,1.335C199.934,70.2,200.13,70.699,200.425,71.447z"/>
	<path fill="#FFFFFF" d="M204.073,82.672c0.053,0.229,0.128,0.555,0.219,0.947c0.181,0.784,0.422,1.829,0.663,2.874
		c0.266,1.04,0.422,2.103,0.57,2.893c0.142,0.792,0.235,1.32,0.235,1.32l3.504-0.599c0,0-0.098-0.546-0.244-1.367
		c-0.153-0.819-0.317-1.919-0.59-2.997c-0.25-1.083-0.5-2.165-0.688-2.977c-0.095-0.406-0.173-0.744-0.228-0.981
		c-0.066-0.233-0.104-0.367-0.104-0.367l-3.439,0.899C203.972,82.317,204.009,82.446,204.073,82.672z"/>
	<path fill="#FFFFFF" d="M206.546,96.187c0.12,0.796,0.217,1.864,0.286,2.935c0.081,1.069,0.162,2.139,0.224,2.941
		c0.038,0.4,0.038,0.736,0.045,0.971c0.006,0.235,0.01,0.369,0.01,0.369l3.552-0.147c0,0-0.004-0.139-0.01-0.381
		c-0.008-0.243-0.008-0.59-0.047-1.005c-0.063-0.831-0.147-1.938-0.231-3.045c-0.072-1.109-0.173-2.214-0.296-3.039
		c-0.105-0.827-0.175-1.377-0.175-1.377l-3.526,0.45C206.377,94.857,206.444,95.389,206.546,96.187z"/>
	<ellipse fill="#FFFFFF" cx="107.543" cy="110.142" rx="15.261" ry="15.228"/>
	<path fill="#FFFFFF" d="M66.848,86.032v50.758c0,2.103,1.708,3.808,3.815,3.808h73.759c2.106,0,3.814-1.705,3.814-3.808V86.032
		c0-2.103-1.708-3.807-3.814-3.807h-16.224l-6.478-6.463l-0.004,0.003c-0.693-0.71-1.658-1.154-2.729-1.154H96.098
		c-1.241,0-2.333,0.601-3.03,1.518l-6.109,6.096H70.664C68.557,82.225,66.848,83.929,66.848,86.032z M107.543,87.301
		c12.643,0,22.891,10.227,22.891,22.842c0,12.615-10.248,22.841-22.891,22.841s-22.891-10.226-22.891-22.841
		C84.652,97.528,94.9,87.301,107.543,87.301z"/>
</g>
</svg>
