<?xml version="1.0" encoding="utf-8"?>
<!-- Generator: Adobe Illustrator 16.0.0, SVG Export Plug-In . SVG Version: 6.00 Build 0)  -->
<!DOCTYPE svg PUBLIC "-//W3C//DTD SVG 1.1//EN" "http://www.w3.org/Graphics/SVG/1.1/DTD/svg11.dtd">
<svg version="1.1" id="Layer_1" xmlns="http://www.w3.org/2000/svg" xmlns:xlink="http://www.w3.org/1999/xlink" x="0px" y="0px"
	 width="58px" height="58px" viewBox="0 0 58 58" enable-background="new 0 0 58 58" xml:space="preserve">
<g>
	<g>
		<path fill="#498ECC" d="M42.346,20.757c-4.332-0.982-5.403-1.607-5.403-3.037v-0.089c0-1.117,1.027-2.01,3.126-2.01
			c2.769,0,5.895,1.072,8.752,3.081l4.332-6.117c-3.395-2.724-7.547-4.153-12.86-4.153c-5.227,0-9.041,2.038-10.876,5.236
			c-3.019-2.95-7.56-4.7-13.379-4.7H3.98v31.258h11.878c10.458,0,16.862-5.787,17.716-13.846c1.828,0.831,4.018,1.422,6.405,1.967
			c4.242,0.982,5.269,1.697,5.269,2.992v0.09c0,1.339-1.25,2.143-3.572,2.143c-2.749,0-5.396-0.75-7.859-2.188
			c-1.042,2.35-2.62,4.392-4.686,6.02c3.502,2.229,7.78,3.357,12.232,3.357C48.954,40.762,54,36.966,54,30.58v-0.088
			C54,24.642,49.535,22.32,42.346,20.757z M24.789,24.642c0,5.045-3.438,7.904-8.618,7.904h-3.528V16.649h3.528
			c5.18,0,8.618,2.902,8.618,7.904V24.642z"/>
	</g>
	<g>
		<g>
			<path fill="#498ECC" d="M3.98,46.534v-0.02c0-1.644,1.118-2.573,2.302-2.573c0.817,0,1.333,0.413,1.69,0.873v-2.668h1.137v6.858
				H7.972v-0.827c-0.366,0.517-0.883,0.931-1.69,0.931C5.117,49.108,3.98,48.178,3.98,46.534z M7.991,46.534v-0.02
				c0-0.958-0.676-1.587-1.438-1.587c-0.78,0-1.428,0.601-1.428,1.587v0.02c0,0.958,0.658,1.587,1.428,1.587
				C7.315,48.121,7.991,47.482,7.991,46.534z"/>
			<path fill="#498ECC" d="M9.614,42.146h1.221v1.081H9.614V42.146z M9.661,44.044h1.137v4.961H9.661V44.044z"/>
			<path fill="#498ECC" d="M11.251,46.543v-0.019c0-1.418,1.005-2.583,2.424-2.583c1.578,0,2.376,1.239,2.376,2.667
				c0,0.104-0.01,0.207-0.019,0.32h-3.645c0.122,0.808,0.695,1.259,1.428,1.259c0.554,0,0.949-0.207,1.343-0.592l0.667,0.592
				c-0.469,0.563-1.118,0.93-2.029,0.93C12.359,49.117,11.251,48.074,11.251,46.543z M14.924,46.177
				c-0.075-0.732-0.507-1.306-1.258-1.306c-0.695,0-1.184,0.535-1.288,1.306H14.924z"/>
			<path fill="#498ECC" d="M16.586,47.633v-2.611h-0.629v-0.978h0.629v-1.361h1.137v1.361h1.334v0.978h-1.334v2.433
				c0,0.441,0.226,0.62,0.611,0.62c0.253,0,0.479-0.057,0.705-0.169v0.93c-0.282,0.16-0.602,0.254-1.024,0.254
				C17.178,49.089,16.586,48.723,16.586,47.633z"/>
			<path fill="#498ECC" d="M22.392,49.005v-0.61c-0.338,0.403-0.855,0.714-1.606,0.714c-0.939,0-1.767-0.536-1.767-1.532v-0.019
				c0-1.099,0.855-1.625,2.011-1.625c0.601,0,0.986,0.085,1.372,0.207v-0.095c0-0.686-0.432-1.062-1.221-1.062
				c-0.554,0-0.968,0.123-1.418,0.311l-0.31-0.911c0.545-0.244,1.08-0.414,1.888-0.414c1.465,0,2.18,0.771,2.18,2.096v2.94H22.392z
				 M22.42,46.929c-0.291-0.113-0.695-0.197-1.136-0.197c-0.714,0-1.137,0.291-1.137,0.77v0.02c0,0.47,0.422,0.732,0.958,0.732
				c0.751,0,1.315-0.423,1.315-1.043V46.929z"/>
		</g>
		<g>
			<path fill="#498ECC" d="M28.992,48.356l0.508-0.771c0.535,0.404,1.117,0.61,1.625,0.61c0.488,0,0.77-0.206,0.77-0.535v-0.019
				c0-0.386-0.525-0.517-1.108-0.695c-0.732-0.207-1.55-0.508-1.55-1.456v-0.019c0-0.939,0.779-1.513,1.766-1.513
				c0.62,0,1.297,0.216,1.823,0.563l-0.451,0.808c-0.479-0.291-0.986-0.47-1.399-0.47c-0.442,0-0.695,0.207-0.695,0.498v0.02
				c0,0.356,0.535,0.507,1.118,0.694c0.724,0.226,1.54,0.555,1.54,1.447v0.019c0,1.043-0.808,1.559-1.841,1.559
				C30.392,49.098,29.612,48.845,28.992,48.356z"/>
			<path fill="#498ECC" d="M36.557,49.005v-0.61c-0.339,0.403-0.855,0.714-1.606,0.714c-0.94,0-1.767-0.536-1.767-1.532v-0.019
				c0-1.099,0.855-1.625,2.011-1.625c0.601,0,0.986,0.085,1.371,0.207v-0.095c0-0.686-0.432-1.062-1.222-1.062
				c-0.554,0-0.967,0.123-1.418,0.311l-0.31-0.911c0.545-0.244,1.08-0.414,1.888-0.414c1.466,0,2.18,0.771,2.18,2.096v2.94H36.557z
				 M36.584,46.929c-0.291-0.113-0.694-0.197-1.137-0.197c-0.713,0-1.137,0.291-1.137,0.77v0.02c0,0.47,0.424,0.732,0.959,0.732
				c0.751,0,1.314-0.423,1.314-1.043V46.929z"/>
			<path fill="#498ECC" d="M38.017,47.201v-3.157h1.137v2.818c0,0.771,0.385,1.212,1.062,1.212c0.657,0,1.118-0.46,1.118-1.23v-2.8
				h1.137v4.961h-1.137v-0.771c-0.319,0.47-0.779,0.874-1.55,0.874C38.665,49.108,38.017,48.356,38.017,47.201z M40.76,41.874
				l1.033,0.461l-1.155,1.08h-0.854L40.76,41.874z"/>
			<path fill="#498ECC" d="M42.798,46.534v-0.02c0-1.644,1.118-2.573,2.302-2.573c0.817,0,1.334,0.413,1.691,0.873v-2.668h1.137
				v6.858h-1.137v-0.827c-0.367,0.517-0.884,0.931-1.691,0.931C43.935,49.108,42.798,48.178,42.798,46.534z M46.81,46.534v-0.02
				c0-0.958-0.677-1.587-1.438-1.587c-0.779,0-1.428,0.601-1.428,1.587v0.02c0,0.958,0.657,1.587,1.428,1.587
				C46.133,48.121,46.81,47.482,46.81,46.534z"/>
			<path fill="#498ECC" d="M48.229,46.543v-0.019c0-1.418,1.005-2.583,2.423-2.583c1.578,0,2.377,1.239,2.377,2.667
				c0,0.104-0.01,0.207-0.019,0.32h-3.646c0.122,0.808,0.695,1.259,1.428,1.259c0.555,0,0.949-0.207,1.344-0.592l0.667,0.592
				c-0.47,0.563-1.118,0.93-2.029,0.93C49.336,49.117,48.229,48.074,48.229,46.543z M51.901,46.177
				c-0.075-0.732-0.508-1.306-1.259-1.306c-0.695,0-1.184,0.535-1.287,1.306H51.901z"/>
		</g>
		<g>
			<path fill="#FCB550" d="M27.144,48.248c0.62-0.245,0.956-0.672,1.171-1.201l0.567,0.209c-0.253,0.687-0.668,1.245-1.524,1.584
				c-1.24,0.492-2.63-0.059-3.188-1.464c-0.52-1.31-0.018-2.722,1.231-3.217c1.335-0.529,2.527,0.231,3.053,1.559
				c0.024,0.062,0.052,0.131,0.085,0.239l-3.581,1.419C25.432,48.29,26.349,48.563,27.144,48.248z M27.652,45.683
				c-0.404-0.79-1.153-1.302-2.044-0.948c-0.777,0.308-1.115,1.189-0.865,2.101L27.652,45.683z"/>
		</g>
	</g>
</g>
</svg>
