<?xml version="1.0" encoding="utf-8"?>
<!-- Generator: Adobe Illustrator 15.0.0, SVG Export Plug-In . SVG Version: 6.00 Build 0)  -->
<!DOCTYPE svg PUBLIC "-//W3C//DTD SVG 1.1//EN" "http://www.w3.org/Graphics/SVG/1.1/DTD/svg11.dtd">
<svg version="1.1" id="Layer_1" xmlns="http://www.w3.org/2000/svg" xmlns:xlink="http://www.w3.org/1999/xlink" x="0px" y="0px"
	 width="25.249px" height="26.199px" viewBox="0 0 25.249 26.199" enable-background="new 0 0 25.249 26.199" xml:space="preserve">
<g>
	<path fill="#999999" d="M23.162,1h-0.898c0.023-0.074,0.043-0.148,0.043-0.23c0-0.426-0.344-0.77-0.766-0.77
		c-0.426,0-0.77,0.344-0.77,0.77c0,0.082,0.023,0.156,0.047,0.23h-2.945c0.023-0.074,0.047-0.148,0.047-0.23
		c0-0.426-0.344-0.77-0.77-0.77c-0.425,0-0.77,0.344-0.77,0.77c0,0.082,0.023,0.156,0.047,0.23h-2.945
		c0.023-0.074,0.047-0.148,0.047-0.23c0-0.426-0.344-0.77-0.77-0.77c-0.009,0-0.015,0.003-0.022,0.005
		C12.73,0.003,12.723,0,12.714,0c-0.426,0-0.77,0.344-0.77,0.77c0,0.082,0.023,0.156,0.047,0.23H9.045
		c0.023-0.074,0.046-0.148,0.046-0.23C9.092,0.344,8.749,0,8.323,0c-0.426,0-0.77,0.344-0.77,0.77C7.553,0.852,7.577,0.926,7.6,1
		H4.655c0.023-0.074,0.047-0.148,0.047-0.23C4.702,0.344,4.357,0,3.932,0C3.51,0,3.167,0.344,3.167,0.77
		c0,0.082,0.019,0.156,0.043,0.23H2.311C1.1,1,0.112,1.988,0.112,3.199V24c0,1.215,0.988,2.199,2.199,2.199h10.385h0.083h10.384
		c1.211,0,2.199-0.984,2.199-2.199V3.199C25.361,1.988,24.373,1,23.162,1z M24.162,24c0,0.551-0.449,1-1,1H12.778h-0.083H2.311
		c-0.551,0-1-0.449-1-1V7.199h11.385h0.083h11.384V24z"/>
	<path fill="#999999" d="M7.387,16.053c0,2.91,2.339,5.269,5.225,5.269c2.884,0,5.223-2.358,5.223-5.269
		c0-2.909-2.339-5.267-5.223-5.267C9.726,10.786,7.387,13.144,7.387,16.053z M15.375,15.574l0.441-0.445
		c0.084,0.296,0.143,0.602,0.143,0.924c0,1.865-1.499,3.377-3.348,3.377c-0.32,0-0.624-0.06-0.917-0.145l0.441-0.445
		c0.155,0.027,0.313,0.049,0.476,0.049c1.553,0,2.812-1.27,2.812-2.836C15.423,15.889,15.401,15.73,15.375,15.574z M13.116,13.269
		c-0.164-0.03-0.332-0.052-0.505-0.052c-1.554,0-2.814,1.27-2.814,2.836c0,0.175,0.021,0.345,0.051,0.511l-0.436,0.439
		c-0.088-0.304-0.151-0.618-0.151-0.95c0-1.864,1.5-3.377,3.349-3.377c0.329,0,0.641,0.063,0.941,0.152L13.116,13.269z"/>
	<path fill="#999999" d="M6.561,13.141c-0.007,0.175-0.082,0.318-0.169,0.318s-0.162-0.144-0.169-0.318
		c-0.037-1.012-0.124-2.879-0.227-2.879c-0.102,0-0.19,1.867-0.227,2.879c-0.006,0.175-0.082,0.318-0.168,0.318
		c-0.087,0-0.163-0.144-0.168-0.318c-0.037-1.012-0.125-2.879-0.227-2.879s-0.189,1.867-0.226,2.879
		c-0.007,0.175-0.082,0.318-0.169,0.318c-0.088,0-0.162-0.144-0.169-0.318c-0.036-1.012-0.124-2.879-0.227-2.879
		c-0.135,0-0.245,3.251-0.245,3.497c0,0.674,0.579,0.957,1.015,0.993c0,2.156-0.34,5.394-0.34,5.821
		c0,0.562,0.339,1.019,0.756,1.019s0.754-0.457,0.754-1.019c0-0.428-0.339-3.735-0.339-5.821c0.435-0.036,1.014-0.319,1.014-0.993
		c0-0.245-0.11-3.497-0.245-3.497C6.684,10.261,6.597,12.128,6.561,13.141z"/>
	<path fill="#999999" d="M18.738,20.572c0,0.562,0.338,1.019,0.753,1.019c0.417,0,0.755-0.457,0.755-1.019
		c0-0.275-0.08-2.343-0.212-4.229v-5.916c0-0.176-0.12-0.235-0.252-0.113c-0.457,0.421-1.381,1.524-1.381,3.566
		c0,0.824,0.357,1.762,0.729,2.319C18.987,18.166,18.738,20.284,18.738,20.572z"/>
</g>
</svg>
