<?xml version="1.0" encoding="utf-8"?>
<!-- Generator: Adobe Illustrator 16.0.0, SVG Export Plug-In . SVG Version: 6.00 Build 0)  -->
<!DOCTYPE svg PUBLIC "-//W3C//DTD SVG 1.1//EN" "http://www.w3.org/Graphics/SVG/1.1/DTD/svg11.dtd">
<svg version="1.1" id="Layer_1" xmlns="http://www.w3.org/2000/svg" xmlns:xlink="http://www.w3.org/1999/xlink" x="0px" y="0px"
	 width="57.25px" height="57.25px" viewBox="0 0 57.25 57.25" enable-background="new 0 0 57.25 57.25" xml:space="preserve">
<g>
	<path fill="#FCBA62" d="M57.25,28.461c0,15.71-12.734,28.451-28.447,28.451c-15.711,0-28.448-12.741-28.448-28.451
		C0.355,12.74,13.087,0,28.803,0C44.516,0,57.25,12.744,57.25,28.461z"/>
</g>
<g>
	<path fill="#333333" d="M47.466,29.615h-6.601c-0.828,0-1.5,0.67-1.5,1.501c0,0.826,0.672,1.502,1.5,1.502h6.601
		c0.831,0,1.501-0.676,1.501-1.502C48.967,30.285,48.297,29.615,47.466,29.615z"/>
	<path fill="#333333" d="M17.457,31.244c0-0.833-0.672-1.504-1.501-1.504H9.355c-0.829,0-1.501,0.671-1.501,1.504
		c0,0.824,0.673,1.498,1.501,1.498h6.601C16.784,32.742,17.457,32.068,17.457,31.244z"/>
	<path fill="#333333" d="M42.41,46.347c-1.731-0.713-2.909-2.381-3.009-4.247c-0.099-1.871,0.903-3.654,2.548-4.54
		c0.417-0.225,0.643-0.657,0.619-1.099c-0.009-0.171-0.056-0.338-0.139-0.497c-0.308-0.572-1.022-0.79-1.595-0.481
		c-1.985,1.069-3.319,3.014-3.683,5.188c-0.15-0.063-0.316-0.102-0.49-0.102H21.544c-0.421-2.242-1.886-4.212-3.989-5.21
		c-0.589-0.279-1.29-0.031-1.566,0.555c-0.282,0.587-0.028,1.293,0.554,1.573c1.692,0.8,2.781,2.527,2.781,4.397
		c0,1.876-1.092,3.602-2.783,4.398c-0.427,0.205-0.675,0.626-0.675,1.067c0,0.173,0.037,0.34,0.114,0.503
		c0.276,0.586,0.977,0.843,1.566,0.564c2.148-1.017,3.639-3.041,4.027-5.343h15.09c0.17,0,0.332-0.035,0.48-0.097
		c0.395,2.454,2.04,4.587,4.367,5.546c0.604,0.247,1.289-0.037,1.537-0.639C43.298,47.288,43.006,46.596,42.41,46.347z"/>
</g>
</svg>
