<?xml version="1.0" encoding="utf-8"?>
<!-- Generator: Adobe Illustrator 16.0.0, SVG Export Plug-In . SVG Version: 6.00 Build 0)  -->
<!DOCTYPE svg PUBLIC "-//W3C//DTD SVG 1.1//EN" "http://www.w3.org/Graphics/SVG/1.1/DTD/svg11.dtd">
<svg version="1.1" id="Layer_1" xmlns="http://www.w3.org/2000/svg" xmlns:xlink="http://www.w3.org/1999/xlink" x="0px" y="0px"
	 width="57.25px" height="57.25px" viewBox="0 0 57.25 57.25" enable-background="new 0 0 57.25 57.25" xml:space="preserve">
<g>
	<path fill="#FEEA96" d="M57.279,28.756c0,15.707-12.731,28.455-28.447,28.455c-15.711,0-28.447-12.748-28.447-28.455
		c0-15.715,12.736-28.457,28.447-28.457C44.548,0.299,57.279,13.042,57.279,28.756z"/>
</g>
<g>
	<path fill="#333333" d="M14.457,24.571c-1.783,0-3.219,1.434-3.219,3.217c0,1.777,1.436,3.216,3.219,3.216
		c1.773,0,3.218-1.439,3.218-3.216C17.675,26.004,16.23,24.571,14.457,24.571z"/>
	<path fill="#333333" d="M43.525,24.571c-1.779,0-3.219,1.434-3.219,3.217c0,1.777,1.439,3.216,3.219,3.216
		c1.777,0,3.22-1.439,3.22-3.216C46.745,26.004,45.303,24.571,43.525,24.571z"/>
	<path fill="#333333" d="M38.291,37.131H19.688c-0.831,0-1.502,0.664-1.502,1.5c0,0.828,0.671,1.5,1.502,1.5h18.604
		c0.828,0,1.502-0.672,1.502-1.5C39.793,37.795,39.119,37.131,38.291,37.131z"/>
</g>
</svg>
