<?xml version="1.0" encoding="utf-8"?>
<!-- Generator: Adobe Illustrator 16.0.0, SVG Export Plug-In . SVG Version: 6.00 Build 0)  -->
<!DOCTYPE svg PUBLIC "-//W3C//DTD SVG 1.1//EN" "http://www.w3.org/Graphics/SVG/1.1/DTD/svg11.dtd">
<svg version="1.1" xmlns="http://www.w3.org/2000/svg" xmlns:xlink="http://www.w3.org/1999/xlink" x="0px" y="0px" width="516px"
	 height="228px" viewBox="0 0 516 228" enable-background="new 0 0 516 228" xml:space="preserve">
<g id="Layer_1">
	<path fill="#E53449" d="M285.932,139.341c-2.582,3.174-5.177,6.334-7.785,9.48c-0.107-4.16-0.227-8.32-0.359-12.48
		s-0.307-8.32-0.519-12.479c-0.214-0.533-0.652-0.946-1.317-1.24c-0.666-0.293-1.371-0.44-2.116-0.44s-1.41,0.16-1.996,0.48
		c-0.587,0.319-0.879,0.8-0.879,1.439c0,9.12,0.187,18.174,0.56,27.16c0.371,8.987,0.798,18.04,1.278,27.16
		c0.266,0.427,0.718,0.772,1.356,1.04c0.64,0.267,1.304,0.4,1.996,0.4c0.639,0,1.238-0.134,1.797-0.4
		c0.559-0.268,0.944-0.693,1.157-1.28c-0.213-3.359-0.373-6.692-0.479-10c-0.107-3.306-0.214-6.64-0.319-10
		c3.938,3.36,7.771,6.8,11.497,10.32c3.726,3.52,7.612,6.907,11.657,10.16c0.319,0.212,0.746,0.372,1.278,0.479
		c0.531,0.106,1.091,0.16,1.677,0.16c0.8,0,1.504-0.107,2.117-0.32c0.612-0.213,0.919-0.533,0.919-0.96
		c0-0.319-0.214-0.692-0.64-1.119c-2.29-1.813-4.512-3.681-6.668-5.601c-2.155-1.92-4.299-3.866-6.427-5.84
		c-2.129-1.973-4.272-3.92-6.427-5.84s-4.352-3.813-6.587-5.681c3.247-3.732,6.414-7.52,9.501-11.359
		c3.086-3.84,6.254-7.627,9.501-11.36c0.052-0.16,0.079-0.346,0.079-0.56c0-0.587-0.253-0.973-0.758-1.16
		c-0.507-0.187-1.105-0.28-1.797-0.28c-0.639,0-1.277,0.067-1.916,0.2c-0.639,0.134-1.117,0.308-1.437,0.52
		C291.161,133.034,288.513,136.168,285.932,139.341z"/>
	<path fill="#F78D22" d="M315.438,178.661c1.171,0.053,2.328,0.12,3.475,0.2c1.145,0.079,2.169,0.146,3.074,0.199
		c0.906,0.053,1.519,0.08,1.838,0.08c0.904,0,1.597-0.147,2.075-0.439c0.479-0.294,0.719-0.652,0.719-1.08
		c0-0.746-0.692-1.253-2.075-1.521c-0.373-0.212-0.866-0.306-1.478-0.279c-0.612,0.027-1.158,0.014-1.638-0.04
		c-0.427-8.641-0.826-17.253-1.197-25.841c-0.374-8.586-0.773-17.199-1.198-25.84h1.198c1.117,0,1.957-0.172,2.516-0.52
		c0.559-0.347,0.838-0.706,0.838-1.08c0-0.373-0.279-0.72-0.838-1.04s-1.398-0.506-2.516-0.56h-8.787
		c-0.959,0.107-1.678,0.319-2.156,0.64c-0.48,0.32-0.72,0.64-0.72,0.96c0,0.854,0.959,1.388,2.876,1.6h1.198
		c0.426,8.588,0.825,17.134,1.198,25.641c0.372,8.507,0.799,17.054,1.278,25.64c-0.268,0-0.493-0.013-0.679-0.04
		c-0.188-0.026-0.359-0.04-0.521-0.04c-1.117,0-2.104,0.2-2.956,0.601c-0.852,0.399-1.277,0.84-1.277,1.319
		c0,0.641,0.879,1.066,2.637,1.28C313.228,178.554,314.267,178.607,315.438,178.661z"/>
	<path fill="#48A059" d="M335.081,120.98c-0.373,0-0.865,0.2-1.477,0.601c-0.612,0.399-0.998,1.373-1.158,2.92
		c-0.427,3.894-0.758,8.014-0.998,12.36c-0.239,4.347-0.466,8.773-0.679,13.279c-0.213,4.508-0.438,9.04-0.678,13.601
		c-0.24,4.56-0.547,9-0.919,13.319c0,0.748,0.346,1.227,1.038,1.44c0.691,0.213,1.384,0.32,2.076,0.32h0.798
		c2.129-0.268,4.284-0.747,6.467-1.44c2.183-0.692,4.284-1.586,6.308-2.68c2.022-1.093,3.898-2.373,5.629-3.84
		c1.729-1.467,3.205-3.133,4.431-5c1.489-2.293,2.527-4.761,3.113-7.4c0.585-2.64,0.879-5.32,0.879-8.04
		c0-3.572-0.639-6.96-1.917-10.16c-1.277-3.2-3.033-6.08-5.269-8.64c-2.235-2.561-4.844-4.76-7.824-6.601
		c-2.981-1.84-6.147-3.186-9.501-4.04H335.081z M353.523,149.381c0,0.374,0,0.773,0,1.2c0,2.508-0.267,4.987-0.798,7.439
		c-0.533,2.454-1.491,4.721-2.874,6.801c-1.65,2.507-3.727,4.56-6.228,6.159c-2.503,1.601-5.138,2.854-7.904,3.761
		c0.319-4.32,0.571-8.627,0.759-12.92c0.186-4.293,0.411-8.601,0.679-12.92c0.212-3.521,0.438-7.267,0.679-11.24
		c0.239-3.973,0.411-7.88,0.519-11.721c2.182,0.961,4.164,2.2,5.948,3.721c1.782,1.52,3.325,3.24,4.631,5.16
		c1.303,1.92,2.341,4.027,3.113,6.319c0.771,2.294,1.237,4.668,1.397,7.12C353.496,148.635,353.523,149.009,353.523,149.381z"/>
	<path fill="#482D72" d="M360.149,164.541c-0.159,1.147-0.239,2.067-0.239,2.76c0,1.708,0.373,3.268,1.117,4.68
		c0.745,1.414,1.783,2.614,3.114,3.601c1.329,0.987,2.86,1.747,4.591,2.28c1.729,0.532,3.604,0.8,5.628,0.8
		c1.862,0,3.726-0.294,5.589-0.88c1.862-0.587,3.553-1.453,5.069-2.601c1.518-1.146,2.755-2.612,3.713-4.399
		c0.958-1.786,1.438-3.88,1.438-6.28c0-2.026-0.6-3.772-1.797-5.24c-1.197-1.466-2.582-2.84-4.151-4.12
		c-1.57-1.279-3.153-2.572-4.751-3.88c-1.597-1.307-2.794-2.786-3.592-4.439c-0.427-0.801-0.732-1.721-0.919-2.761
		s-0.279-2.12-0.279-3.239c0-1.173,0.106-2.36,0.319-3.561c0.212-1.2,0.56-2.307,1.038-3.32c0.479-1.012,1.078-1.905,1.797-2.68
		c0.718-0.772,1.557-1.346,2.515-1.72h0.319c0.371,0,0.665,0.134,0.878,0.399c0.212,0.268,0.359,0.588,0.439,0.961
		s0.132,0.773,0.159,1.199c0.026,0.428,0.04,0.801,0.04,1.12c0,0.268-0.054,0.508-0.159,0.72c0,0.694,0.252,1.188,0.758,1.48
		c0.506,0.294,1.131,0.44,1.877,0.44c1.063,0,1.968-0.187,2.714-0.561c0.745-0.372,1.118-1.013,1.118-1.92
		c0-1.173-0.228-2.213-0.679-3.12c-0.453-0.906-1.065-1.652-1.837-2.24c-0.771-0.586-1.637-1.025-2.595-1.319
		c-0.958-0.293-1.916-0.44-2.874-0.44c-2.023,0-3.779,0.414-5.269,1.24c-1.491,0.827-2.742,1.934-3.753,3.32
		c-1.012,1.387-1.77,2.96-2.275,4.72s-0.759,3.6-0.759,5.52c0,1.974,0.32,3.868,0.959,5.681c0.639,1.813,1.702,3.467,3.193,4.96
		c1.117,1.12,2.327,2.16,3.632,3.12c1.304,0.96,2.516,1.96,3.633,3c1.118,1.04,2.063,2.147,2.835,3.319
		c0.771,1.174,1.157,2.534,1.157,4.08c0,1.601-0.307,3.04-0.918,4.32c-0.612,1.28-1.385,2.348-2.315,3.2
		c-0.932,0.854-1.983,1.507-3.153,1.96c-1.172,0.453-2.315,0.68-3.434,0.68c-2.129,0-3.966-0.666-5.509-2
		c-1.544-1.332-2.315-3.36-2.315-6.08c0-0.746,0.093-1.572,0.279-2.479c0.187-0.906,0.492-1.681,0.919-2.32
		c0.052-0.106,0.079-0.267,0.079-0.48c0-0.586-0.267-1-0.798-1.239c-0.533-0.24-1.171-0.36-1.916-0.36
		c-0.746,0-1.451,0.107-2.116,0.32c-0.666,0.214-1.131,0.533-1.396,0.96C360.681,162.448,360.31,163.395,360.149,164.541z"/>
</g>
<g id="Layer_3">
	<g>
		<path fill="#FFFFFF" d="M75.832,83.141c-1.571-1.28-3.154-2.573-4.75-3.88c-1.597-1.306-2.794-2.786-3.593-4.44
			c-0.427-0.8-0.732-1.72-0.918-2.76c-0.187-1.04-0.279-2.12-0.279-3.24c0-1.172,0.106-2.36,0.319-3.56
			c0.212-1.2,0.559-2.306,1.038-3.32c0.479-1.013,1.078-1.906,1.796-2.68c0.719-0.772,1.557-1.346,2.515-1.72h0.319
			c0.372,0,0.665,0.134,0.878,0.4c0.212,0.268,0.359,0.587,0.439,0.96c0.08,0.374,0.132,0.774,0.16,1.2
			c0.026,0.427,0.04,0.8,0.04,1.12c0,0.268-0.054,0.508-0.16,0.72c0,0.694,0.252,1.188,0.759,1.48c0.505,0.293,1.13,0.44,1.876,0.44
			c1.064,0,1.969-0.186,2.714-0.56c0.745-0.373,1.118-1.012,1.118-1.92c0-1.172-0.227-2.212-0.678-3.12
			c-0.453-0.906-1.065-1.652-1.836-2.24c-0.772-0.586-1.637-1.026-2.595-1.32c-0.958-0.292-1.916-0.44-2.874-0.44
			c-2.023,0-3.78,0.414-5.27,1.24c-1.491,0.828-2.742,1.934-3.752,3.32c-1.012,1.388-1.77,2.96-2.275,4.72
			c-0.506,1.76-0.758,3.6-0.758,5.52c0,1.974,0.319,3.867,0.958,5.68c0.639,1.814,1.703,3.468,3.193,4.96
			c1.118,1.12,2.328,2.16,3.633,3.12c1.304,0.96,2.515,1.96,3.633,3s2.062,2.147,2.834,3.32c0.771,1.173,1.158,2.534,1.158,4.08
			c0,1.6-0.307,3.04-0.918,4.32c-0.613,1.28-1.385,2.347-2.315,3.2c-0.932,0.854-1.983,1.508-3.154,1.96
			c-1.171,0.454-2.315,0.68-3.433,0.68c-2.129,0-3.966-0.667-5.509-2c-1.544-1.333-2.315-3.36-2.315-6.08
			c0-0.746,0.092-1.572,0.279-2.48c0.186-0.906,0.492-1.68,0.918-2.32c0.052-0.106,0.08-0.267,0.08-0.48c0-0.586-0.267-1-0.798-1.24
			c-0.533-0.24-1.171-0.36-1.916-0.36c-0.746,0-1.451,0.107-2.116,0.32c-0.666,0.214-1.131,0.534-1.397,0.96
			c-0.586,0.748-0.958,1.694-1.118,2.84c-0.16,1.147-0.239,2.067-0.239,2.76c0,1.708,0.373,3.268,1.118,4.68
			c0.745,1.414,1.783,2.614,3.114,3.6c1.33,0.987,2.86,1.748,4.59,2.28c1.729,0.533,3.605,0.8,5.629,0.8
			c1.862,0,3.725-0.293,5.588-0.88c1.863-0.586,3.553-1.452,5.07-2.6c1.517-1.146,2.754-2.612,3.712-4.4
			c0.958-1.786,1.437-3.88,1.437-6.28c0-2.026-0.599-3.772-1.796-5.24C78.786,85.794,77.401,84.42,75.832,83.141z"/>
		<path fill="#FFFFFF" d="M107.885,103.9c0.745-0.667,1.423-1.426,2.036-2.28c0.611-0.853,1.184-1.733,1.716-2.64
			c0.052-0.106,0.08-0.267,0.08-0.48c0-0.586-0.267-1-0.798-1.24c-0.533-0.24-1.171-0.36-1.916-0.36c-1.118,0-1.983,0.28-2.595,0.84
			c-0.612,0.56-1.131,1.188-1.557,1.88c-0.427,0.693-0.838,1.347-1.238,1.96c-0.399,0.613-0.972,1-1.716,1.16
			c-1.597-0.32-3.047-1.36-4.351-3.12c-1.305-1.76-2.409-3.8-3.313-6.12c-0.906-2.32-1.597-4.692-2.076-7.12
			c-0.479-2.426-0.719-4.466-0.719-6.12c1.597,0.16,3.22,0.24,4.87,0.24c0.851,0,1.982-0.106,3.393-0.32
			c1.41-0.212,2.767-0.56,4.072-1.04c1.304-0.48,2.435-1.12,3.394-1.92c0.958-0.8,1.437-1.813,1.437-3.04
			c0-1.012-0.307-1.972-0.918-2.88c-0.612-0.906-1.437-1.692-2.475-2.36c-1.038-0.667-2.223-1.2-3.552-1.6
			c-1.332-0.4-2.742-0.6-4.231-0.6c-0.32,0-0.653,0.014-0.998,0.04c-0.347,0.028-0.679,0.067-0.998,0.12
			c-1.331,0.16-2.622,0.507-3.872,1.04c-1.251,0.534-2.355,1.32-3.313,2.36s-1.73,2.348-2.315,3.92
			c-0.586,1.574-0.878,3.508-0.878,5.8c0,1.92,0.226,3.88,0.679,5.88c0.451,2,1.05,3.96,1.796,5.88c0.745,1.92,1.597,3.72,2.555,5.4
			c0.958,1.68,1.942,3.134,2.954,4.36c1.064,1.333,2.421,2.427,4.071,3.28c1.649,0.854,3.354,1.28,5.11,1.28
			c1.17,0,2.222-0.2,3.153-0.6C106.301,105.101,107.139,104.568,107.885,103.9z M92.557,74.98c0.212-0.747,0.531-1.466,0.958-2.16
			c0.425-0.746,0.944-1.386,1.557-1.92c0.611-0.533,1.37-0.8,2.275-0.8c1.064,0,2.048,0.32,2.954,0.96
			c0.904,0.64,1.437,1.653,1.597,3.04c0,0.693-0.2,1.267-0.599,1.72c-0.399,0.454-0.906,0.8-1.517,1.04
			c-0.612,0.24-1.277,0.414-1.996,0.52c-0.718,0.107-1.424,0.16-2.116,0.16c-0.852,0-1.53-0.013-2.036-0.04
			c-0.506-0.026-1.025-0.093-1.557-0.2C92.184,76.5,92.343,75.728,92.557,74.98z"/>
		<path fill="#FFFFFF" d="M118.024,60.5c0.319,0.427,0.679,0.788,1.078,1.08c0.399,0.293,0.811,0.44,1.237,0.44
			c0.958,0,1.836-0.28,2.635-0.84c0.798-0.56,1.198-1.48,1.198-2.76c0-1.227-0.213-2.306-0.639-3.24
			c-0.427-0.932-1.118-1.4-2.076-1.4c-1.277,0-2.343,0.44-3.193,1.32c-0.852,0.88-1.277,1.72-1.277,2.52
			c0,0.427,0.092,0.907,0.279,1.44C117.452,59.594,117.705,60.074,118.024,60.5z"/>
		<path fill="#FFFFFF" d="M123.534,69.34c-0.586-0.292-1.251-0.44-1.996-0.44c-0.746,0.107-1.425,0.428-2.036,0.96
			c-0.612,0.534-0.972,1.254-1.078,2.16c0.106,8.587,0.306,17.134,0.599,25.64c0.292,8.508,0.492,17.054,0.599,25.641
			c0.212,0.746,0.559,1.28,1.038,1.601c0.479,0.319,1.011,0.479,1.597,0.479h0.399c0.691-0.107,1.317-0.414,1.876-0.92
			c0.559-0.508,0.971-1.134,1.238-1.88c-0.16-8.588-0.373-17.121-0.639-25.601c-0.267-8.48-0.453-17.04-0.559-25.68
			C124.464,70.288,124.119,69.634,123.534,69.34z"/>
		<path fill="#FFFFFF" d="M145.807,83.38c-4.311,0-7.544,0.948-9.7,2.84c-2.156,1.894-3.233,4.6-3.233,8.12
			c0,1.974,0.279,3.654,0.838,5.04c0.559,1.388,1.29,2.52,2.195,3.4c0.904,0.88,1.942,1.52,3.114,1.92c1.17,0.4,2.368,0.6,3.593,0.6
			c1.01,0,2.008-0.106,2.994-0.32c0.984-0.212,1.956-0.506,2.915-0.88c-0.107,0.48-0.188,0.813-0.24,1
			c-0.054,0.188-0.107,0.333-0.16,0.44c-0.054,0.107-0.12,0.228-0.2,0.36c-0.08,0.134-0.173,0.413-0.279,0.84
			c0,0.693,0.292,1.187,0.878,1.48c0.585,0.292,1.25,0.44,1.996,0.44c0.745,0,1.463-0.134,2.156-0.4
			c0.691-0.268,1.118-0.694,1.277-1.28c0.479-1.813,0.851-3.52,1.118-5.12c0.266-1.6,0.452-3.186,0.559-4.76
			c0.106-1.573,0.172-3.146,0.199-4.72c0.026-1.572,0.04-3.24,0.04-5c0-2.453-0.147-4.946-0.439-7.48
			c-0.293-2.533-0.892-4.813-1.796-6.84c-0.906-2.026-2.169-3.68-3.792-4.96c-1.624-1.28-3.792-1.92-6.507-1.92
			c-2.023,0-3.686,0.24-4.99,0.72c-1.305,0.48-2.355,1.067-3.153,1.76c-0.798,0.694-1.437,1.388-1.916,2.08
			c-0.479,0.694-0.878,1.28-1.198,1.76c-0.267,0.427-0.399,0.748-0.399,0.96c0,0.427,0.28,0.733,0.838,0.92
			c0.559,0.188,1.21,0.28,1.956,0.28c0.585,0,1.158-0.052,1.717-0.16c0.559-0.106,0.97-0.212,1.237-0.32
			c0.266-0.8,0.531-1.532,0.798-2.2c0.266-0.667,0.599-1.24,0.998-1.72c0.399-0.48,0.931-0.853,1.597-1.12
			c0.665-0.267,1.529-0.4,2.595-0.4c1.224,0.268,2.208,0.908,2.954,1.92c0.745,1.014,1.33,2.24,1.756,3.68
			c0.425,1.44,0.731,2.988,0.918,4.64c0.186,1.654,0.332,3.253,0.439,4.8c-0.586-0.16-1.198-0.266-1.836-0.32
			C147.005,83.408,146.393,83.38,145.807,83.38z M149.041,90.82c0.08,0.694,0.12,1.388,0.12,2.08c0,1.014-0.12,2.054-0.359,3.12
			c-0.24,1.067-0.613,2.054-1.118,2.96c-0.507,0.907-1.132,1.654-1.876,2.24c-0.746,0.588-1.597,0.88-2.555,0.88
			c-0.906-0.053-1.61-0.387-2.116-1c-0.506-0.613-0.892-1.32-1.158-2.12c-0.267-0.8-0.427-1.613-0.479-2.44
			c-0.054-0.827-0.08-1.453-0.08-1.88c0-0.852,0.092-1.76,0.279-2.72c0.186-0.96,0.492-1.853,0.918-2.68
			c0.425-0.826,1.024-1.506,1.796-2.04c0.771-0.532,1.769-0.8,2.994-0.8c0.639,0,1.21,0.174,1.716,0.52
			c0.505,0.348,0.998,0.974,1.477,1.88C148.813,89.46,148.961,90.128,149.041,90.82z"/>
		<path fill="#FFFFFF" d="M189.593,61.5c-0.24-3.653-0.467-7.187-0.679-10.6c-0.213-3.413-0.399-6.32-0.559-8.72
			c-0.213-0.532-0.652-0.946-1.317-1.24c-0.666-0.292-1.371-0.44-2.116-0.44c-0.746,0-1.411,0.16-1.996,0.48
			c-0.586,0.32-0.878,0.8-0.878,1.44c0.212,4.054,0.452,8.547,0.719,13.48c0.266,4.934,0.545,9.987,0.838,15.16
			c0.292,5.173,0.571,10.293,0.838,15.36c0.266,5.067,0.532,9.734,0.799,14l0.16,3.04c0.266,0.427,0.718,0.773,1.357,1.04
			c0.639,0.268,1.304,0.4,1.996,0.4c0.639,0,1.237-0.132,1.796-0.4c0.559-0.267,0.944-0.692,1.158-1.28
			c0-0.106-0.014-0.226-0.04-0.36c-0.027-0.132-0.04-0.252-0.04-0.36c1.224,0.748,2.567,1.333,4.032,1.76
			c1.463,0.428,2.914,0.64,4.352,0.64c1.597,0,3.086-0.252,4.471-0.76c1.383-0.506,2.595-1.28,3.633-2.32
			c1.038-1.04,1.849-2.346,2.435-3.92c0.585-1.572,0.878-3.426,0.878-5.56c0-1.813-0.267-3.546-0.798-5.2
			c-0.533-1.653-1.357-3.106-2.475-4.36c-1.118-1.252-2.528-2.252-4.231-3c-1.704-0.746-3.7-1.12-5.988-1.12
			c-1.277,0-2.542,0.174-3.792,0.52c-1.251,0.348-2.409,0.894-3.473,1.64c-0.107-2.4-0.253-5.306-0.439-8.72
			C190.045,68.688,189.833,65.154,189.593,61.5z M191.829,88.581c0.08-0.586,0.172-1.12,0.279-1.6
			c0.266-1.652,1.011-2.933,2.235-3.84c1.224-0.907,2.501-1.36,3.833-1.36c1.064,0,2.022,0.334,2.874,1
			c0.851,0.667,1.583,1.534,2.196,2.6c0.611,1.067,1.078,2.254,1.397,3.56c0.319,1.308,0.479,2.574,0.479,3.8
			c0,1.014-0.133,2.054-0.399,3.12c-0.267,1.067-0.652,2.027-1.158,2.88c-0.506,0.854-1.118,1.56-1.836,2.12
			c-0.719,0.56-1.557,0.84-2.515,0.84c-1.171,0-2.223-0.32-3.153-0.96c-0.932-0.64-1.717-1.492-2.355-2.56
			c-0.639-1.066-1.131-2.252-1.477-3.56c-0.347-1.307-0.519-2.653-0.519-4.04C191.709,89.834,191.749,89.168,191.829,88.581z"/>
		<path fill="#FFFFFF" d="M215.181,74.22c-0.586,1.574-0.878,3.508-0.878,5.8c0,1.92,0.226,3.88,0.678,5.88
			c0.452,2,1.051,3.96,1.796,5.88c0.745,1.92,1.597,3.72,2.555,5.4c0.958,1.68,1.942,3.134,2.954,4.36
			c1.064,1.333,2.421,2.427,4.071,3.28c1.649,0.854,3.354,1.28,5.11,1.28c1.17,0,2.222-0.2,3.153-0.6
			c0.931-0.4,1.769-0.933,2.515-1.6c0.745-0.667,1.423-1.426,2.036-2.28c0.611-0.853,1.184-1.733,1.717-2.64
			c0.052-0.106,0.08-0.267,0.08-0.48c0-0.586-0.267-1-0.798-1.24c-0.533-0.24-1.171-0.36-1.916-0.36c-1.118,0-1.983,0.28-2.595,0.84
			c-0.612,0.56-1.131,1.188-1.557,1.88c-0.427,0.693-0.838,1.347-1.238,1.96c-0.399,0.613-0.972,1-1.716,1.16
			c-1.597-0.32-3.048-1.36-4.351-3.12c-1.305-1.76-2.409-3.8-3.313-6.12c-0.906-2.32-1.597-4.692-2.076-7.12
			c-0.479-2.426-0.719-4.466-0.719-6.12c1.597,0.16,3.22,0.24,4.87,0.24c0.851,0,1.982-0.106,3.393-0.32
			c1.41-0.212,2.767-0.56,4.072-1.04c1.304-0.48,2.435-1.12,3.393-1.92c0.958-0.8,1.437-1.813,1.437-3.04
			c0-1.012-0.307-1.972-0.918-2.88c-0.612-0.906-1.437-1.692-2.475-2.36c-1.038-0.667-2.223-1.2-3.553-1.6
			c-1.331-0.4-2.742-0.6-4.231-0.6c-0.319,0-0.652,0.014-0.998,0.04c-0.347,0.028-0.679,0.067-0.998,0.12
			c-1.331,0.16-2.623,0.507-3.872,1.04c-1.251,0.534-2.355,1.32-3.313,2.36S215.766,72.648,215.181,74.22z M221.807,74.98
			c0.212-0.747,0.532-1.466,0.958-2.16c0.425-0.746,0.944-1.386,1.557-1.92c0.611-0.533,1.37-0.8,2.275-0.8
			c1.064,0,2.048,0.32,2.954,0.96c0.904,0.64,1.437,1.653,1.597,3.04c0,0.693-0.2,1.267-0.599,1.72
			c-0.399,0.454-0.906,0.8-1.517,1.04c-0.613,0.24-1.277,0.414-1.996,0.52c-0.718,0.107-1.424,0.16-2.116,0.16
			c-0.852,0-1.53-0.013-2.036-0.04c-0.506-0.026-1.025-0.093-1.557-0.2C221.434,76.5,221.594,75.728,221.807,74.98z"/>
		<path fill="#FFFFFF" d="M286.597,74.5c-0.878-1.653-2.09-2.986-3.633-4c-1.544-1.013-3.541-1.52-5.988-1.52
			c-1.757,0-3.447,0.32-5.07,0.96c-1.625,0.64-3.208,1.44-4.75,2.4c-0.639-1.066-1.357-1.88-2.156-2.44
			c-0.798-0.56-1.597-0.973-2.395-1.24c-0.799-0.266-1.545-0.426-2.236-0.48c-0.692-0.052-1.226-0.08-1.597-0.08
			c-0.958,0-1.891,0.147-2.795,0.44c-0.905,0.293-1.756,0.68-2.555,1.16c-0.267-0.906-0.612-1.572-1.038-2
			c-0.426-0.426-1.251-0.64-2.475-0.64c-0.746,0-1.411,0.16-1.996,0.48c-0.586,0.32-0.878,0.8-0.878,1.44
			c0.106,2.08,0.186,4.04,0.239,5.88c0.053,1.84,0.08,3.614,0.08,5.32c0,2.028-0.014,3.988-0.04,5.88
			c-0.027,1.894-0.04,3.854-0.04,5.88c0,1.813,0.026,3.667,0.08,5.56c0.052,1.894,0.16,3.96,0.319,6.2
			c0.266,0.428,0.718,0.774,1.357,1.04c0.639,0.268,1.303,0.4,1.995,0.4c0.639,0,1.238-0.133,1.797-0.4
			c0.559-0.266,0.944-0.692,1.157-1.28c-0.159-2.132-0.267-4.146-0.319-6.04c-0.053-1.893-0.079-3.746-0.079-5.56
			c0-2.026,0.012-4.04,0.04-6.04c0.025-2,0.039-4.04,0.039-6.12v-3.28c0.479-1.44,1.131-2.586,1.956-3.44
			c0.825-0.853,1.717-1.28,2.675-1.28c1.33,0,2.382,0.68,3.154,2.04c0.771,1.36,1.344,3.08,1.717,5.16
			c0.372,2.08,0.599,4.388,0.679,6.92c0.08,2.534,0.12,5,0.12,7.4v3.6c0,1.708,0.012,3.214,0.04,4.52
			c0.025,1.308,0.146,2.254,0.358,2.84c0.267,0.428,0.719,0.774,1.357,1.04c0.639,0.268,1.304,0.4,1.996,0.4
			c0.639,0,1.237-0.133,1.797-0.4c0.559-0.266,0.944-0.692,1.157-1.28c0-1.386,0.013-2.893,0.04-4.52
			c0.026-1.626,0.04-3.346,0.04-5.16c0-3.04-0.107-6.12-0.319-9.24c-0.214-3.12-0.692-6.013-1.438-8.68
			c1.649-1.652,3.021-2.76,4.112-3.32s2.143-0.84,3.154-0.84c1.277,0,2.327,0.468,3.153,1.4c0.824,0.934,1.489,2.094,1.997,3.48
			c0.505,1.387,0.851,2.88,1.038,4.48c0.186,1.6,0.279,3.067,0.279,4.4c0,1.92-0.107,3.88-0.319,5.88
			c-0.214,2-0.493,3.96-0.839,5.88c-0.347,1.92-0.732,3.76-1.158,5.52c-0.427,1.76-0.878,3.333-1.357,4.72
			c0,0.692,0.292,1.186,0.878,1.48c0.586,0.292,1.25,0.44,1.997,0.44c0.745,0,1.45-0.134,2.116-0.4
			c0.665-0.268,1.104-0.694,1.317-1.28c1.063-3.146,1.916-6.586,2.555-10.32c0.639-3.732,0.958-7.44,0.958-11.12
			c0-2.24-0.16-4.426-0.479-6.56C288.074,78.048,287.475,76.154,286.597,74.5z"/>
		<path fill="#FFFFFF" d="M322.243,83.3h-18.761c-0.958,0.107-1.676,0.32-2.155,0.64c-0.479,0.32-0.718,0.64-0.718,0.96
			c0,0.854,0.958,1.388,2.874,1.6h18.761c1.118,0,1.956-0.16,2.515-0.48c0.559-0.32,0.839-0.692,0.839-1.12
			c0-0.373-0.28-0.72-0.839-1.04S323.361,83.354,322.243,83.3z"/>
		<path fill="#FFFFFF" d="M356.732,89.78c0.639-2.346,1.17-4.4,1.597-6.16l0.16-0.64c0.105-0.267,0.172-0.506,0.199-0.72
			c0.026-0.212,0.066-0.426,0.12-0.64c-0.214-0.586-0.599-1.013-1.158-1.28c-0.559-0.266-1.157-0.4-1.796-0.4
			c-0.692,0-1.345,0.134-1.956,0.4c-0.612,0.268-1.078,0.614-1.397,1.04l-0.239,1.04c-0.853,3.254-1.757,6.507-2.715,9.76
			c-0.958,3.254-2.155,6.4-3.593,9.44c-2.023-5.013-3.726-10.133-5.109-15.36c-1.385-5.226-2.688-10.48-3.912-15.76
			c-0.213-0.533-0.652-0.946-1.317-1.24c-0.666-0.292-1.371-0.44-2.115-0.44c-0.746,0-1.411,0.16-1.996,0.48
			c-0.586,0.32-0.878,0.8-0.878,1.44c0.904,3.948,1.862,7.868,2.874,11.76c1.011,3.894,2.128,7.76,3.353,11.6
			c0.32,1.067,0.639,2.2,0.959,3.4c0.318,1.2,0.718,2.387,1.197,3.56c0.479,1.173,1.038,2.28,1.677,3.32s1.437,1.906,2.395,2.6
			c0.851,0.532,1.757,0.8,2.715,0.8c0.798,0,1.677-0.214,2.635-0.64c1.224-0.908,2.341-2.307,3.353-4.2
			c1.011-1.893,1.929-3.973,2.755-6.24C355.361,94.434,356.094,92.128,356.732,89.78z"/>
		<path fill="#FFFFFF" d="M372.141,54.98c-1.277,0-2.343,0.44-3.193,1.32c-0.852,0.88-1.277,1.72-1.277,2.52
			c0,0.428,0.093,0.908,0.279,1.44c0.187,0.534,0.439,1.014,0.759,1.44c0.319,0.428,0.679,0.788,1.078,1.08
			c0.398,0.294,0.811,0.44,1.237,0.44c0.958,0,1.836-0.28,2.635-0.84c0.798-0.56,1.197-1.48,1.197-2.76
			c0-1.227-0.213-2.307-0.639-3.24C373.79,55.448,373.099,54.98,372.141,54.98z"/>
		<path fill="#FFFFFF" d="M372.66,69.22c-0.56-0.266-1.158-0.4-1.797-0.4c-0.692,0-1.356,0.134-1.995,0.4
			c-0.64,0.268-1.092,0.614-1.357,1.04c-0.479,5.654-0.906,11.294-1.277,16.92c-0.373,5.628-0.772,11.268-1.198,16.92
			c0,0.693,0.292,1.188,0.879,1.48c0.585,0.293,1.249,0.44,1.995,0.44c0.745,0,1.45-0.133,2.116-0.4
			c0.665-0.267,1.104-0.693,1.317-1.28c0.479-5.652,0.891-11.292,1.237-16.92c0.346-5.626,0.759-11.266,1.237-16.92
			C373.604,69.914,373.219,69.488,372.66,69.22z"/>
		<path fill="#FFFFFF" d="M402.997,105.22c0.56-0.266,0.944-0.692,1.158-1.28c-0.054-0.747-0.094-1.546-0.12-2.4
			c-0.027-0.853-0.04-1.732-0.04-2.64v-6.08c0-1.492-0.04-3.146-0.119-4.96c-0.08-1.813-0.254-3.626-0.52-5.44
			c-0.267-1.813-0.666-3.573-1.197-5.28c-0.533-1.707-1.265-3.227-2.195-4.56c-0.933-1.333-2.076-2.4-3.434-3.2
			s-3.021-1.2-4.989-1.2c-0.853,0-1.664,0.148-2.436,0.44c-0.772,0.293-1.504,0.653-2.195,1.08c-0.267-0.906-0.612-1.572-1.038-2
			c-0.427-0.426-1.251-0.64-2.475-0.64c-0.746,0-1.411,0.16-1.996,0.48c-0.586,0.32-0.878,0.8-0.878,1.44
			c0.105,2.08,0.186,4.04,0.239,5.88c0.053,1.84,0.08,3.614,0.08,5.32c0,2.028-0.014,3.988-0.04,5.88
			c-0.027,1.894-0.04,3.854-0.04,5.88c0,1.813,0.026,3.667,0.08,5.56c0.052,1.894,0.159,3.96,0.319,6.2
			c0.266,0.428,0.718,0.774,1.356,1.04c0.64,0.268,1.304,0.4,1.996,0.4c0.639,0,1.238-0.133,1.797-0.4
			c0.559-0.266,0.944-0.692,1.157-1.28c-0.159-2.132-0.267-4.146-0.319-6.04c-0.054-1.893-0.08-3.746-0.08-5.56
			c0-2.026,0.013-4.04,0.04-6.04c0.026-2,0.04-4.04,0.04-6.12v-3.28c0.585-1.172,1.264-2.252,2.036-3.24
			c0.771-0.986,1.637-1.48,2.595-1.48c1.33,0,2.381,0.68,3.153,2.04c0.771,1.36,1.344,3.08,1.717,5.16
			c0.372,2.08,0.599,4.388,0.679,6.92c0.08,2.534,0.119,5,0.119,7.4v3.6c0,1.708,0.013,3.214,0.04,4.52
			c0.026,1.308,0.146,2.254,0.359,2.84c0.266,0.428,0.719,0.774,1.357,1.04c0.639,0.268,1.304,0.4,1.996,0.4
			C401.84,105.621,402.438,105.488,402.997,105.22z"/>
		<path fill="#FFFFFF" d="M437.847,40.98c-0.586-0.32-1.251-0.48-1.996-0.48c-0.746,0-1.45,0.147-2.115,0.44
			c-0.666,0.293-1.105,0.708-1.317,1.24c-0.16,2.4-0.347,5.308-0.559,8.72c-0.214,3.414-0.439,6.947-0.679,10.6
			c-0.239,3.654-0.467,7.188-0.679,10.6c-0.214,3.414-0.347,6.32-0.399,8.72c-1.065-0.746-2.223-1.292-3.473-1.64
			c-1.251-0.346-2.515-0.52-3.792-0.52c-2.343,0-4.352,0.374-6.028,1.12c-1.677,0.748-3.073,1.748-4.191,3
			c-1.117,1.254-1.943,2.708-2.475,4.36c-0.533,1.653-0.799,3.387-0.799,5.2c0,2.134,0.292,3.988,0.878,5.56
			c0.586,1.574,1.397,2.88,2.436,3.92s2.248,1.814,3.633,2.32c1.383,0.507,2.874,0.76,4.471,0.76c1.438,0,2.887-0.212,4.352-0.64
			c1.463-0.426,2.807-1.012,4.031-1.76c0,0.107-0.014,0.228-0.04,0.36c-0.027,0.134-0.04,0.254-0.04,0.36
			c0.212,0.588,0.599,1.014,1.158,1.28c0.559,0.268,1.157,0.4,1.796,0.4c0.691,0,1.357-0.132,1.996-0.4
			c0.639-0.267,1.09-0.613,1.357-1.04l0.159-3.04c0.212-4.266,0.466-8.933,0.759-14c0.292-5.066,0.585-10.187,0.878-15.36
			c0.292-5.173,0.571-10.227,0.839-15.16c0.266-4.933,0.505-9.426,0.719-13.48C438.726,41.78,438.432,41.3,437.847,40.98z
			 M428.546,94.621c-0.347,1.307-0.838,2.494-1.477,3.56c-0.639,1.068-1.425,1.92-2.355,2.56c-0.932,0.64-1.983,0.96-3.154,0.96
			c-0.958,0-1.796-0.28-2.515-0.84c-0.718-0.56-1.331-1.266-1.836-2.12c-0.507-0.853-0.892-1.813-1.157-2.88
			c-0.268-1.066-0.399-2.106-0.399-3.12c0-1.226,0.159-2.492,0.479-3.8c0.319-1.306,0.771-2.493,1.357-3.56
			c0.585-1.066,1.317-1.933,2.195-2.6c0.879-0.666,1.849-1,2.914-1c1.33,0,2.607,0.454,3.833,1.36
			c1.224,0.907,1.968,2.188,2.235,3.84c0.105,0.48,0.199,1.014,0.279,1.6c0.079,0.587,0.119,1.253,0.119,2
			C429.064,91.968,428.892,93.314,428.546,94.621z"/>
		<path fill="#FFFFFF" d="M463.075,78.66c-1.437-1.546-2.914-2.652-4.431-3.32c-1.517-0.666-3.048-1-4.591-1
			c-1.704,0-3.341,0.4-4.91,1.2c-1.57,0.8-2.954,1.92-4.151,3.36s-2.144,3.147-2.834,5.12c-0.692,1.974-1.038,4.107-1.038,6.4
			c0,1.708,0.252,3.427,0.759,5.16c0.505,1.733,1.264,3.307,2.275,4.72c1.01,1.414,2.261,2.56,3.752,3.44
			c1.489,0.88,3.22,1.32,5.189,1.32c2.555,0,4.617-0.667,6.188-2c1.569-1.333,2.807-3.28,3.712-5.84
			c0.532-1.546,1.011-3.28,1.438-5.2c0.426-1.92,0.639-3.813,0.639-5.68c0-1.386-0.107-2.772-0.319-4.16
			C464.539,80.794,463.979,79.621,463.075,78.66z M458.604,87.94c0,1.228-0.094,2.587-0.279,4.08
			c-0.188,1.494-0.493,2.92-0.918,4.28c-0.427,1.36-0.958,2.547-1.597,3.56c-0.639,1.014-1.438,1.68-2.396,2
			c-1.118,0-2.036-0.333-2.755-1c-0.718-0.667-1.305-1.506-1.756-2.52c-0.453-1.012-0.772-2.132-0.958-3.36
			c-0.188-1.227-0.279-2.4-0.279-3.52c0-2.187,0.199-4.16,0.599-5.92c0.399-1.76,0.918-3.252,1.557-4.48
			c0.639-1.227,1.357-2.16,2.155-2.8c0.799-0.64,1.569-0.96,2.315-0.96c1.17,0,2.182,0.788,3.034,2.36
			c0.851,1.574,1.277,4.068,1.277,7.48V87.94z"/>
		<path fill="#FFFFFF" d="M118.201,176.98c0.984-0.212,1.956-0.506,2.914-0.88c-0.107,0.48-0.187,0.814-0.239,1
			c-0.054,0.188-0.107,0.334-0.16,0.44c-0.054,0.107-0.12,0.228-0.2,0.36c-0.08,0.134-0.173,0.412-0.279,0.84
			c0,0.692,0.292,1.186,0.878,1.479c0.585,0.293,1.25,0.44,1.996,0.44c0.745,0,1.463-0.134,2.156-0.4
			c0.691-0.268,1.118-0.693,1.277-1.28c0.479-1.813,0.851-3.52,1.118-5.119c0.266-1.601,0.452-3.187,0.559-4.761
			c0.106-1.572,0.172-3.146,0.199-4.72c0.026-1.572,0.04-3.24,0.04-5c0-2.452-0.147-4.946-0.439-7.479
			c-0.293-2.533-0.892-4.813-1.796-6.841c-0.906-2.026-2.169-3.68-3.792-4.96c-1.624-1.279-3.792-1.92-6.507-1.92
			c-2.023,0-3.686,0.24-4.99,0.721c-1.305,0.479-2.355,1.067-3.153,1.76c-0.798,0.693-1.437,1.388-1.917,2.08
			c-0.479,0.693-0.878,1.279-1.197,1.76c-0.267,0.428-0.399,0.747-0.399,0.96c0,0.428,0.28,0.733,0.838,0.92
			c0.559,0.188,1.21,0.28,1.956,0.28c0.585,0,1.158-0.053,1.716-0.16c0.559-0.106,0.971-0.213,1.238-0.32
			c0.266-0.8,0.531-1.532,0.798-2.2c0.266-0.666,0.599-1.239,0.998-1.72c0.399-0.479,0.931-0.853,1.597-1.12
			c0.665-0.266,1.529-0.399,2.595-0.399c1.224,0.268,2.208,0.907,2.954,1.92c0.745,1.014,1.33,2.24,1.756,3.68
			c0.425,1.44,0.731,2.987,0.918,4.64c0.186,1.654,0.332,3.254,0.439,4.801c-0.586-0.16-1.197-0.267-1.836-0.32
			c-0.639-0.053-1.251-0.08-1.836-0.08c-4.311,0-7.544,0.947-9.7,2.84c-2.156,1.894-3.233,4.601-3.233,8.12
			c0,1.974,0.279,3.654,0.838,5.04c0.559,1.388,1.29,2.521,2.195,3.4c0.904,0.88,1.942,1.52,3.114,1.92
			c1.17,0.399,2.368,0.6,3.593,0.6C116.217,177.301,117.215,177.194,118.201,176.98z M112.572,170.98
			c-0.267-0.8-0.427-1.612-0.479-2.439c-0.054-0.826-0.08-1.452-0.08-1.88c0-0.853,0.093-1.76,0.28-2.721
			c0.186-0.96,0.491-1.852,0.918-2.68c0.425-0.826,1.024-1.506,1.796-2.04c0.771-0.532,1.769-0.8,2.994-0.8
			c0.639,0,1.21,0.174,1.716,0.52c0.505,0.348,0.998,0.975,1.477,1.881c0.212,0.64,0.359,1.307,0.439,2
			c0.08,0.693,0.12,1.387,0.12,2.08c0,1.014-0.12,2.054-0.359,3.119c-0.24,1.068-0.613,2.054-1.118,2.96
			c-0.507,0.908-1.132,1.654-1.876,2.24c-0.746,0.588-1.597,0.88-2.555,0.88c-0.906-0.052-1.61-0.386-2.116-1
			C113.224,172.488,112.838,171.781,112.572,170.98z"/>
		<path fill="#FFFFFF" d="M155.045,169.221c0.531-1.546,1.01-3.28,1.437-5.2c0.425-1.92,0.639-3.813,0.639-5.68
			c0-1.386-0.107-2.772-0.319-4.16c-0.213-1.386-0.772-2.56-1.677-3.52c-1.437-1.547-2.914-2.652-4.431-3.32
			c-1.517-0.666-3.047-1-4.59-1c-1.704,0-3.341,0.4-4.91,1.2c-1.571,0.8-2.954,1.92-4.151,3.36
			c-1.198,1.439-2.144,3.147-2.834,5.119c-0.692,1.974-1.038,4.107-1.038,6.4c0,1.707,0.252,3.428,0.758,5.16
			c0.505,1.733,1.264,3.308,2.275,4.72c1.01,1.414,2.261,2.561,3.752,3.44c1.489,0.88,3.22,1.319,5.189,1.319
			c2.555,0,4.617-0.666,6.187-2C152.902,173.729,154.14,171.781,155.045,169.221z M150.654,159.94c0,1.228-0.094,2.588-0.28,4.08
			c-0.187,1.494-0.493,2.92-0.918,4.28c-0.427,1.36-0.958,2.548-1.597,3.561c-0.639,1.014-1.437,1.68-2.395,2
			c-1.118,0-2.036-0.333-2.754-1c-0.719-0.667-1.305-1.507-1.757-2.521c-0.453-1.013-0.772-2.133-0.958-3.36
			c-0.187-1.226-0.279-2.399-0.279-3.52c0-2.187,0.2-4.16,0.599-5.92c0.399-1.76,0.918-3.253,1.557-4.48
			c0.639-1.226,1.357-2.159,2.155-2.8c0.799-0.64,1.569-0.96,2.315-0.96c1.17,0,2.182,0.788,3.034,2.36
			c0.851,1.573,1.278,4.067,1.278,7.479V159.94z"/>
		<path fill="#FFFFFF" d="M213.283,158.461c0.585-2.64,0.878-5.32,0.878-8.04c0-3.572-0.639-6.96-1.916-10.16
			s-3.034-6.08-5.269-8.64c-2.236-2.561-4.844-4.76-7.824-6.601c-2.981-1.84-6.147-3.186-9.5-4.04h-0.32
			c-0.373,0-0.866,0.2-1.477,0.601c-0.613,0.399-0.998,1.373-1.158,2.92c-0.427,3.894-0.759,8.014-0.998,12.36
			c-0.24,4.347-0.467,8.773-0.679,13.279c-0.213,4.508-0.439,9.04-0.679,13.601c-0.239,4.56-0.546,9-0.918,13.319
			c0,0.748,0.346,1.227,1.038,1.44c0.691,0.213,1.384,0.32,2.076,0.32h0.798c2.128-0.268,4.284-0.747,6.467-1.44
			c2.182-0.692,4.284-1.586,6.307-2.68c2.022-1.093,3.898-2.373,5.628-3.84c1.729-1.467,3.206-3.133,4.431-5
			C211.658,163.568,212.696,161.101,213.283,158.461z M207.774,150.581c0,2.508-0.267,4.987-0.798,7.439
			c-0.533,2.454-1.491,4.721-2.875,6.801c-1.65,2.507-3.726,4.56-6.227,6.159c-2.502,1.601-5.137,2.854-7.904,3.761
			c0.319-4.32,0.571-8.627,0.758-12.92c0.186-4.293,0.412-8.601,0.679-12.92c0.212-3.521,0.439-7.267,0.678-11.24
			c0.24-3.973,0.412-7.88,0.519-11.721c2.182,0.961,4.164,2.2,5.948,3.721c1.782,1.52,3.326,3.24,4.63,5.16
			c1.304,1.92,2.341,4.027,3.114,6.319c0.771,2.294,1.237,4.668,1.397,7.12c0.052,0.374,0.08,0.748,0.08,1.12
			C207.774,149.755,207.774,150.154,207.774,150.581z"/>
		<path fill="#FFFFFF" d="M242.981,170.781c0.958-1.786,1.437-3.88,1.437-6.28c0-2.026-0.599-3.772-1.796-5.24
			c-1.197-1.466-2.582-2.84-4.151-4.12c-1.571-1.279-3.154-2.572-4.75-3.88c-1.597-1.307-2.794-2.786-3.593-4.439
			c-0.426-0.801-0.732-1.721-0.918-2.761c-0.187-1.04-0.279-2.12-0.279-3.239c0-1.173,0.106-2.36,0.319-3.561
			c0.212-1.2,0.559-2.307,1.038-3.32c0.479-1.012,1.078-1.905,1.796-2.68c0.719-0.772,1.557-1.346,2.515-1.72h0.319
			c0.372,0,0.665,0.134,0.878,0.399c0.212,0.268,0.359,0.588,0.439,0.961c0.08,0.373,0.132,0.773,0.16,1.199
			c0.026,0.428,0.04,0.801,0.04,1.12c0,0.268-0.053,0.508-0.159,0.72c0,0.694,0.252,1.188,0.758,1.48
			c0.505,0.294,1.13,0.44,1.876,0.44c1.064,0,1.969-0.187,2.714-0.561c0.745-0.372,1.118-1.013,1.118-1.92
			c0-1.173-0.227-2.213-0.679-3.12c-0.453-0.906-1.065-1.652-1.836-2.24c-0.772-0.586-1.637-1.025-2.595-1.319
			c-0.958-0.293-1.916-0.44-2.874-0.44c-2.023,0-3.78,0.414-5.27,1.24c-1.491,0.827-2.742,1.934-3.752,3.32
			c-1.012,1.387-1.77,2.96-2.275,4.72c-0.506,1.76-0.758,3.6-0.758,5.52c0,1.974,0.319,3.868,0.958,5.681
			c0.639,1.813,1.703,3.467,3.194,4.96c1.118,1.12,2.328,2.16,3.632,3.12c1.304,0.96,2.515,1.96,3.633,3s2.062,2.147,2.834,3.319
			c0.771,1.174,1.158,2.534,1.158,4.08c0,1.601-0.307,3.04-0.918,4.32c-0.613,1.28-1.385,2.348-2.315,3.2
			c-0.932,0.854-1.983,1.507-3.154,1.96c-1.171,0.453-2.315,0.68-3.433,0.68c-2.129,0-3.966-0.666-5.509-2
			c-1.544-1.332-2.315-3.36-2.315-6.08c0-0.746,0.092-1.572,0.279-2.479c0.186-0.906,0.492-1.681,0.918-2.32
			c0.052-0.106,0.08-0.267,0.08-0.48c0-0.586-0.267-1-0.798-1.239c-0.533-0.24-1.171-0.36-1.916-0.36
			c-0.746,0-1.451,0.107-2.116,0.32c-0.666,0.214-1.131,0.533-1.397,0.96c-0.586,0.747-0.958,1.693-1.118,2.84
			c-0.16,1.147-0.239,2.067-0.239,2.76c0,1.708,0.373,3.268,1.118,4.68c0.745,1.414,1.783,2.614,3.114,3.601
			c1.33,0.987,2.86,1.747,4.59,2.28c1.729,0.532,3.605,0.8,5.629,0.8c1.862,0,3.725-0.294,5.588-0.88
			c1.862-0.587,3.553-1.453,5.07-2.601C240.786,174.035,242.023,172.568,242.981,170.781z"/>
		<path fill="#FFFFFF" d="M404.219,169.301c-1.277,0-2.343,0.44-3.193,1.32c-0.852,0.88-1.277,1.72-1.277,2.52
			c0,0.428,0.092,0.908,0.279,1.44c0.186,0.533,0.439,1.014,0.759,1.439c0.319,0.428,0.679,0.788,1.077,1.08
			c0.399,0.294,0.812,0.44,1.238,0.44c0.958,0,1.836-0.28,2.634-0.84c0.799-0.561,1.198-1.48,1.198-2.761
			c0-1.226-0.214-2.306-0.639-3.239C405.868,169.769,405.177,169.301,404.219,169.301z"/>
		<path fill="#FFFFFF" d="M411.524,118.181c-0.56-0.266-9.166-0.399-9.805-0.399c-0.692,0,6.65,0.134,6.012,0.399
			c-0.639,0.268-1.091,0.614-1.357,1.04c-1.011,7.308-1.93,14.601-2.754,21.88c-0.826,7.28-1.717,14.601-2.675,21.96
			c0,0.694,0.292,1.188,0.879,1.48c0.585,0.294,1.25,0.439,1.995,0.439s1.45-0.132,2.116-0.399c0.665-0.267,1.104-0.692,1.317-1.28
			c0.958-7.306,1.862-14.612,2.714-21.92c0.852-7.307,1.757-14.612,2.715-21.92C412.469,118.875,412.083,118.448,411.524,118.181z"
			/>
		<path fill="#FFFFFF" d="M53.609,28.279c1.398-0.07,2.844-0.143,4.266-0.143c0.647,0,1.293,0.016,2.01,0.054
			c0.706,0,1.315-0.59,1.357-1.319c0.039-0.765-0.535-1.421-1.28-1.463c-2.161-0.123-4.34-0.019-6.581,0.092l-0.164,0.008
			c-2.021,0.102-4.116,0.207-6.139,0.089l-0.969-0.053c-0.7,0-1.278,0.582-1.315,1.322c-0.021,0.38,0.105,0.741,0.355,1.021
			c0.24,0.268,0.569,0.426,0.924,0.443l1.261,0.067c0.554,0.023,1.109,0.034,1.664,0.034c1.507,0,3.012-0.074,4.508-0.148
			L53.609,28.279z"/>
		<path fill="#FFFFFF" d="M84.065,24.035L72.861,23.42c-0.728,0-1.309,0.566-1.35,1.322c-0.039,0.764,0.534,1.418,1.278,1.461
			l11.126,0.613l0.074,0.002c0.718,0,1.313-0.578,1.356-1.321C85.386,24.732,84.811,24.076,84.065,24.035z"/>
		<path fill="#FFFFFF" d="M97.888,28.166l0.412,0.02c0.605,0.026,1.228,0.037,1.86,0.037c1.535,0,3.134-0.063,4.681-0.125
			l-0.025-0.625l0.144,0.62c2.122-0.083,4.338-0.171,6.292-0.087l0.131,0.008c0.099,0.006,0.196,0.012,0.314,0.012
			c0.721,0,1.317-0.578,1.358-1.321c0.039-0.765-0.535-1.421-1.278-1.462c-2.163-0.121-4.562-0.025-6.855,0.066l-0.133,0.005
			c-2.004,0.081-4.344,0.175-6.37,0.089l-0.143-0.001l-0.071,0.626l-0.093-0.633l-0.149-0.012c-0.722,0-1.317,0.579-1.357,1.318
			C96.563,27.464,97.137,28.121,97.888,28.166z"/>
		<path fill="#FFFFFF" d="M390.366,24.173c0.72,0,1.315-0.578,1.356-1.317c0.042-0.764-0.531-1.422-1.28-1.465l-15.357-0.848
			l-0.117-0.006c-0.721,0-1.317,0.578-1.356,1.316c-0.042,0.766,0.531,1.423,1.279,1.467l15.417,0.852L390.366,24.173z"/>
		<path fill="#FFFFFF" d="M402.319,23.932l11.142,0.615h0.057c0.72,0,1.315-0.578,1.356-1.318c0.021-0.379-0.105-0.742-0.356-1.021
			c-0.241-0.268-0.57-0.425-0.923-0.442l-11.197-0.617c-0.722,0-1.318,0.58-1.357,1.32
			C400.999,23.234,401.573,23.892,402.319,23.932z"/>
		<path fill="#FFFFFF" d="M426.325,24.356l10.286,0.568l0.057,0.001c0.72,0,1.316-0.579,1.357-1.32
			c0.021-0.379-0.106-0.74-0.357-1.02c-0.24-0.268-0.568-0.424-0.922-0.443l-10.225-0.564c-0.732-0.133-1.433,0.504-1.476,1.314
			C425.007,23.658,425.58,24.314,426.325,24.356z"/>
		<path fill="#FFFFFF" d="M456.612,21.859c-0.481-0.564-1.392-0.617-1.937-0.109c-0.543,0.51-0.59,1.383-0.107,1.945
			c1.754,2.055,7.038,2.611,11.976,2.883l0.627,0.035l0.14-2.783l-0.621-0.033C458.998,23.371,457.074,22.399,456.612,21.859z"/>
		<path fill="#FFFFFF" d="M486.95,37.45c0.115,0.63,0.632,1.096,1.259,1.132l0.924,0.047c0.723,0,1.319-0.58,1.358-1.316
			c0.021-0.379-0.104-0.741-0.354-1.021c-0.223-0.249-0.521-0.402-0.844-0.438c-1.169-2.785-4.69-4.991-7.548-6.782
			c-0.962-0.601-1.871-1.169-2.471-1.638c-0.583-0.455-1.487-0.316-1.918,0.288c-0.431,0.606-0.312,1.472,0.27,1.929
			c0.693,0.543,1.621,1.125,2.701,1.801C482.813,33.008,486.568,35.359,486.95,37.45z"/>
		<path fill="#FFFFFF" d="M489.749,64.289c-0.041,0.764,0.532,1.421,1.296,1.465l0.057,0.002c0.721,0,1.315-0.579,1.355-1.318
			l0.631-11.672c0.021-0.38-0.105-0.742-0.355-1.021c-0.241-0.268-0.569-0.424-0.84-0.433c-0.845-0.157-1.467,0.45-1.513,1.308
			L489.749,64.289z"/>
		<path fill="#FFFFFF" d="M492.459,85.559c-0.723,0-1.317,0.58-1.355,1.319l-0.679,12.569c-0.044,0.766,0.528,1.422,1.293,1.467
			h0.059c0.72,0,1.315-0.578,1.356-1.318l0.679-12.57C493.854,86.261,493.281,85.604,492.459,85.559z"/>
		<path fill="#FFFFFF" d="M490.506,123.364l0.056,0.002c0.557,0,1.066-0.36,1.269-0.894c0.267-0.709-0.074-1.514-0.758-1.794
			c-0.221-0.091-0.854-0.888,0.264-7.346c0.172-0.993,0.286-1.676,0.31-2.111c0.042-0.767-0.529-1.424-1.221-1.462
			c-0.81-0.123-1.446,0.488-1.488,1.31c-0.019,0.326-0.128,0.955-0.255,1.683l-0.02,0.113c-0.671,3.87-1.589,9.17,1.4,10.403
			C490.207,123.325,490.355,123.358,490.506,123.364z"/>
		<path fill="#FFFFFF" d="M492.658,140.103c0.042-0.765-0.53-1.423-1.235-1.463l-0.117-0.006c-0.72,0-1.315,0.578-1.356,1.317
			l-0.049,0.897c-0.005,0.096-0.001,0.19,0.012,0.282c-0.015,1.498,0.081,2.977,0.174,4.408c0.112,1.734,0.229,3.529,0.137,5.24
			c-0.041,0.765,0.532,1.421,1.296,1.464l0.057,0.001c0.723,0,1.318-0.58,1.356-1.319c0.101-1.879-0.021-3.759-0.14-5.604
			C492.681,143.595,492.565,141.809,492.658,140.103z"/>
		<path fill="#FFFFFF" d="M486.855,168.208c-0.76,0.027-1.337,0.583-1.372,1.316l-0.632,11.671
			c-0.041,0.765,0.533,1.421,1.296,1.464l0.057,0.002c0.721,0,1.317-0.58,1.356-1.319l0.631-11.667
			C488.233,168.909,487.661,168.252,486.855,168.208z"/>
		<path fill="#FFFFFF" d="M482.46,195.049c-0.69-0.275-1.499,0.091-1.766,0.793c-0.469,1.238-0.914,2.251-1.447,3.445
			c-0.461,1.036-0.984,2.21-1.51,3.595c-0.266,0.705,0.072,1.51,0.767,1.799c0.146,0.059,0.296,0.09,0.439,0.094l0.056,0.002
			c0.558,0,1.067-0.358,1.269-0.891c0.483-1.275,0.965-2.36,1.447-3.444c0.462-1.038,0.985-2.213,1.51-3.597
			C483.493,196.128,483.162,195.34,482.46,195.049z"/>
		<path fill="#FFFFFF" d="M25.268,43.367c0.091,0.021,0.177,0.035,0.266,0.039l0.058,0.001c0.621,0,1.162-0.433,1.316-1.053
			c0.564-2.281,2.567-4.364,4.507-6.381c1.227-1.274,2.39-2.484,3.239-3.771l0.096,0.005c0.62,0,1.342-0.541,1.387-1.32
			c0.021-0.378-0.106-0.74-0.357-1.018c-0.241-0.269-0.569-0.426-0.924-0.444l-0.925-0.048c-0.486,0-0.952,0.281-1.187,0.713
			c-0.687,1.258-1.938,2.557-3.266,3.936c-2.189,2.279-4.454,4.637-5.198,7.648C24.098,42.409,24.53,43.166,25.268,43.367z"/>
		<path fill="#FFFFFF" d="M28.373,59.463c0.176-1.164,0.327-2.168,0.365-2.865c0.039-0.765-0.535-1.421-1.351-1.467
			c-0.721,0-1.318,0.579-1.359,1.318c-0.031,0.57-0.183,1.566-0.345,2.635c-0.678,4.49-1.521,10.08,1.002,12.063
			c0.223,0.176,0.488,0.273,0.766,0.285l0.056,0.001c0.433,0,0.843-0.213,1.099-0.57c0.434-0.607,0.313-1.473-0.269-1.928
			C27.088,67.953,28.019,61.808,28.373,59.463z"/>
		<path fill="#FFFFFF" d="M26.524,86.602c-0.745,0-1.296,0.543-1.339,1.319l-0.581,10.772c-0.041,0.766,0.531,1.422,1.294,1.467
			l0.056,0.001c0.723,0,1.319-0.579,1.358-1.317l0.582-10.771C27.938,87.307,27.366,86.648,26.524,86.602z"/>
		<path fill="#FFFFFF" d="M23.439,129.75h0.057c0.722,0,1.317-0.578,1.357-1.317l0.682-12.574c0.039-0.765-0.535-1.422-1.353-1.466
			c-0.721,0-1.317,0.578-1.358,1.317l-0.68,12.573C22.104,129.047,22.677,129.704,23.439,129.75z"/>
		<path fill="#FFFFFF" d="M22.814,166.145l0.97-17.953c0.044-0.766-0.528-1.424-1.275-1.467l-0.058-0.004l-0.058,0.008
			c-0.764,0.098-1.281,0.613-1.318,1.314l-0.971,17.954c-0.039,0.764,0.534,1.421,1.298,1.465l0.057,0.001
			C22.182,167.463,22.776,166.883,22.814,166.145z"/>
		<path fill="#FFFFFF" d="M25.529,196.519l-0.393-0.021c0.008-1.491-0.074-3.083-0.157-4.693c-0.099-1.936-0.2-3.938-0.107-5.635
			c0.042-0.766-0.529-1.424-1.207-1.459c-0.81-0.138-1.457,0.477-1.501,1.307c-0.104,1.869,0.006,3.967,0.112,6.025
			c0.1,1.956,0.204,3.979,0.11,5.697c-0.042,0.765,0.529,1.422,1.276,1.465l1.732,0.098h0.057c0.721,0,1.317-0.579,1.356-1.318
			c0.021-0.379-0.105-0.74-0.354-1.019C26.213,196.696,25.884,196.538,25.529,196.519z"/>
		<path fill="#FFFFFF" d="M41.107,209.984c-1.29-0.071-2.622-0.44-3.911-0.798c-1.469-0.407-2.856-0.791-4.228-0.791
			c-0.6,0-1.145,0.072-1.667,0.224c-0.711,0.207-1.134,0.971-0.944,1.7c0.156,0.607,0.695,1.032,1.311,1.033
			c0.121,0,0.241-0.018,0.366-0.052c1.077-0.314,2.722,0.095,4.458,0.577c1.423,0.395,2.895,0.801,4.48,0.889h0.057
			c0.722,0,1.318-0.579,1.357-1.317c0.021-0.379-0.105-0.741-0.355-1.021C41.79,210.161,41.461,210.003,41.107,209.984z"/>
		<path fill="#FFFFFF" d="M55.795,208.094l-0.924-0.046c-0.724,0-1.32,0.58-1.358,1.322c-0.039,0.767,0.536,1.422,1.282,1.46
			l0.927,0.046c0.724,0,1.319-0.58,1.357-1.324C57.116,208.786,56.54,208.132,55.795,208.094z"/>
		<path fill="#FFFFFF" d="M68.77,206.107c-3.671-0.146-6.954,1.264-7.554,1.534c-0.673,0.305-0.989,1.118-0.705,1.816
			c0.202,0.494,0.67,0.827,1.193,0.851l0.056,0.001c0.19,0,0.376-0.041,0.549-0.119c1.838-0.835,3.947-1.314,5.786-1.314
			c0.141,0.001,0.28,0.003,0.423-0.003l0.181,0.019c0.721,0,1.318-0.578,1.359-1.316C70.1,206.81,69.527,206.152,68.77,206.107z"/>
		<path fill="#FFFFFF" d="M96.977,206.286c-0.262,0.246-0.91,0.541-2.51,0.541c-1.208,0-2.556-0.161-3.783-0.308
			c-0.799-0.097-1.554-0.187-2.224-0.222c-0.748,0.016-1.343,0.582-1.384,1.317c-0.021,0.379,0.105,0.741,0.355,1.02
			c0.241,0.269,0.569,0.427,0.924,0.444c0.559,0.031,1.262,0.116,2.008,0.207l0.116,0.014c0.978,0.116,2.085,0.248,3.148,0.293
			c0.262,0.012,0.522,0.018,0.779,0.018c2.051,0,3.491-0.416,4.402-1.273c0.539-0.51,0.585-1.382,0.104-1.943
			C98.432,205.829,97.52,205.776,96.977,206.286z"/>
		<path fill="#FFFFFF" d="M127.981,205.776c-1.762-0.098-3.955-0.219-6.196-0.219c-2.543,0-4.551,0.156-6.137,0.48
			c-0.726,0.148-1.206,0.877-1.07,1.627c0.117,0.639,0.641,1.104,1.271,1.131l0.058,0.001c0.087,0,0.174-0.009,0.265-0.026
			c1.412-0.287,3.245-0.428,5.604-0.428c2.192,0,4.444,0.125,6.02,0.209l0.142,0.01c0.713,0,1.302-0.58,1.341-1.32
			C129.32,206.476,128.739,205.817,127.981,205.776z"/>
		<path fill="#FFFFFF" d="M396.498,205.538l-11.195-0.615c-0.721,0-1.317,0.578-1.356,1.317c-0.041,0.763,0.531,1.421,1.278,1.466
			l11.139,0.613l0.059,0.001c0.721,0,1.317-0.579,1.356-1.317c0.021-0.379-0.105-0.741-0.355-1.02
			C397.182,205.715,396.853,205.557,396.498,205.538z"/>
		<path fill="#FFFFFF" d="M425.682,205.353c-0.405-0.019-0.862-0.025-1.363-0.025l-1.798,0.01c-2.52,0-5.357-0.156-7.298-1.313
			c-0.633-0.379-1.51-0.131-1.867,0.524c-0.359,0.66-0.135,1.505,0.499,1.881c1.674,1.003,3.84,1.528,6.816,1.657
			c0.638,0.027,1.262,0.035,1.856,0.035c0.364,0,0.718-0.004,1.152-0.008l0.71-0.002c0.366,0,0.705,0.003,1.019,0.017l0.203,0.007
			c0.72,0,1.316-0.578,1.357-1.319C427.008,206.054,426.434,205.397,425.682,205.353z"/>
		<path fill="#FFFFFF" d="M460.88,204.596c-1.767-0.097-3.77-0.206-5.855-0.206c-5.082,0-8.893,0.66-11.987,2.074
			c-0.678,0.303-0.994,1.119-0.705,1.818c0.202,0.49,0.669,0.822,1.192,0.846l0.055,0.001c0.191,0,0.378-0.04,0.552-0.12
			c2.74-1.251,6.203-1.834,10.899-1.834c2.017,0,3.975,0.107,5.735,0.203l0.064,0.004l0.064-0.01c0.739-0.113,1.262-0.64,1.299-1.31
			C462.234,205.298,461.66,204.64,460.88,204.596z"/>
		<path fill="#FFFFFF" d="M203.832,27.223l1.261,0.067c0.554,0.023,1.109,0.034,1.664,0.034c1.507,0,3.012-0.074,4.508-0.148
			l0.104-0.004c1.398-0.07,2.844-0.143,4.266-0.143c0.647,0,1.293,0.016,2.01,0.054c0.706,0,1.315-0.59,1.357-1.319
			c0.039-0.765-0.535-1.421-1.28-1.463c-2.161-0.123-4.34-0.019-6.581,0.092l-0.164,0.008c-2.021,0.102-4.116,0.207-6.139,0.089
			l-0.969-0.053c-0.7,0-1.278,0.582-1.315,1.322c-0.021,0.38,0.105,0.741,0.355,1.021C203.148,27.047,203.478,27.205,203.832,27.223
			z"/>
		<path fill="#FFFFFF" d="M230.549,25.096l11.125,0.613l0.074,0.002c0.718,0,1.313-0.578,1.356-1.321
			c0.039-0.765-0.536-1.421-1.281-1.462l-11.203-0.615c-0.728,0-1.309,0.566-1.35,1.322
			C229.231,24.398,229.805,25.053,230.549,25.096z"/>
		<path fill="#FFFFFF" d="M260.647,24.057l0.412,0.02c0.604,0.026,1.228,0.037,1.859,0.037c1.535,0,3.134-0.063,4.681-0.125
			l-0.025-0.625l0.144,0.62c2.122-0.083,4.338-0.171,6.291-0.087l0.131,0.008c0.099,0.006,0.196,0.012,0.314,0.012
			c0.721,0,1.317-0.578,1.358-1.321c0.039-0.765-0.535-1.421-1.278-1.462c-2.163-0.121-4.562-0.025-6.854,0.066l-0.133,0.005
			c-2.004,0.081-4.344,0.175-6.369,0.089l-0.143-0.001l-0.071,0.626l-0.093-0.633l-0.149-0.012c-0.722,0-1.317,0.579-1.357,1.318
			C259.323,23.355,259.896,24.012,260.647,24.057z"/>
		<path fill="#FFFFFF" d="M307.974,23.065c0.72,0,1.315-0.578,1.356-1.317c0.042-0.764-0.531-1.422-1.28-1.465l-15.358-0.848
			l-0.117-0.006c-0.721,0-1.317,0.578-1.356,1.316c-0.042,0.766,0.531,1.423,1.279,1.467l15.418,0.852L307.974,23.065z"/>
		<path fill="#FFFFFF" d="M321.929,22.824l11.142,0.615h0.057c0.72,0,1.315-0.578,1.356-1.318c0.021-0.379-0.105-0.742-0.356-1.021
			c-0.241-0.268-0.57-0.425-0.923-0.442l-11.197-0.617c-0.722,0-1.318,0.58-1.357,1.32
			C320.608,22.127,321.183,22.784,321.929,22.824z"/>
		<path fill="#FFFFFF" d="M347.937,23.249l10.286,0.568l0.057,0.001c0.72,0,1.316-0.579,1.357-1.32
			c0.021-0.379-0.106-0.74-0.357-1.02c-0.24-0.268-0.568-0.424-0.922-0.443l-10.225-0.564c-0.732-0.133-1.433,0.504-1.476,1.314
			C346.618,22.551,347.191,23.207,347.937,23.249z"/>
		<path fill="#FFFFFF" d="M367.211,203.783l-11.67-0.631c-0.764-0.041-1.421,0.532-1.465,1.296l-0.002,0.057
			c0,0.721,0.579,1.315,1.318,1.355l11.672,0.631c0.38,0.021,0.742-0.105,1.021-0.355c0.268-0.241,0.424-0.569,0.433-0.84
			C368.676,204.451,368.068,203.829,367.211,203.783z"/>
		<path fill="#FFFFFF" d="M332.952,204.507l-12.569-0.679c-0.766-0.044-1.422,0.528-1.467,1.293v0.059
			c0,0.72,0.578,1.315,1.318,1.356l12.57,0.679c0.765,0.042,1.422-0.53,1.467-1.353C334.271,205.14,333.691,204.545,332.952,204.507
			z"/>
		<path fill="#FFFFFF" d="M308.762,202.34c-0.326-0.019-0.955-0.128-1.683-0.255l-0.113-0.02c-3.868-0.671-9.165-1.589-10.397,1.4
			c-0.057,0.145-0.09,0.293-0.096,0.443l-0.002,0.056c0,0.557,0.359,1.066,0.893,1.269c0.709,0.267,1.513-0.074,1.793-0.758
			c0.091-0.221,0.888-0.854,7.343,0.264c0.992,0.172,1.675,0.286,2.11,0.31c0.766,0.042,1.423-0.529,1.461-1.221
			C310.193,203.019,309.582,202.382,308.762,202.34z"/>
		<path fill="#FFFFFF" d="M279.887,203.353l-0.897-0.049c-0.096-0.005-0.19-0.001-0.282,0.012c-1.498-0.015-2.977,0.081-4.408,0.174
			c-1.734,0.112-3.529,0.229-5.24,0.137c-0.765-0.041-1.421,0.532-1.464,1.296l-0.001,0.057c0,0.723,0.58,1.318,1.319,1.356
			c1.879,0.101,3.759-0.021,5.604-0.14c1.727-0.111,3.513-0.227,5.219-0.134c0.765,0.042,1.423-0.53,1.463-1.235l0.006-0.117
			C281.204,203.989,280.626,203.394,279.887,203.353z"/>
		<path fill="#FFFFFF" d="M250.965,204.366c-3.404-0.188-6.926-0.381-9.356-1.301c-0.706-0.265-1.511,0.074-1.796,0.763
			c-0.057,0.142-0.089,0.289-0.097,0.444l-0.001,0.056c0,0.563,0.349,1.061,0.891,1.269c2.855,1.078,6.617,1.282,10.254,1.479
			c0.766,0.042,1.424-0.53,1.469-1.352C252.328,205,251.747,204.404,250.965,204.366z"/>
		<path fill="#FFFFFF" d="M222.953,202.636l-14.363-0.775c-0.767-0.042-1.424,0.53-1.468,1.294l-0.001,0.057
			c0,0.724,0.579,1.319,1.317,1.357l14.366,0.777c0.763,0.039,1.42-0.534,1.456-1.219l0.009-0.134
			C224.27,203.271,223.691,202.675,222.953,202.636z"/>
		<path fill="#FFFFFF" d="M193.275,201.89l-11.671-0.632c-0.765-0.041-1.421,0.533-1.464,1.296l-0.002,0.057
			c0,0.721,0.58,1.317,1.319,1.356l11.667,0.631c0.766,0.042,1.423-0.53,1.467-1.336
			C194.564,202.502,194.009,201.925,193.275,201.89z"/>
		<path fill="#FFFFFF" d="M135.737,27.066l0.181,0.019c0.721,0,1.318-0.578,1.359-1.316c0.042-0.766-0.53-1.423-1.288-1.468
			c-3.671-0.146-6.954,1.264-7.554,1.534c-0.673,0.305-0.989,1.118-0.705,1.816c0.202,0.494,0.67,0.827,1.193,0.851l0.056,0.001
			c0.19,0,0.376-0.041,0.549-0.119c1.838-0.835,3.947-1.314,5.786-1.314C135.455,27.07,135.595,27.072,135.737,27.066z"/>
		<path fill="#FFFFFF" d="M152.574,27.272c0.559,0.031,1.262,0.116,2.008,0.207l0.116,0.014c0.978,0.116,2.085,0.248,3.148,0.293
			c0.262,0.012,0.521,0.018,0.778,0.018c2.051,0,3.491-0.416,4.402-1.273c0.539-0.51,0.585-1.382,0.104-1.943
			c-0.482-0.564-1.395-0.617-1.938-0.107c-0.262,0.246-0.91,0.541-2.51,0.541c-1.207,0-2.556-0.161-3.782-0.308
			c-0.799-0.097-1.554-0.187-2.224-0.222c-0.748,0.016-1.343,0.582-1.384,1.317c-0.021,0.379,0.105,0.741,0.355,1.02
			C151.891,27.097,152.219,27.255,152.574,27.272z"/>
		<path fill="#FFFFFF" d="M189.01,26.745l0.142,0.01c0.713,0,1.302-0.58,1.341-1.32c0.042-0.766-0.539-1.424-1.297-1.465
			c-1.762-0.098-3.955-0.219-6.195-0.219c-2.543,0-4.551,0.156-6.137,0.48c-0.726,0.148-1.206,0.877-1.07,1.627
			c0.117,0.639,0.641,1.104,1.271,1.131l0.058,0.001c0.087,0,0.174-0.009,0.265-0.026c1.412-0.287,3.245-0.428,5.604-0.428
			C185.182,26.536,187.434,26.661,189.01,26.745z"/>
		<path fill="#FFFFFF" d="M162.721,203.302c-2.161-0.123-4.34-0.02-6.581,0.092l-0.164,0.008c-2.021,0.102-4.116,0.207-6.139,0.088
			l-0.969-0.053c-0.7,0-1.278,0.582-1.315,1.322c-0.021,0.381,0.105,0.742,0.355,1.021c0.24,0.268,0.569,0.426,0.924,0.443
			l1.261,0.066c0.554,0.023,1.109,0.035,1.664,0.035c1.507,0,3.012-0.074,4.508-0.148l0.104-0.004
			c1.398-0.07,2.844-0.143,4.266-0.143c0.647,0,1.293,0.016,2.01,0.053c0.706,0,1.315-0.59,1.357-1.318
			C164.041,203.999,163.466,203.343,162.721,203.302z"/>
	</g>
</g>
</svg>
