<?xml version="1.0" encoding="utf-8"?>
<!-- Generator: Adobe Illustrator 16.0.0, SVG Export Plug-In . SVG Version: 6.00 Build 0)  -->
<!DOCTYPE svg PUBLIC "-//W3C//DTD SVG 1.1//EN" "http://www.w3.org/Graphics/SVG/1.1/DTD/svg11.dtd">
<svg version="1.1" id="Layer_1" xmlns="http://www.w3.org/2000/svg" xmlns:xlink="http://www.w3.org/1999/xlink" x="0px" y="0px"
	 width="15.625px" height="13.938px" viewBox="0 0 15.625 13.938" enable-background="new 0 0 15.625 13.938" xml:space="preserve">
<path fill-rule="evenodd" clip-rule="evenodd" fill="#C7E0F0" d="M8.482,0.221c-3.063,0-5.634,2.069-6.403,4.88l-1.75,1.745
	L2.08,8.594c0.769,2.81,3.34,4.879,6.402,4.879c3.67,0,6.645-2.967,6.645-6.626S12.152,0.221,8.482,0.221z"/>
<g>
	<g>
		<path fill-rule="evenodd" clip-rule="evenodd" fill="#4598CD" d="M11.564,5.943c-0.5,0-0.906,0.404-0.906,0.903
			s0.406,0.903,0.906,0.903s0.906-0.404,0.906-0.903S12.064,5.943,11.564,5.943z M4.921,5.943c-0.5,0-0.906,0.404-0.906,0.903
			S4.42,7.75,4.921,7.75c0.5,0,0.906-0.404,0.906-0.903S5.421,5.943,4.921,5.943z M8.242,5.943c-0.5,0-0.905,0.404-0.905,0.903
			S7.742,7.75,8.242,7.75c0.502,0,0.906-0.404,0.906-0.903S8.744,5.943,8.242,5.943z"/>
	</g>
</g>
</svg>
