<?xml version="1.0" encoding="utf-8"?>
<!-- Generator: Adobe Illustrator 16.0.0, SVG Export Plug-In . SVG Version: 6.00 Build 0)  -->
<!DOCTYPE svg PUBLIC "-//W3C//DTD SVG 1.1//EN" "http://www.w3.org/Graphics/SVG/1.1/DTD/svg11.dtd">
<svg version="1.1" id="Layer_1" xmlns="http://www.w3.org/2000/svg" xmlns:xlink="http://www.w3.org/1999/xlink" x="0px" y="0px"
	 width="70px" height="70px" viewBox="0 0 70 70" enable-background="new 0 0 70 70" xml:space="preserve">
<g>
	<path fill="#FFFFFF" d="M48.898,28.153c-0.061-0.11-0.025-0.252-0.033-0.378c-1.632,0.626-4.721,2.075-10.545,5.361l-0.57,0.326
		c-2.5,1.432-7.152,4.101-11.595,4.101c-1.465,0-2.825-0.285-4.033-0.848l-2.698-1.259c-0.9,0.523-1.772,1.024-2.604,1.5
		c-1.81,1.038-3.887,2.233-5.369,3.209c1.032,12.715,11.685,22.715,24.69,22.715c13.04,0,23.719-10.057,24.697-22.821
		C56.037,38.572,52.939,35.248,48.898,28.153z"/>
	<path fill="#FFFFFF" d="M63.668,16.92c-3.552-4.555-8.136-5.806-9.705-6.112c-5.976-5.56-12.282-8.378-18.752-8.378
		c-11.784,0-19.926,9.276-20.893,10.431C3.381,22.624,1.549,30.631,1.942,35.635c0.222,2.832,1.197,4.946,2.191,6.033
		C5.846,57.604,19.611,70,35.74,70c17.2,0,31.252-13.704,31.781-30.748l0.144-1.066C68.895,29.052,67.55,21.897,63.668,16.92z
		 M64.756,36.236l-0.403-0.051l0.064,2.072c0,15.783-12.863,28.622-28.677,28.622c-14.731,0-27.277-11.462-28.559-26.094
		l-0.038-0.743L6.498,39.63c-0.23-0.188-1.414-1.798-1.481-4.922C4.926,30.5,6.841,23.686,16.48,15.11l0.173-0.181
		c0.077-0.094,7.769-9.381,18.557-9.381c5.769,0,11.474,2.641,16.954,7.85l0.381,0.356l0.512,0.063
		c0.047,0.005,4.763,0.629,8.194,5.074C64.355,22.912,65.533,28.742,64.756,36.236z"/>
</g>
</svg>
