<?xml version="1.0" encoding="utf-8"?>
<!-- Generator: Adobe Illustrator 16.0.0, SVG Export Plug-In . SVG Version: 6.00 Build 0)  -->
<!DOCTYPE svg PUBLIC "-//W3C//DTD SVG 1.1//EN" "http://www.w3.org/Graphics/SVG/1.1/DTD/svg11.dtd">
<svg version="1.1" id="Layer_1" xmlns="http://www.w3.org/2000/svg" xmlns:xlink="http://www.w3.org/1999/xlink" x="0px" y="0px"
	 width="36px" height="31px" viewBox="0 0 36 31" enable-background="new 0 0 36 31" xml:space="preserve">
<g>
	<path fill-rule="evenodd" clip-rule="evenodd" fill="#4C67B0" d="M6.864,16.214c0.637-0.049,0.978-0.481,0.934-0.956
		c-0.053-0.576-0.464-0.833-0.968-0.865c-0.887-0.055-1.778-0.055-2.668-0.047c-0.605,0.006-1.037,0.314-1.27,0.881
		c0,0.04,0,0.08,0,0.119c0.185,0.469,0.489,0.854,1.012,0.875C4.89,16.262,5.883,16.289,6.864,16.214z"/>
	<path fill-rule="evenodd" clip-rule="evenodd" fill="#4C67B0" d="M32.205,14.512c-1.189-0.078-2.39-0.083-3.578-0.003
		c-0.229,0.015-0.593,0.529-0.588,0.808c0.005,0.283,0.349,0.609,0.618,0.822c0.18,0.14,0.489,0.144,0.743,0.15
		c0.674,0.02,1.349,0.011,2.022,0.006c0.688-0.006,1.224-0.262,1.481-0.947c0-0.04,0-0.08,0-0.119
		C32.672,14.978,32.453,14.528,32.205,14.512z"/>
	<path fill-rule="evenodd" clip-rule="evenodd" fill="#4C67B0" d="M17.898,5.214c0.549,0,0.775-0.418,0.922-0.868
		c0.054-0.164,0.041-0.354,0.042-0.532c0.004-0.674-0.016-1.349,0.007-2.022c0.021-0.629-0.214-1.105-0.732-1.451
		c-0.159,0-0.318,0-0.478,0c-0.23,0.306-0.634,0.597-0.66,0.919c-0.086,1.023-0.08,2.061-0.007,3.086
		C17.023,4.8,17.349,5.214,17.898,5.214z"/>
	<path fill-rule="evenodd" clip-rule="evenodd" fill="#4C67B0" d="M11.91,6.475c0.282,0.118,0.675,0.186,0.937,0.076
		c0.229-0.096,0.345-0.466,0.51-0.715c-0.091-0.687-1.434-3.116-2.003-3.388c-0.253-0.121-0.666-0.188-0.87-0.062
		c-0.231,0.145-0.39,0.523-0.429,0.82c-0.035,0.267,0.089,0.583,0.223,0.837c0.331,0.629,0.692,1.244,1.071,1.846
		C11.491,6.117,11.679,6.379,11.91,6.475z"/>
	<path fill-rule="evenodd" clip-rule="evenodd" fill="#4C67B0" d="M25.298,2.37c-0.313-0.074-0.702,0.072-1.029,0.193
		C24.106,2.623,23.982,2.833,23.883,3c-0.386,0.645-0.766,1.293-1.123,1.955c-0.128,0.236-0.183,0.512-0.221,0.623
		c-0.004,0.945,0.617,1.341,1.277,0.951c0.23-0.135,0.447-0.341,0.59-0.566c0.41-0.652,0.788-1.326,1.159-2.001
		c0.102-0.186,0.16-0.405,0.189-0.615C25.814,2.927,25.745,2.475,25.298,2.37z"/>
	<path fill-rule="evenodd" clip-rule="evenodd" fill="#4C67B0" d="M6.051,7.477C5.658,7.279,5.202,7.434,4.964,7.843
		c-0.24,0.412-0.127,0.899,0.224,1.126c0.958,0.619,1.947,1.206,2.98,1.683c0.52,0.24,1.09-0.236,1.115-0.878
		c-0.082-0.161-0.147-0.527-0.359-0.66C7.992,8.526,7.035,7.971,6.051,7.477z"/>
	<path fill-rule="evenodd" clip-rule="evenodd" fill="#4C67B0" d="M27.388,10.685c0.19,0.008,0.409-0.025,0.574-0.115
		c0.831-0.457,1.669-0.908,2.46-1.429c0.268-0.176,0.403-0.551,0.663-0.929c-0.26-0.272-0.438-0.591-0.701-0.697
		c-0.262-0.105-0.659-0.093-0.91,0.037c-0.843,0.432-1.653,0.93-2.463,1.425c-0.157,0.097-0.284,0.281-0.37,0.452
		C26.33,10.046,26.692,10.657,27.388,10.685z"/>
	<path fill-rule="evenodd" clip-rule="evenodd" fill="#4C67B0" d="M8.268,19.938c-0.107,0.028-0.338,0.045-0.521,0.146
		c-0.779,0.43-1.548,0.875-2.309,1.334c-0.162,0.097-0.347,0.258-0.391,0.424c-0.08,0.305-0.185,0.707-0.051,0.932
		c0.136,0.229,0.539,0.323,0.844,0.41c0.147,0.043,0.359-0.035,0.508-0.117c0.795-0.441,1.587-0.89,2.361-1.366
		c0.19-0.117,0.353-0.33,0.454-0.534C9.466,20.542,9.075,19.951,8.268,19.938z"/>
	<path fill-rule="evenodd" clip-rule="evenodd" fill="#4C67B0" d="M30.215,21.302c-0.659-0.4-1.326-0.79-2.004-1.157
		c-0.22-0.119-0.483-0.158-0.87-0.278c-0.217,0.163-0.629,0.318-0.706,0.574c-0.091,0.298-0.004,0.857,0.21,1.003
		c0.941,0.64,1.936,1.215,2.961,1.709c0.229,0.11,0.75-0.109,0.978-0.336c0.306-0.305,0.18-0.744-0.09-1.079
		C30.56,21.571,30.396,21.413,30.215,21.302z"/>
	<path fill-rule="evenodd" clip-rule="evenodd" fill="#4C67B0" d="M17.274,7.816c-4.68,0.384-7.695,4.492-6.663,9.05
		c0.322,1.424,1.101,2.606,1.852,3.82c0.453,0.731,0.939,1.514,1.102,2.334c0.192,0.97,0.426,1.801,1.169,2.213
		c0.093,0.481,0.158,0.825,0.243,1.264c-0.347,0.272-0.257,0.663,0.131,1.027c-0.488,0.539-0.482,0.57,0.176,1.251
		c-0.227,0.615-0.142,0.845,0.532,1.133c0.604,0.26,1.277,0.372,1.724,0.922c0.238,0,0.477,0,0.714,0
		c0.485-0.534,1.169-0.668,1.798-0.927c0.66-0.271,0.752-0.538,0.523-1.178c0.688-0.519,0.703-0.603,0.192-1.229
		c0.467-0.354,0.489-0.734-0.041-1.124c0.373-0.29,0.562-0.61,0.134-1.014c0.756-0.471,1.217-1.064,1.307-1.931
		c0.049-0.463,0.153-0.952,0.371-1.355c0.495-0.922,1.085-1.793,1.619-2.694c1.103-1.861,1.56-3.856,1.045-5.984
		C24.338,9.812,21.028,7.508,17.274,7.816z M17.225,9.527c-1.763,1.763-3.527,3.525-5.375,5.372
		c-0.002-3.363,2.954-5.72,5.519-5.566C17.313,9.41,17.276,9.476,17.225,9.527z"/>
</g>
</svg>
