<?xml version="1.0" encoding="utf-8"?>
<!-- Generator: Adobe Illustrator 16.0.0, SVG Export Plug-In . SVG Version: 6.00 Build 0)  -->
<!DOCTYPE svg PUBLIC "-//W3C//DTD SVG 1.1//EN" "http://www.w3.org/Graphics/SVG/1.1/DTD/svg11.dtd">
<svg version="1.1" id="Layer_1" xmlns="http://www.w3.org/2000/svg" xmlns:xlink="http://www.w3.org/1999/xlink" x="0px" y="0px"
	 width="36px" height="31px" viewBox="0 0 36 31" enable-background="new 0 0 36 31" xml:space="preserve">
<path fill-rule="evenodd" clip-rule="evenodd" fill="#4C67B0" d="M33.213,30.358h-4.729c-1.305,0-2.363-1.025-2.363-2.287v-16
	c0-1.263,1.059-2.286,2.363-2.286h4.729c1.307,0,2.366,1.023,2.366,2.286v16C35.579,29.333,34.52,30.358,33.213,30.358z
	 M20.475,30.358h-4.729c-1.305,0-2.364-1.025-2.364-2.287V2.927c0-1.261,1.06-2.286,2.364-2.286h4.729
	c1.306,0,2.364,1.025,2.364,2.286v25.144C22.839,29.333,21.78,30.358,20.475,30.358z M7.735,30.358H3.006
	c-1.305,0-2.365-1.025-2.365-2.287v-6.549c0-1.266,1.06-2.289,2.365-2.289h4.729c1.307,0,2.364,1.023,2.364,2.289v6.549
	C10.1,29.333,9.042,30.358,7.735,30.358z"/>
</svg>
